OutlineCutoutDetail-ExtraLight.ufo
<glyph name="exclamation" format="2">
  <advance width="349.53812897959176"/>
  <unicode hex="0021"/>
  <outline>
    <contour>
      <point x="197.2873063721201" y="208.36212921142578" type="line"/>
      <point x="208.1774659790537" y="865" type="line"/>
      <point x="141.36066300053807" y="865" type="line"/>
      <point x="152.25082260747166" y="208.36212921142578" type="line"/>
    </contour>
    <contour>
      <point x="239.3621289795918" y="49.59306448979592" type="curve" smooth="yes"/>
      <point x="239.3621289795918" y="85.24294696954293"/>
      <point x="210.4189469695429" y="114.18612897959184"/>
      <point x="174.76906448979588" y="114.18612897959184" type="curve" smooth="yes"/>
      <point x="139.1191820100489" y="114.18612897959184"/>
      <point x="110.17599999999996" y="85.24294696954294"/>
      <point x="110.17599999999996" y="49.59306448979593" type="curve" smooth="yes"/>
      <point x="110.17599999999996" y="13.943182010048922"/>
      <point x="139.11918201004886" y="-15.0"/>
      <point x="174.76906448979588" y="-15.0" type="curve" smooth="yes"/>
      <point x="210.41894696954287" y="-15.0"/>
      <point x="239.3621289795918" y="13.9431820100489"/>
    </contour>
  </outline>
</glyph>
<glyph name="quote_dbl" format="2">
  <advance width="405.3701503295897"/>
  <unicode hex="0022"/>
  <outline>
    <contour>
      <point x="154.5533803710937" y="598.2699966430664" type="line"/>
      <point x="160.79449975585933" y="850" type="line"/>
      <point x="103.17599999999996" y="850" type="line"/>
      <point x="109.41711938476558" y="598.2699966430664" type="line"/>
    </contour>
    <contour>
      <point x="297.9530233154296" y="598.2699966430664" type="line"/>
      <point x="304.1941503295898" y="850" type="line"/>
      <point x="246.5756429443359" y="850" type="line"/>
      <point x="252.81676995849605" y="598.2699966430664" type="line"/>
    </contour>
  </outline>
</glyph>
<glyph name="numbersign" format="2">
  <advance width="735.6558330078124"/>
  <unicode hex="0023"/>
  <outline>
    <contour>
      <point x="470.21455133056634" y="249.03506469726562" type="line"/>
      <point x="633.3788579711913" y="249.03506469726562" type="line"/>
      <point x="633.3788579711913" y="299.81432342529297" type="line"/>
      <point x="479.1683019409179" y="299.81432342529297" type="line"/>
      <point x="523.315533996582" y="550.185676574707" type="line"/>
      <point x="686.4798330078124" y="550.185676574707" type="line"/>
      <point x="686.4798330078124" y="600.9649353027344" type="line"/>
      <point x="532.2692846069335" y="600.9649353027344" type="line"/>
      <point x="576.1808828124999" y="850" type="line"/>
      <point x="521.9044469604491" y="850" type="line"/>
      <point x="477.99284875488274" y="600.9649353027344" type="line"/>
      <point x="319.7177175292968" y="600.9649353027344" type="line"/>
      <point x="363.6293157348632" y="850" type="line"/>
      <point x="309.35287988281243" y="850" type="line"/>
      <point x="265.441281677246" y="600.9649353027344" type="line"/>
      <point x="102.27697503662105" y="600.9649353027344" type="line"/>
      <point x="102.27697503662105" y="550.185676574707" type="line"/>
      <point x="256.48753106689446" y="550.185676574707" type="line"/>
      <point x="212.34029901123043" y="299.81432342529297" type="line"/>
      <point x="49.17599999999996" y="299.81432342529297" type="line"/>
      <point x="49.17599999999996" y="249.03506469726562" type="line"/>
      <point x="203.38654840087887" y="249.03506469726562" type="line"/>
      <point x="159.47495019531246" y="0" type="line"/>
      <point x="213.75138604736324" y="0" type="line"/>
      <point x="257.6629842529296" y="249.03506469726562" type="line"/>
      <point x="415.93811547851556" y="249.03506469726562" type="line"/>
      <point x="372.02651727294915" y="0" type="line"/>
      <point x="426.30295312499993" y="0" type="line"/>
    </contour>
    <contour>
      <point x="266.6167348632812" y="299.81432342529297" type="line"/>
      <point x="310.76396691894524" y="550.185676574707" type="line"/>
      <point x="469.0390981445312" y="550.185676574707" type="line"/>
      <point x="424.8918660888671" y="299.81432342529297" type="line"/>
    </contour>
  </outline>
</glyph>
<glyph name="dollar" format="2">
  <advance width="601.7781904761905"/>
  <unicode hex="0024"/>
  <outline>
    <contour>
      <point x="267.1483815917969" y="-100" type="line"/>
      <point x="321.26838433837895" y="-100" type="line"/>
      <point x="321.26838433837895" y="17.091773986816406" type="line"/>
      <point x="452.6291879235622" y="31.441014700102805"/>
      <point x="553.6021904761906" y="118.77717629605421"/>
      <point x="553.6021904761906" y="235.10257142857145" type="curve"/>
      <point x="553.6021904761906" y="367.9813937175213"/>
      <point x="428.89450742769367" y="418.2187927273243"/>
      <point x="357.04029103093995" y="444.6415099583577" type="curve"/>
      <point x="258.18600706476326" y="480.99287419691575" type="line"/>
      <point x="182.99873607227664" y="508.64124475095474"/>
      <point x="102.94300000000008" y="542.6130405090809"/>
      <point x="102.94300000000003" y="627.6287142857142" type="curve"/>
      <point x="102.94300000000005" y="716.9984038230812"/>
      <point x="193.61869931095617" y="782.5859999999999"/>
      <point x="305.61195238095246" y="782.5859999999999" type="curve"/>
      <point x="393.1467844679307" y="782.5859993732549"/>
      <point x="471.15277695102105" y="758.2125905675503"/>
      <point x="521.8793309936525" y="714.247802734375" type="curve"/>
      <point x="521.8793309936525" y="774.9793167114258" type="line"/>
      <point x="472.31974839541925" y="813.0031553844124"/>
      <point x="401.11250722962654" y="832.538820815942"/>
      <point x="321.26838433837895" y="834.7770309448242" type="curve"/>
      <point x="321.26838433837895" y="950" type="line"/>
      <point x="267.1483815917969" y="950" type="line"/>
      <point x="267.1483815917969" y="832.7475433349609" type="line"/>
      <point x="144.30415872933696" y="818.2917714771919"/>
      <point x="50.176000000000016" y="735.1692680938751"/>
      <point x="50.17599999999996" y="626.2757142857142" type="curve"/>
      <point x="50.17600000000013" y="505.0171216921958"/>
      <point x="162.80619900843078" y="457.70289081734103"/>
      <point x="240.80881205533763" y="428.99111566550556" type="curve"/>
      <point x="339.56299766756285" y="392.6409491538304" type="line"/>
      <point x="428.6011102711581" y="359.867146211089"/>
      <point x="500.8351904761908" y="318.981580365785"/>
      <point x="500.8351904761906" y="233.74957142857141" type="curve"/>
      <point x="500.8351904761906" y="137.06233270557055"/>
      <point x="403.28171633205034" y="67.41399999999999"/>
      <point x="282.8048095238096" y="67.41399999999999" type="curve"/>
      <point x="186.25917265520644" y="67.41400055806585"/>
      <point x="101.07161016288548" y="98.08080388664735"/>
      <point x="50.17600000000006" y="151.87577056884766" type="curve"/>
      <point x="50.17600000000006" y="87.85600280761719" type="line"/>
      <point x="101.99286633807104" y="42.10583958834161"/>
      <point x="179.60253599659353" y="17.806581270913977"/>
      <point x="267.1483815917969" y="15.236053466796832" type="curve"/>
    </contour>
  </outline>
</glyph>
<glyph name="percent" format="2">
  <advance width="1101.8163550921986"/>
  <unicode hex="0025"/>
  <outline>
    <contour>
      <point x="481.47409523809523" y="653.8509523809523" type="curve" smooth="yes"/>
      <point x="481.47409523809523" y="770.3872832206"/>
      <point x="386.86137845869524" y="865.0"/>
      <point x="270.32504761904755" y="865.0" type="curve" smooth="yes"/>
      <point x="153.78871677939998" y="865.0"/>
      <point x="59.17599999999996" y="770.3872832206"/>
      <point x="59.17599999999996" y="653.8509523809523" type="curve" smooth="yes"/>
      <point x="59.17599999999993" y="537.3146215413047"/>
      <point x="153.78871677939992" y="442.70190476190476"/>
      <point x="270.32504761904755" y="442.7019047619047" type="curve" smooth="yes"/>
      <point x="386.8613784586952" y="442.70190476190464"/>
      <point x="481.47409523809523" y="537.3146215413046"/>
    </contour>
    <contour>
      <point x="199.16634482758616" y="0" type="line"/>
      <point x="264.0435726107893" y="0" type="line"/>
      <point x="902.6500102938949" y="850" type="line"/>
      <point x="837.7727825106917" y="850" type="line"/>
    </contour>
    <contour>
      <point x="428.4794179967159" y="653.8509523809523" type="curve" smooth="yes"/>
      <point x="428.4794179967159" y="565.0720946818078"/>
      <point x="357.89923106896435" y="493.04684814121504"/>
      <point x="270.32504761904755" y="493.04684814121504" type="curve" smooth="yes"/>
      <point x="182.7508641691308" y="493.04684814121504"/>
      <point x="112.17067724137925" y="565.0720946818078"/>
      <point x="112.17067724137925" y="653.8509523809523" type="curve" smooth="yes"/>
      <point x="112.17067724137925" y="742.6298100800968"/>
      <point x="182.7508641691308" y="814.6550566206896"/>
      <point x="270.32504761904755" y="814.6550566206896" type="curve" smooth="yes"/>
      <point x="357.89923106896435" y="814.6550566206896"/>
      <point x="428.4794179967159" y="742.6298100800968"/>
    </contour>
    <contour>
      <point x="1042.6403550921987" y="196.14904761904762" type="curve" smooth="yes"/>
      <point x="1042.6403550921987" y="312.68537845869525"/>
      <point x="948.0276383127987" y="407.29809523809524"/>
      <point x="831.491307473151" y="407.29809523809524" type="curve" smooth="yes"/>
      <point x="714.9549766335033" y="407.29809523809524"/>
      <point x="620.3422598541033" y="312.68537845869525"/>
      <point x="620.3422598541033" y="196.14904761904762" type="curve" smooth="yes"/>
      <point x="620.3422598541033" y="79.61271677940002"/>
      <point x="714.9549766335033" y="-14.999999999999972"/>
      <point x="831.491307473151" y="-15.0" type="curve" smooth="yes"/>
      <point x="948.0276383127984" y="-15.000000000000028"/>
      <point x="1042.6403550921984" y="79.61271677939995"/>
    </contour>
    <contour>
      <point x="989.6456778508193" y="196.14904761904762" type="curve" smooth="yes"/>
      <point x="989.6456778508193" y="107.37018991990308"/>
      <point x="919.0654909230677" y="35.34494337931034"/>
      <point x="831.491307473151" y="35.34494337931034" type="curve" smooth="yes"/>
      <point x="743.9171240232342" y="35.34494337931034"/>
      <point x="673.3369370954827" y="107.37018991990308"/>
      <point x="673.3369370954827" y="196.14904761904762" type="curve" smooth="yes"/>
      <point x="673.3369370954827" y="284.9279053181922"/>
      <point x="743.9171240232342" y="356.9531518587849"/>
      <point x="831.491307473151" y="356.9531518587849" type="curve" smooth="yes"/>
      <point x="919.0654909230677" y="356.9531518587849"/>
      <point x="989.6456778508193" y="284.9279053181922"/>
    </contour>
  </outline>
</glyph>
<glyph name="ampersand" format="2">
  <advance width="810.6642114868164"/>
  <unicode hex="0026"/>
  <outline>
    <contour>
      <point x="243.8172196398826" y="489.89085401836127" type="curve"/>
      <point x="247.24700054931637" y="486.2526397705078" type="line"/>
      <point x="137.46499291828732" y="461.1332274112492"/>
      <point x="59.17599999999996" y="372.10021549407116"/>
      <point x="59.17599999999996" y="239.26500000000001" type="curve" smooth="yes"/>
      <point x="59.17599999999997" y="81.07134096216359"/>
      <point x="170.2090833323544" y="-14.999999999999982"/>
      <point x="313.77924999999993" y="-15.0" type="curve"/>
      <point x="457.0339550595331" y="-15.0"/>
      <point x="519.6027785583975" y="84.2485950387663"/>
      <point x="555.3763204187647" y="152.50715691741058" type="curve"/>
      <point x="557.6973255615235" y="156.93580627441406" type="line"/>
      <point x="705.6423099975586" y="-3.814697265625e-06" type="line"/>
      <point x="779.4882114868165" y="0" type="line"/>
      <point x="584.0803059082032" y="207.28311157226562" type="line"/>
      <point x="732.4609974365235" y="490.44166564941406" type="line"/>
      <point x="674.415594909668" y="490.44166564941406" type="line"/>
      <point x="546.7728336791993" y="246.85781860351562" type="line"/>
      <point x="279.4653293033206" y="530.4338712797089" type="line"/>
      <point x="242.8945543236076" y="569.230372845462"/>
      <point x="211.5316785714285" y="605.6189868460609"/>
      <point x="211.53167857142856" y="662.8230000000001" type="curve"/>
      <point x="211.5316785714285" y="746.0323707241611"/>
      <point x="278.7280875832753" y="813.586"/>
      <point x="361.68125" y="813.586" type="curve"/>
      <point x="445.69044285428004" y="813.586"/>
      <point x="513.8952499999999" y="745.43862710031"/>
      <point x="513.8952499999999" y="661.47" type="curve"/>
      <point x="565.3092487792969" y="661.4700012207031" type="line"/>
      <point x="565.30925" y="773.8012640206"/>
      <point x="474.1105140206" y="865.0"/>
      <point x="361.77924999999993" y="865.0" type="curve" smooth="yes"/>
      <point x="249.44798597939993" y="865.0"/>
      <point x="158.24925" y="773.8012640206001"/>
      <point x="158.24925" y="661.47" type="curve"/>
      <point x="158.24925" y="584.8762697401635"/>
      <point x="198.2322672473086" y="538.2460777663892"/>
    </contour>
    <contour>
      <point x="314.68125" y="37.09050000000002" type="curve"/>
      <point x="203.0531599177331" y="37.090500000000034"/>
      <point x="112.61949999999999" y="127.9686210617107"/>
      <point x="112.61949999999999" y="239.9415" type="curve" smooth="yes"/>
      <point x="112.61949999999999" y="343.4260028066642"/>
      <point x="189.8617744273902" y="428.89279983470254"/>
      <point x="289.69009289550775" y="441.23021697998047" type="curve"/>
      <point x="520.3898533325196" y="196.51050567626953" type="line"/>
      <point x="517.4837474942959" y="190.96730510735563" type="line"/>
      <point x="482.12896957267253" y="123.53045455935325"/>
      <point x="430.2210625923834" y="37.0905"/>
    </contour>
  </outline>
</glyph>
<glyph name="quote" format="2">
  <advance width="261.9704997558593"/>
  <unicode hex="0027"/>
  <outline>
    <contour>
      <point x="154.5533803710937" y="598.2699966430664" type="line"/>
      <point x="160.79449975585933" y="850" type="line"/>
      <point x="103.17599999999996" y="850" type="line"/>
      <point x="109.41711938476558" y="598.2699966430664" type="line"/>
    </contour>
  </outline>
</glyph>
<glyph name="parenleft" format="2">
  <advance width="328.24723121781756"/>
  <unicode hex="0028"/>
  <outline>
    <contour>
      <point x="133.296" y="425.0000000000001" type="curve" smooth="yes"/>
      <point x="133.29599999999988" y="614.9213870597868"/>
      <point x="190.2790516628508" y="791.5377293434609"/>
      <point x="288.0700944380324" y="938.5299987792969" type="curve"/>
      <point x="224.93503889604023" y="938.5299987792969" type="line"/>
      <point x="132.53079074716328" y="789.2578415869183"/>
      <point x="79.17599999999987" y="613.3105942535578"/>
      <point x="79.17599999999999" y="425.0000000000001" type="curve" smooth="yes"/>
      <point x="79.17599999999987" y="236.69156410826864"/>
      <point x="132.52956767966572" y="60.746191728111285"/>
      <point x="224.93133101029804" y="-88.52999877929688" type="curve"/>
      <point x="288.07123121781757" y="-88.52999877929688" type="line"/>
      <point x="190.2793585112491" y="58.461319595448145"/>
      <point x="133.29599999999988" y="235.07810158645765"/>
    </contour>
  </outline>
</glyph>
<glyph name="parenright" format="2">
  <advance width="327.2472312178176"/>
  <unicode hex="0029"/>
  <outline>
    <contour>
      <point x="249.07123121781765" y="425.0000000000001" type="curve" smooth="yes"/>
      <point x="249.07123121781765" y="613.3084358917315"/>
      <point x="195.7176635381517" y="789.2538082718888"/>
      <point x="103.31590020751949" y="938.5299987792969" type="curve"/>
      <point x="40.17599999999996" y="938.5299987792969" type="line"/>
      <point x="137.96787270656844" y="791.538680404552"/>
      <point x="194.95123121781765" y="614.9218984135425"/>
      <point x="194.95123121781754" y="425.00000000000006" type="curve" smooth="yes"/>
      <point x="194.95123121781765" y="235.07861294021333"/>
      <point x="137.96817955496672" y="58.46227065653915"/>
      <point x="40.177136779785116" y="-88.52999877929688" type="curve"/>
      <point x="103.3121923217773" y="-88.52999877929688" type="line"/>
      <point x="195.71644047065413" y="60.74215841308197"/>
      <point x="249.07123121781754" y="236.68940574644245"/>
    </contour>
  </outline>
</glyph>
<glyph name="asterisk" format="2">
  <advance width="450.6406123657225"/>
  <unicode hex="002A"/>
  <outline>
    <contour>
      <point x="261.69582879638665" y="685.843376159668" type="line"/>
      <point x="390.4646123657226" y="724.7070388793945" type="line"/>
      <point x="387.68542719542904" y="741.792777180557"/>
      <point x="382.3244507519006" y="757.984718559777"/>
      <point x="374.7965444335937" y="772.8538665771484" type="curve"/>
      <point x="247.79868066406243" y="728.6144027709961" type="line"/>
      <point x="250.62884271240227" y="863.0878524780273" type="line"/>
      <point x="242.37208155230633" y="864.3490524791495"/>
      <point x="233.91776964394398" y="865.0"/>
      <point x="225.31262048339835" y="865.0" type="curve" smooth="yes"/>
      <point x="216.7076560322525" y="865.0"/>
      <point x="208.25352235792064" y="864.3490804240074"/>
      <point x="199.99672448730462" y="863.0727081298828" type="curve"/>
      <point x="202.82655847167962" y="728.6144027709961" type="line"/>
      <point x="75.81219995117183" y="772.8596115112305" type="line"/>
      <point x="68.30683480056572" y="757.9885718429891"/>
      <point x="62.95755086165539" y="741.8400226680294"/>
      <point x="60.17599999999996" y="724.702392578125" type="curve"/>
      <point x="188.9294103393554" y="685.843376159668" type="line"/>
      <point x="107.62946069335932" y="578.7566986083984" type="line"/>
      <point x="119.63616219053826" y="566.8670105308327"/>
      <point x="133.43076281501078" y="556.7866987760527"/>
      <point x="148.57156884765618" y="548.9701690673828" type="curve"/>
      <point x="225.31261956787102" y="659.4094314575195" type="line"/>
      <point x="302.0569738159179" y="548.9654083251953" type="line"/>
      <point x="317.1926745419278" y="556.7861829601295"/>
      <point x="330.9830753459059" y="566.862844427506"/>
      <point x="342.98692071533196" y="578.7683639526367" type="curve"/>
    </contour>
  </outline>
</glyph>
<glyph name="plus" format="2">
  <advance width="795.4119975585937"/>
  <unicode hex="002B"/>
  <outline>
    <contour>
      <point x="371.3059972534179" y="136.47000122070312" type="line"/>
      <point x="424.1060003051757" y="136.47000122070312" type="line"/>
      <point x="424.1060003051757" y="398.5999984741211" type="line"/>
      <point x="686.2359975585938" y="398.5999984741211" type="line"/>
      <point x="686.2359975585938" y="451.4000015258789" type="line"/>
      <point x="424.1060003051757" y="451.4000015258789" type="line"/>
      <point x="424.1060003051757" y="713.5299987792969" type="line"/>
      <point x="371.3059972534179" y="713.5299987792969" type="line"/>
      <point x="371.3059972534179" y="451.4000015258789" type="line"/>
      <point x="109.17599999999996" y="451.4000015258789" type="line"/>
      <point x="109.17599999999996" y="398.5999984741211" type="line"/>
      <point x="371.3059972534179" y="398.5999984741211" type="line"/>
    </contour>
  </outline>
</glyph>
<glyph name="hyphen" format="2">
  <advance width="529.8465238095237"/>
  <unicode hex="002D"/>
  <outline>
    <contour>
      <point x="109.17599999999996" y="267.865" type="line"/>
      <point x="420.67052380952373" y="267.865" type="line"/>
      <point x="420.67052380952373" y="320.665" type="line"/>
      <point x="109.17599999999996" y="320.665" type="line"/>
    </contour>
  </outline>
</glyph>
<glyph name="period" format="2">
  <advance width="313.53812897959176"/>
  <unicode hex="002E"/>
  <outline>
    <contour>
      <point x="221.3621289795918" y="49.59306448979592" type="curve" smooth="yes"/>
      <point x="221.3621289795918" y="85.24294696954293"/>
      <point x="192.4189469695429" y="114.18612897959184"/>
      <point x="156.76906448979588" y="114.18612897959184" type="curve" smooth="yes"/>
      <point x="121.11918201004889" y="114.18612897959184"/>
      <point x="92.17599999999996" y="85.24294696954294"/>
      <point x="92.17599999999996" y="49.59306448979593" type="curve" smooth="yes"/>
      <point x="92.17599999999996" y="13.943182010048922"/>
      <point x="121.11918201004886" y="-15.0"/>
      <point x="156.76906448979588" y="-15.0" type="curve" smooth="yes"/>
      <point x="192.41894696954287" y="-15.0"/>
      <point x="221.3621289795918" y="13.9431820100489"/>
    </contour>
  </outline>
</glyph>
<glyph name="slash" format="2">
  <advance width="369.49293780517564"/>
  <unicode hex="002F"/>
  <outline>
    <contour>
      <point x="294.6543554077148" y="938.5299987792969" type="line"/>
      <point x="43.17599999999996" y="0" type="line"/>
      <point x="97.83858239746088" y="0" type="line"/>
      <point x="349.3169378051757" y="938.5299987792969" type="line"/>
    </contour>
  </outline>
</glyph>
<glyph name="zero" format="2">
  <advance width="773.7867619047619"/>
  <unicode hex="0030"/>
  <outline>
    <contour>
      <point x="689.610761904762" y="425.0" type="curve" smooth="yes"/>
      <point x="689.610761904762" y="668.1819349163377"/>
      <point x="575.8349882845902" y="865.0"/>
      <point x="386.8933809523809" y="865.0" type="curve" smooth="yes"/>
      <point x="197.95177362017176" y="865.0"/>
      <point x="84.17599999999996" y="668.1819349163377"/>
      <point x="84.17599999999996" y="425.0" type="curve" smooth="yes"/>
      <point x="84.17599999999996" y="181.81806508366225"/>
      <point x="197.95177362017176" y="-15.0"/>
      <point x="386.8933809523809" y="-15.0" type="curve" smooth="yes"/>
      <point x="575.8349882845902" y="-15.0"/>
      <point x="689.610761904762" y="181.81806508366225"/>
    </contour>
    <contour>
      <point x="635.4907619047619" y="425.0" type="curve" smooth="yes"/>
      <point x="635.4907619047619" y="210.1496497236679"/>
      <point x="542.1943424227413" y="36.41399999999999"/>
      <point x="386.8933809523809" y="36.41399999999999" type="curve" smooth="yes"/>
      <point x="231.59241948202055" y="36.41399999999999"/>
      <point x="138.29599999999994" y="210.1496497236679"/>
      <point x="138.29599999999994" y="425.0" type="curve" smooth="yes"/>
      <point x="138.29599999999994" y="639.8503502763322"/>
      <point x="231.59241948202055" y="813.586"/>
      <point x="386.8933809523809" y="813.586" type="curve" smooth="yes"/>
      <point x="542.1943424227413" y="813.586"/>
      <point x="635.4907619047619" y="639.8503502763322"/>
    </contour>
  </outline>
</glyph>
<glyph name="one" format="2">
  <advance width="545.1048076171874"/>
  <unicode hex="0031"/>
  <outline>
    <contour>
      <point x="300.6236013183593" y="0" type="line"/>
      <point x="355.92880761718743" y="0" type="line"/>
      <point x="355.92880761718743" y="850" type="line"/>
      <point x="173.74159753417965" y="850" type="line"/>
      <point x="134.17599999999996" y="798.5859985351562" type="line"/>
      <point x="300.6236013183593" y="798.5859985351562" type="line"/>
    </contour>
  </outline>
</glyph>
<glyph name="two" format="2">
  <advance width="705.1362178344725"/>
  <unicode hex="0032"/>
  <outline>
    <contour>
      <point x="78.17599999999996" y="0" type="line"/>
      <point x="613.9602178344726" y="0" type="line"/>
      <point x="613.9602178344726" y="51.41400146484375" type="line"/>
      <point x="193.18097436523433" y="51.41400146484375" type="line"/>
      <point x="490.4319012137014" y="392.9910748988049" type="line"/>
      <point x="551.6028218116464" y="463.28382136266686"/>
      <point x="593.9602208567508" y="528.041244056683"/>
      <point x="593.9602208567508" y="619.6634353741497" type="curve"/>
      <point x="593.9602208567508" y="755.062650584031"/>
      <point x="483.1471793929211" y="865.0"/>
      <point x="346.6067990880433" y="865.0" type="curve"/>
      <point x="257.33892470460546" y="865.0"/>
      <point x="177.95763797160242" y="834.0444669230045"/>
      <point x="127.69909417724605" y="779.2326736450195" type="curve"/>
      <point x="127.69909417724605" y="708.8023071289062" type="line"/>
      <point x="170.48065790157617" y="773.1603891779798"/>
      <point x="251.28971833179455" y="813.5860000000001"/>
      <point x="343.88394194518617" y="813.5860000000001" type="curve"/>
      <point x="452.4552289161244" y="813.586"/>
      <point x="540.6101774047568" y="728.3492262039761"/>
      <point x="540.6101774047568" y="620.5654353741497" type="curve"/>
      <point x="540.6101774047568" y="549.5427977820901"/>
      <point x="507.6594908852021" y="495.468070063431"/>
      <point x="450.8060431113771" y="429.87982594515245" type="curve"/>
    </contour>
  </outline>
</glyph>
<glyph name="three" format="2">
  <advance width="678.4296214599609"/>
  <unicode hex="0033"/>
  <outline>
    <contour>
      <point x="306.7148095238094" y="-15.000000000000007" type="curve"/>
      <point x="471.0282950518875" y="-15.0"/>
      <point x="604.253619047619" y="108.73901475648361"/>
      <point x="604.253619047619" y="261.2888095238095" type="curve"/>
      <point x="604.253619047619" y="414.3871315821922"/>
      <point x="477.1094168620735" y="528.3575254571717"/>
      <point x="316.5016530761718" y="537.0335311889648" type="curve"/>
      <point x="609.253621459961" y="850" type="line"/>
      <point x="117.23467004394526" y="850" type="line"/>
      <point x="117.23467004394526" y="798.5859985351562" type="line"/>
      <point x="491.2123693237304" y="798.5859985351562" type="line"/>
      <point x="187.2800954589843" y="474.7620315551758" type="line"/>
      <point x="231.20826896261434" y="484.46161892187786"/>
      <point x="272.2160956359706" y="486.0940926792516"/>
      <point x="293.68109523809517" y="486.0940926792516" type="curve"/>
      <point x="435.29442320600646" y="486.0940926792516"/>
      <point x="550.133619047619" y="392.9324076748034"/>
      <point x="550.133619047619" y="261.2888095238095" type="curve"/>
      <point x="550.133619047619" y="137.26791168226333"/>
      <point x="441.1627614490415" y="36.483526368367365"/>
      <point x="306.71480952380944" y="36.483526368367365" type="curve"/>
      <point x="220.36679789051914" y="36.48352636836737"/>
      <point x="142.76074129350633" y="68.31870989294674"/>
      <point x="89.17599999999996" y="118.90692138671875" type="curve"/>
      <point x="89.17599999999996" y="56.270240783691406" type="line"/>
      <point x="144.84551394242908" y="10.705350026565881"/>
      <point x="221.77167760295532" y="-15.000000000000018"/>
    </contour>
  </outline>
</glyph>
<glyph name="four" format="2">
  <advance width="722.7360026855469"/>
  <unicode hex="0034"/>
  <outline>
    <contour>
      <point x="38.17599999999996" y="242.94000244140625" type="line"/>
      <point x="509.43999993896483" y="242.94000244140625" type="line"/>
      <point x="509.43999993896483" y="0" type="line"/>
      <point x="563.5600026855469" y="0" type="line"/>
      <point x="563.5600026855469" y="242.94000244140625" type="line"/>
      <point x="663.5600026855469" y="242.94000244140625" type="line"/>
      <point x="663.5600026855469" y="293.92637634277344" type="line"/>
      <point x="563.5600026855469" y="293.92637634277344" type="line"/>
      <point x="563.5600026855469" y="607.1428604125977" type="line"/>
      <point x="509.43999993896483" y="607.1428604125977" type="line"/>
      <point x="509.43999993896483" y="293.92637634277344" type="line"/>
      <point x="135.8104146728515" y="293.92637634277344" type="line"/>
      <point x="508.36585748291014" y="850" type="line"/>
      <point x="444.0593236694336" y="850" type="line"/>
    </contour>
  </outline>
</glyph>
<glyph name="five" format="2">
  <advance width="678.2715212809245"/>
  <unicode hex="0035"/>
  <outline>
    <contour>
      <point x="300.7743308047339" y="-15.0" type="curve"/>
      <point x="466.0951592899749" y="-15.0"/>
      <point x="600.0955212809246" y="110.33971217892827"/>
      <point x="600.0955212809246" y="264.59833333333336" type="curve"/>
      <point x="600.0955212809246" y="422.4819100179359"/>
      <point x="469.0058833174667" y="544.1966666666667"/>
      <point x="307.4971879475911" y="544.1966666666667" type="curve"/>
      <point x="274.4951742378368" y="544.1966666666667"/>
      <point x="234.60417314875696" y="539.9780160086871"/>
      <point x="193.54561364746087" y="526.2808609008789" type="curve"/>
      <point x="215.71992242431634" y="798.5859985351562" type="line"/>
      <point x="563.3726629028321" y="798.5859985351562" type="line"/>
      <point x="563.3726629028321" y="850" type="line"/>
      <point x="166.43923699951165" y="850" type="line"/>
      <point x="138.0659726867675" y="501.57035064697266" type="line"/>
      <point x="133.36325585937493" y="443.8199920654297" type="line"/>
      <point x="180.63685284147016" y="474.8921470269852"/>
      <point x="240.28857253987843" y="492.6473666666667"/>
      <point x="305.1189022333054" y="492.64736666666664" type="curve"/>
      <point x="438.0646890520067" y="492.6473666666667"/>
      <point x="545.9755212809246" y="395.04399579783376"/>
      <point x="545.9755212809246" y="264.59833333333336" type="curve"/>
      <point x="545.9755212809246" y="138.24673441237158"/>
      <point x="435.4338742028615" y="36.54930000000002"/>
      <point x="299.0514736618768" y="36.54930000000002" type="curve"/>
      <point x="212.5694183007904" y="36.549300000000024"/>
      <point x="135.14149910803593" y="68.93412743887191"/>
      <point x="83.17599999999996" y="119.92346954345703" type="curve"/>
      <point x="83.17599999999996" y="57.880218505859375" type="line"/>
      <point x="139.81921908437215" y="12.733168192998967"/>
      <point x="216.42700841074202" y="-15.00000000000001"/>
    </contour>
  </outline>
</glyph>
<glyph name="six" format="2">
  <advance width="731.3887816091955"/>
  <unicode hex="0036"/>
  <outline>
    <contour>
      <point x="151.91418940659054" y="480.0906722763206" type="line"/>
      <point x="105.5722486056229" y="411.34229853667966"/>
      <point x="74.17599999999996" y="355.93638277652826"/>
      <point x="74.17599999999996" y="275.6866666666668" type="curve"/>
      <point x="74.17599999999997" y="114.79328817537927"/>
      <point x="204.80101231331008" y="-14.99999999999998"/>
      <point x="365.6943908045976" y="-15.0" type="curve" smooth="yes"/>
      <point x="526.5877692958851" y="-15.0"/>
      <point x="657.2127816091955" y="114.7932881753793"/>
      <point x="657.2127816091955" y="275.68666666666667" type="curve"/>
      <point x="657.2127816091955" y="435.9128596029156"/>
      <point x="527.1294393270535" y="565.1644777471265"/>
      <point x="366.9032463908046" y="565.1644777471265" type="curve" smooth="yes"/>
      <point x="328.6665472561123" y="565.1644777471265"/>
      <point x="292.14648359168626" y="557.8035975556099"/>
      <point x="258.70124566650384" y="544.4045104980469" type="curve"/>
      <point x="465.67770898437493" y="850" type="line"/>
      <point x="401.26286828613274" y="850" type="line"/>
    </contour>
    <contour>
      <point x="603.0927816091955" y="275.6866666666667" type="curve" smooth="yes"/>
      <point x="603.0927816091955" y="143.58350216050192"/>
      <point x="497.0245864289107" y="36.414000000000016"/>
      <point x="365.6943908045977" y="36.414000000000016" type="curve" smooth="yes"/>
      <point x="234.36419518028464" y="36.414000000000016"/>
      <point x="128.29599999999994" y="143.58350216050192"/>
      <point x="128.29599999999994" y="275.6866666666667" type="curve" smooth="yes"/>
      <point x="128.29599999999994" y="407.78983117283155"/>
      <point x="234.36419518028464" y="514.9593333333335"/>
      <point x="365.6943908045977" y="514.9593333333335" type="curve" smooth="yes"/>
      <point x="497.0245864289107" y="514.9593333333335"/>
      <point x="603.0927816091955" y="407.78983117283155"/>
    </contour>
  </outline>
</glyph>
<glyph name="seven" format="2">
  <advance width="718.3012416381836"/>
  <unicode hex="0037"/>
  <outline>
    <contour>
      <point x="571.6657613525391" y="798.5859985351562" type="line"/>
      <point x="145.32209527587884" y="0" type="line"/>
      <point x="206.3418401489257" y="0" type="line"/>
      <point x="659.1252416381836" y="850" type="line"/>
      <point x="99.17599999999996" y="850" type="line"/>
      <point x="99.17599999999996" y="798.5859985351562" type="line"/>
    </contour>
  </outline>
</glyph>
<glyph name="eight" format="2">
  <advance width="733.5486666666667"/>
  <unicode hex="0038"/>
  <outline>
    <contour>
      <point x="74.17599999999996" y="226.80714285714285" type="curve"/>
      <point x="74.17599999999997" y="93.48533917303871"/>
      <point x="205.12128168133682" y="-14.99999999999998"/>
      <point x="366.77433333333323" y="-15.0" type="curve" smooth="yes"/>
      <point x="528.4273849853299" y="-15.000000000000028"/>
      <point x="659.3726666666668" y="93.48533917303865"/>
      <point x="659.3726666666668" y="226.80714285714282" type="curve"/>
      <point x="659.3726666666668" y="326.27992435452154"/>
      <point x="591.493745411182" y="407.8506953835758"/>
      <point x="493.16644036865233" y="445.73241424560547" type="curve"/>
      <point x="580.0887288015606" y="481.72412200048063"/>
      <point x="639.3726666666668" y="554.5706744460554"/>
      <point x="639.3726666666668" y="643.1928571428572" type="curve"/>
      <point x="639.3726666666668" y="765.4774436421533"/>
      <point x="517.390365516113" y="865.0"/>
      <point x="366.7743333333333" y="865.0" type="curve" smooth="yes"/>
      <point x="216.1583011505537" y="865.0"/>
      <point x="94.17599999999995" y="765.4774436421533"/>
      <point x="94.17599999999995" y="643.1928571428572" type="curve"/>
      <point x="94.17599999999995" y="554.5702926247375"/>
      <point x="153.460448614881" y="481.7234947782217"/>
      <point x="240.3833898315429" y="445.7321014404297" type="curve"/>
      <point x="142.05529776275893" y="407.8511483640697"/>
      <point x="74.17599999999996" y="326.2802001224014"/>
    </contour>
    <contour>
      <point x="585.2526666666668" y="641.9472068768473" type="curve" smooth="yes"/>
      <point x="585.2526666666668" y="539.5466494887818"/>
      <point x="487.4639099253687" y="470.3084137536946"/>
      <point x="366.7743333333333" y="470.3084137536946" type="curve" smooth="yes"/>
      <point x="246.0847567412979" y="470.3084137536946"/>
      <point x="148.29599999999994" y="539.5466494887818"/>
      <point x="148.29599999999994" y="641.9472068768473" type="curve" smooth="yes"/>
      <point x="148.29599999999994" y="744.3477642649128"/>
      <point x="246.0847567412979" y="813.586"/>
      <point x="366.7743333333333" y="813.586" type="curve" smooth="yes"/>
      <point x="487.4639099253687" y="813.586"/>
      <point x="585.2526666666668" y="744.3477642649128"/>
    </contour>
    <contour>
      <point x="605.2526666666668" y="228.0527931231527" type="curve" smooth="yes"/>
      <point x="605.2526666666668" y="114.61502517835359"/>
      <point x="498.49726313282105" y="36.41399999999999"/>
      <point x="366.7743333333333" y="36.41399999999999" type="curve" smooth="yes"/>
      <point x="235.05140353384564" y="36.41399999999999"/>
      <point x="128.29599999999994" y="114.61502517835359"/>
      <point x="128.29599999999994" y="228.0527931231527" type="curve" smooth="yes"/>
      <point x="128.29599999999994" y="341.49056106795183"/>
      <point x="235.05140353384564" y="419.6915862463054"/>
      <point x="366.7743333333333" y="419.6915862463054" type="curve" smooth="yes"/>
      <point x="498.49726313282105" y="419.6915862463054"/>
      <point x="605.2526666666668" y="341.49056106795183"/>
    </contour>
  </outline>
</glyph>
<glyph name="nine" format="2">
  <advance width="731.3887816091955"/>
  <unicode hex="0039"/>
  <outline>
    <contour>
      <point x="579.4745919044447" y="369.9093277236794" type="line"/>
      <point x="625.8165327054123" y="438.65770146332034"/>
      <point x="657.2127816091955" y="494.06361722347185"/>
      <point x="657.2127816091955" y="574.3133333333333" type="curve"/>
      <point x="657.2127816091955" y="735.2067118246208"/>
      <point x="526.5877692958853" y="865.0"/>
      <point x="365.6943908045977" y="865.0" type="curve" smooth="yes"/>
      <point x="204.8010123133103" y="865.0"/>
      <point x="74.17599999999996" y="735.2067118246207"/>
      <point x="74.17599999999996" y="574.3133333333333" type="curve"/>
      <point x="74.17599999999996" y="414.08714039708445"/>
      <point x="204.25934228214186" y="284.8355222528735"/>
      <point x="364.4855352183907" y="284.8355222528735" type="curve" smooth="yes"/>
      <point x="402.72223435308297" y="284.8355222528735"/>
      <point x="439.24229801750903" y="292.19640244439006"/>
      <point x="472.6875356445312" y="305.5954895019531" type="curve"/>
      <point x="265.7110723266601" y="0" type="line"/>
      <point x="330.1259130249023" y="0" type="line"/>
    </contour>
    <contour>
      <point x="603.0927816091955" y="574.3133333333333" type="curve" smooth="yes"/>
      <point x="603.0927816091955" y="442.21016882716845"/>
      <point x="497.0245864289107" y="335.04066666666654"/>
      <point x="365.6943908045977" y="335.04066666666654" type="curve" smooth="yes"/>
      <point x="234.36419518028464" y="335.04066666666654"/>
      <point x="128.29599999999994" y="442.21016882716845"/>
      <point x="128.29599999999994" y="574.3133333333333" type="curve" smooth="yes"/>
      <point x="128.29599999999994" y="706.4164978394981"/>
      <point x="234.36419518028464" y="813.586"/>
      <point x="365.6943908045977" y="813.586" type="curve" smooth="yes"/>
      <point x="497.0245864289107" y="813.586"/>
      <point x="603.0927816091955" y="706.4164978394981"/>
    </contour>
  </outline>
</glyph>
<glyph name="colon" format="2">
  <advance width="319.53812897959176"/>
  <unicode hex="003A"/>
  <outline>
    <contour>
      <point x="224.3621289795918" y="538.9369355102041" type="curve" smooth="yes"/>
      <point x="224.3621289795918" y="574.5868179899511"/>
      <point x="195.4189469695429" y="603.53"/>
      <point x="159.76906448979588" y="603.53" type="curve" smooth="yes"/>
      <point x="124.11918201004889" y="603.53"/>
      <point x="95.17599999999996" y="574.5868179899511"/>
      <point x="95.17599999999996" y="538.9369355102041" type="curve" smooth="yes"/>
      <point x="95.17599999999996" y="503.28705303045706"/>
      <point x="124.11918201004886" y="474.3438710204082"/>
      <point x="159.76906448979588" y="474.3438710204082" type="curve" smooth="yes"/>
      <point x="195.41894696954287" y="474.3438710204082"/>
      <point x="224.3621289795918" y="503.28705303045706"/>
    </contour>
    <contour>
      <point x="224.3621289795918" y="49.59306448979592" type="curve" smooth="yes"/>
      <point x="224.3621289795918" y="85.24294696954293"/>
      <point x="195.4189469695429" y="114.18612897959184"/>
      <point x="159.76906448979588" y="114.18612897959184" type="curve" smooth="yes"/>
      <point x="124.11918201004889" y="114.18612897959184"/>
      <point x="95.17599999999996" y="85.24294696954294"/>
      <point x="95.17599999999996" y="49.59306448979593" type="curve" smooth="yes"/>
      <point x="95.17599999999996" y="13.943182010048922"/>
      <point x="124.11918201004886" y="-15.0"/>
      <point x="159.76906448979588" y="-15.0" type="curve" smooth="yes"/>
      <point x="195.41894696954287" y="-15.0"/>
      <point x="224.3621289795918" y="13.9431820100489"/>
    </contour>
  </outline>
</glyph>
<glyph name="less" format="2">
  <advance width="707.8819987792967"/>
  <unicode hex="003C"/>
  <outline>
    <contour>
      <point x="628.7059987792968" y="142.2050018310547" type="line"/>
      <point x="628.7059987792968" y="200.6295623779297" type="line"/>
      <point x="161.10456597900387" y="425" type="line"/>
      <point x="628.7059987792968" y="649.3704376220703" type="line"/>
      <point x="628.7059987792968" y="707.7949981689453" type="line"/>
      <point x="40.17599999999996" y="425" type="line"/>
    </contour>
  </outline>
</glyph>
<glyph name="equal" format="2">
  <advance width="795.4119999999999"/>
  <unicode hex="003D"/>
  <outline>
    <contour>
      <point x="109.17599999999996" y="562.364" type="line"/>
      <point x="686.236" y="562.364" type="line"/>
      <point x="686.236" y="615.164" type="line"/>
      <point x="109.17599999999996" y="615.164" type="line"/>
    </contour>
    <contour>
      <point x="109.17599999999996" y="234.836" type="line"/>
      <point x="686.236" y="234.836" type="line"/>
      <point x="686.236" y="287.636" type="line"/>
      <point x="109.17599999999996" y="287.636" type="line"/>
    </contour>
  </outline>
</glyph>
<glyph name="greater" format="2">
  <advance width="707.8819987792967"/>
  <unicode hex="003E"/>
  <outline>
    <contour>
      <point x="79.17599999999996" y="142.2050018310547" type="line"/>
      <point x="667.7059987792968" y="425" type="line"/>
      <point x="79.17599999999996" y="707.7949981689453" type="line"/>
      <point x="79.17599999999996" y="649.3704376220703" type="line"/>
      <point x="546.7774404296874" y="425" type="line"/>
      <point x="79.17599999999996" y="200.6295623779297" type="line"/>
    </contour>
  </outline>
</glyph>
<glyph name="question" format="2">
  <advance width="623.3312857142857"/>
  <unicode hex="003F"/>
  <outline>
    <contour>
      <point x="265.1656428571428" y="406.43471428571434" type="curve"/>
      <point x="242.66336823765408" y="406.4347143044163"/>
      <point x="215.69248006901103" y="409.37633849884185"/>
      <point x="186.75546777343743" y="418.7777786254883" type="curve"/>
      <point x="188.67886102294915" y="208.36212921142578" type="line"/>
      <point x="233.5074132690429" y="208.36212921142578" type="line"/>
      <point x="236.2185720214843" y="356.6598587036133" type="line"/>
      <point x="248.58624747394134" y="355.24546955619036"/>
      <point x="258.73006036300507" y="355.0207142857143"/>
      <point x="265.16564285714276" y="355.02071428571423" type="curve"/>
      <point x="414.26523406980965" y="355.0207142857143"/>
      <point x="535.1552857142858" y="468.9043244209382"/>
      <point x="535.1552857142858" y="610.0103571428572" type="curve"/>
      <point x="535.1552857142858" y="750.7429661845306"/>
      <point x="420.89825669443576" y="865.0"/>
      <point x="280.1656428571428" y="865.0" type="curve"/>
      <point x="217.54409096831216" y="865.0"/>
      <point x="160.0710151796278" y="843.3674334208129"/>
      <point x="115.17599999999996" y="807.2227249145508" type="curve"/>
      <point x="115.17599999999996" y="745.060302734375" type="line"/>
      <point x="157.10824347360648" y="787.4180800656452"/>
      <point x="215.55915893904927" y="813.5860000000001"/>
      <point x="280.1656428571428" y="813.5860000000001" type="curve"/>
      <point x="392.2969856856146" y="813.586"/>
      <point x="481.0352857142857" y="722.358691066636"/>
      <point x="481.0352857142857" y="610.0103571428572" type="curve"/>
      <point x="481.0352857142857" y="497.55201124658487"/>
      <point x="384.3019436605863" y="406.43471428571434"/>
    </contour>
    <contour>
      <point x="275.68620406286647" y="49.59306448979592" type="curve" smooth="yes"/>
      <point x="275.68620406286647" y="85.24294696954293"/>
      <point x="246.74302205281754" y="114.18612897959184"/>
      <point x="211.09313957307057" y="114.18612897959184" type="curve" smooth="yes"/>
      <point x="175.44325709332355" y="114.18612897959184"/>
      <point x="146.50007508327462" y="85.24294696954294"/>
      <point x="146.50007508327462" y="49.59306448979593" type="curve" smooth="yes"/>
      <point x="146.50007508327462" y="13.943182010048922"/>
      <point x="175.44325709332355" y="-15.0"/>
      <point x="211.09313957307057" y="-15.0" type="curve" smooth="yes"/>
      <point x="246.74302205281754" y="-15.0"/>
      <point x="275.68620406286647" y="13.9431820100489"/>
    </contour>
  </outline>
</glyph>
<glyph name="at" format="2">
  <advance width="1118.3519999999999"/>
  <unicode hex="0040"/>
  <outline>
    <contour>
      <point x="98.02539999999995" y="425.00000000000006" type="curve"/>
      <point x="98.02539999999995" y="679.5159426220121"/>
      <point x="304.660057377988" y="886.1505999999999"/>
      <point x="559.176" y="886.1505999999999" type="curve" smooth="yes"/>
      <point x="813.6919426220122" y="886.1505999999999"/>
      <point x="1020.3265999999999" y="679.5159426220121"/>
      <point x="1020.3265999999999" y="425.0" type="curve"/>
      <point x="1020.3266000000003" y="221.30886796563223"/>
      <point x="948.2666138641264" y="210.86599999999999"/>
      <point x="923.0067142857143" y="210.86599999999999" type="curve"/>
      <point x="878.4285702699243" y="210.86599999999999"/>
      <point x="819.6802843038847" y="243.38899039270188"/>
      <point x="819.6802861118324" y="470.77714285714285" type="curve"/>
      <point x="819.6802877197266" y="673.0042877197266" type="line"/>
      <point x="766.2367833862305" y="673.0042877197266" type="line"/>
      <point x="766.2367833862305" y="579.0216979980469" type="line"/>
      <point x="718.1758782488474" y="645.0556415363351"/>
      <point x="640.2905320371044" y="688.0042857142859"/>
      <point x="552.4531428571428" y="688.0042857142859" type="curve"/>
      <point x="404.9664689625999" y="688.0042857142857"/>
      <point x="285.22599999999994" y="568.2638167516857"/>
      <point x="285.22599999999994" y="420.77714285714285" type="curve" smooth="yes"/>
      <point x="285.22599999999994" y="273.2904689626"/>
      <point x="404.96646896259983" y="153.55"/>
      <point x="552.4531428571428" y="153.55" type="curve"/>
      <point x="650.041954994513" y="153.55"/>
      <point x="735.4377698316094" y="206.1696363926393"/>
      <point x="781.791707397461" y="284.58313751220703" type="curve"/>
      <point x="802.9571616911509" y="208.97051809909053"/>
      <point x="845.8594600442689" y="158.55"/>
      <point x="916.5067142857143" y="158.54999999999998" type="curve"/>
      <point x="983.2070668648485" y="158.55"/>
      <point x="1074.176" y="200.0545867046749"/>
      <point x="1074.176" y="425.0" type="curve"/>
      <point x="1074.176" y="709.2362353000002"/>
      <point x="843.4122353000002" y="940.0"/>
      <point x="559.176" y="940.0" type="curve" smooth="yes"/>
      <point x="274.93976469999996" y="940.0"/>
      <point x="44.17599999999996" y="709.2362353000001"/>
      <point x="44.17599999999996" y="425.00000000000006" type="curve"/>
      <point x="44.17599999999997" y="140.76376469999985"/>
      <point x="274.93976469999967" y="-89.99999999999997"/>
      <point x="559.1759999999999" y="-90.0" type="curve"/>
      <point x="650.360595891724" y="-90.0"/>
      <point x="739.0519319165489" y="-65.81771036252256"/>
      <point x="816.676" y="-21.002723693847656" type="curve"/>
      <point x="816.676" y="42.44446563720703" type="line"/>
      <point x="741.1202151667212" y="-8.418736629475546"/>
      <point x="651.5777228723301" y="-36.15060000000001"/>
      <point x="559.176" y="-36.150600000000026" type="curve"/>
      <point x="304.66005737798775" y="-36.15059999999988"/>
      <point x="98.02539999999992" y="170.48405737798797"/>
    </contour>
    <contour>
      <point x="765.5602857142857" y="420.77714285714285" type="curve" smooth="yes"/>
      <point x="765.5602857142857" y="301.64314425616396"/>
      <point x="670.5128245966316" y="204.96400000000006"/>
      <point x="552.4531428571429" y="204.96400000000006" type="curve" smooth="yes"/>
      <point x="434.39346111765406" y="204.96400000000006"/>
      <point x="339.34599999999995" y="301.64314425616396"/>
      <point x="339.34599999999995" y="420.77714285714285" type="curve" smooth="yes"/>
      <point x="339.34599999999995" y="539.9111414581217"/>
      <point x="434.39346111765406" y="636.5902857142856"/>
      <point x="552.4531428571429" y="636.5902857142856" type="curve" smooth="yes"/>
      <point x="670.5128245966316" y="636.5902857142856"/>
      <point x="765.5602857142857" y="539.9111414581217"/>
    </contour>
  </outline>
</glyph>
<glyph name="A" format="2">
  <advance width="825.875811340332"/>
  <unicode hex="0041"/>
  <anchor x="412.9379047619047" y="981.140527164532" name="top" identifier="top"/>
  <anchor x="412.9379047619047" y="-152.99728169195402" name="below" identifier="below"/>
  <anchor x="817.6998095238096" y="0" name="ogonek" identifier="ogonek"/>
  <outline>
    <contour>
      <point x="8.17599999999996" y="0" type="line"/>
      <point x="64.48720300292963" y="0" type="line"/>
      <point x="178.34523522949212" y="245.0202407836914" type="line"/>
      <point x="644.563191772461" y="245.0202407836914" type="line"/>
      <point x="758.4212239990235" y="0" type="line"/>
      <point x="817.6998113403321" y="0" type="line"/>
      <point x="681.8154577026368" y="292.07142639160156" type="line"/>
      <point x="681.8154577026368" y="295.7500457763672" type="line"/>
      <point x="680.1040014038086" y="295.7500457763672" type="line"/>
      <point x="412.93790185546874" y="870" type="line"/>
      <point x="145.77180230712884" y="295.7500457763672" type="line"/>
      <point x="144.06035363769524" y="295.7500457763672" type="line"/>
      <point x="144.06035363769524" y="292.0714340209961" type="line"/>
    </contour>
    <contour>
      <point x="411.45421350097655" y="746.6661911010742" type="line"/>
      <point x="620.9896520385743" y="295.7500457763672" type="line"/>
      <point x="201.91877496337884" y="295.7500457763672" type="line"/>
    </contour>
  </outline>
</glyph>
<glyph name="B" format="2">
  <advance width="673.0724761904762"/>
  <unicode hex="0042"/>
  <anchor x="338.1982003284072" y="981.140527164532" name="top" identifier="top"/>
  <anchor x="356.1982003284072" y="-152.99728169195402" name="below" identifier="below"/>
  <outline>
    <contour>
      <point x="109.17599999999996" y="0" type="line"/>
      <point x="343.69820153808587" y="0.0" type="line"/>
      <point x="596.7906596817782" y="0.0"/>
      <point x="623.8964761904763" y="161.04658178467884"/>
      <point x="623.8964761904763" y="230.19827586206895" type="curve"/>
      <point x="623.8964761904763" y="327.35271559957266"/>
      <point x="563.371253130277" y="410.4822792268585"/>
      <point x="478.0022100219726" y="443.89866638183594" type="curve"/>
      <point x="539.7918096290933" y="482.7264344869297"/>
      <point x="580.8964761904763" y="551.5017023485171"/>
      <point x="580.8964761904763" y="629.8017241379312" type="curve"/>
      <point x="580.8964761904763" y="700.9643600902077"/>
      <point x="552.1216120029561" y="850.0"/>
      <point x="310.6982003284072" y="850.0" type="curve"/>
      <point x="109.17599999999996" y="850" type="line"/>
    </contour>
    <contour>
      <point x="163.29600274658196" y="460.1473922729492" type="line"/>
      <point x="163.29600274658196" y="798.5859985351562" type="line"/>
      <point x="314.8963934571637" y="798.5859985351562" type="line"/>
      <point x="497.4433134919105" y="798.5859985351562"/>
      <point x="527.2224606980625" y="695.9451923399229"/>
      <point x="527.2224606980625" y="629.366696355862" type="curve" smooth="yes"/>
      <point x="527.2224606980625" y="562.7882003718012"/>
      <point x="497.44331385807305" y="460.1473930257452"/>
      <point x="314.89639365309944" y="460.14739261448767" type="curve"/>
    </contour>
    <contour>
      <point x="163.29600274658196" y="51.41400146484375" type="line"/>
      <point x="163.29600274658196" y="409.8526077270508" type="line"/>
      <point x="345.34712747632864" y="409.8526077270508" type="line"/>
      <point x="538.2346740214922" y="409.8526077270508"/>
      <point x="570.2224606980625" y="301.6454867401759"/>
      <point x="570.2224606980625" y="230.63330364413795" type="curve" smooth="yes"/>
      <point x="570.2224606980625" y="159.62112054810004"/>
      <point x="538.2346743876548" y="51.41399905342931"/>
      <point x="345.3471273896843" y="51.4140002939837" type="curve"/>
    </contour>
  </outline>
</glyph>
<glyph name="D" format="2">
  <advance width="835.712238095238"/>
  <unicode hex="0044"/>
  <anchor x="401.61610204081626" y="981.140527164532" name="top" identifier="top"/>
  <anchor x="401.61610204081626" y="-152.99728169195402" name="below" identifier="below"/>
  <anchor x="401.61610204081626" y="0" name="bottom" identifier="bottom"/>
  <anchor x="136.23599999999993" y="425.0" name="stroke" identifier="stroke"/>
  <outline>
    <contour>
      <point x="109.17599999999996" y="0" type="line"/>
      <point x="316.53623712158196" y="0.0" type="line"/>
      <point x="685.9247438896816" y="0.0"/>
      <point x="791.5362380952381" y="256.7962183282797"/>
      <point x="791.5362380952381" y="425.0" type="curve" smooth="yes"/>
      <point x="791.5362380952381" y="593.2037816717203"/>
      <point x="685.9247448633377" y="850.0"/>
      <point x="316.536238095238" y="850.0" type="curve"/>
      <point x="109.17599999999996" y="850" type="line"/>
    </contour>
    <contour>
      <point x="163.29600274658196" y="51.41400146484375" type="line"/>
      <point x="163.29600274658196" y="798.5859985351562" type="line"/>
      <point x="315.1832402954101" y="798.5859985351562" type="line"/>
      <point x="650.9132434118492" y="798.5859985351562"/>
      <point x="737.2361864538587" y="570.4162031099484"/>
      <point x="737.2361864538587" y="425.0" type="curve" smooth="yes"/>
      <point x="737.2361864538587" y="279.5837968900516"/>
      <point x="650.9132412116769" y="51.41399792681387"/>
      <point x="315.183238095238" y="51.4140003627876" type="curve"/>
    </contour>
  </outline>
</glyph>
<glyph name="E" format="2">
  <advance width="657.4772365112304"/>
  <unicode hex="0045"/>
  <anchor x="342.929869047619" y="981.140527164532" name="top" identifier="top"/>
  <anchor x="341.238619047619" y="-152.99728169195402" name="below" identifier="below"/>
  <anchor x="342.929869047619" y="0" name="bottom" identifier="bottom"/>
  <anchor x="573.3012380952381" y="0" name="ogonek" identifier="ogonek"/>
  <outline>
    <contour>
      <point x="109.17599999999996" y="0" type="line"/>
      <point x="573.3012365112305" y="0" type="line"/>
      <point x="573.3012365112305" y="51.41400146484375" type="line"/>
      <point x="163.29600274658196" y="51.41400146484375" type="line"/>
      <point x="163.29600274658196" y="404.8526077270508" type="line"/>
      <point x="543.3012365112305" y="404.8526077270508" type="line"/>
      <point x="543.3012365112305" y="455.1473922729492" type="line"/>
      <point x="163.29600274658196" y="455.1473922729492" type="line"/>
      <point x="163.29600274658196" y="798.5859985351562" type="line"/>
      <point x="573.3012365112305" y="798.5859985351562" type="line"/>
      <point x="573.3012365112305" y="850" type="line"/>
      <point x="109.17599999999996" y="850" type="line"/>
    </contour>
  </outline>
</glyph>
<glyph name="F" format="2">
  <advance width="626.5248591918945"/>
  <unicode hex="0046"/>
  <anchor x="344.95367857142855" y="981.140527164532" name="top" identifier="top"/>
  <anchor x="163.29599999999994" y="0" name="lefthook" identifier="lefthook"/>
  <outline>
    <contour>
      <point x="109.17599999999996" y="0" type="line"/>
      <point x="163.29600274658196" y="0" type="line"/>
      <point x="163.29600274658196" y="404.61556243896484" type="line"/>
      <point x="532.3488591918946" y="404.61556243896484" type="line"/>
      <point x="532.3488591918946" y="455.38443756103516" type="line"/>
      <point x="163.29600274658196" y="455.38443756103516" type="line"/>
      <point x="163.29600274658196" y="798.5859985351562" type="line"/>
      <point x="577.3488591918946" y="798.5859985351562" type="line"/>
      <point x="577.3488591918946" y="850" type="line"/>
      <point x="109.17599999999996" y="850" type="line"/>
    </contour>
  </outline>
</glyph>
<glyph name="H" format="2">
  <advance width="787.7786662597656"/>
  <unicode hex="0048"/>
  <anchor x="393.8893333333333" y="981.140527164532" name="top" identifier="top"/>
  <anchor x="393.8893333333333" y="-152.99728169195402" name="below" identifier="below"/>
  <anchor x="393.8893333333333" y="650.3534999999999" name="stroke" identifier="stroke"/>
  <anchor x="138.52999999999997" y="0" name="bottom" identifier="bottom"/>
  <outline>
    <contour>
      <point x="109.17599999999996" y="0" type="line"/>
      <point x="163.29600274658196" y="0" type="line"/>
      <point x="163.29600274658196" y="404.2929992675781" type="line"/>
      <point x="624.4826635131836" y="404.2929992675781" type="line"/>
      <point x="624.4826635131836" y="0" type="line"/>
      <point x="678.6026662597657" y="0" type="line"/>
      <point x="678.6026662597657" y="850" type="line"/>
      <point x="624.4826635131836" y="850" type="line"/>
      <point x="624.4826635131836" y="455.7070007324219" type="line"/>
      <point x="163.29600274658196" y="455.7070007324219" type="line"/>
      <point x="163.29600274658196" y="850" type="line"/>
      <point x="109.17599999999996" y="850" type="line"/>
    </contour>
  </outline>
</glyph>
<glyph name="I" format="2">
  <advance width="273.22055172413786"/>
  <unicode hex="0049"/>
  <anchor x="136.61027586206893" y="981.140527164532" name="top" identifier="top"/>
  <anchor x="136.61027586206893" y="-152.99728169195402" name="below" identifier="below"/>
  <anchor x="164.04455172413788" y="0" name="ogonek" identifier="ogonek"/>
  <anchor x="136.61027586206893" y="425.0" name="stroke" identifier="stroke"/>
  <outline>
    <contour>
      <point x="109.17599999999996" y="0" type="line"/>
      <point x="164.04455172413788" y="0" type="line"/>
      <point x="164.04455172413788" y="850" type="line"/>
      <point x="109.17599999999996" y="850" type="line"/>
    </contour>
  </outline>
</glyph>
<glyph name="K" format="2">
  <advance width="700.205271484375"/>
  <unicode hex="004B"/>
  <anchor x="345.6390612244897" y="981.140527164532" name="top" identifier="top"/>
  <anchor x="352.5938571428571" y="0" name="bottom" identifier="bottom"/>
  <anchor x="352.5938571428571" y="-152.99728169195402" name="below" identifier="below"/>
  <outline>
    <contour>
      <point x="109.17599999999996" y="0" type="line"/>
      <point x="163.29600274658196" y="0" type="line"/>
      <point x="163.29600274658196" y="359.22623443603516" type="line"/>
      <point x="206.30225122070306" y="401.2240982055664" type="line"/>
      <point x="618.8380178222657" y="0" type="line"/>
      <point x="696.029271484375" y="0" type="line"/>
      <point x="244.457509399414" y="438.4847183227539" type="line"/>
      <point x="665.8534444580079" y="850" type="line"/>
      <point x="593.0370229492188" y="850" type="line"/>
      <point x="163.29600274658196" y="429.80189514160156" type="line"/>
      <point x="163.29600274658196" y="850" type="line"/>
      <point x="109.17599999999996" y="850" type="line"/>
    </contour>
  </outline>
</glyph>
<glyph name="L" format="2">
  <advance width="586.048662902832"/>
  <unicode hex="004C"/>
  <anchor x="136.23599999999993" y="981.140527164532" name="top" identifier="top"/>
  <anchor x="323.0243333333333" y="0" name="bottom" identifier="bottom"/>
  <anchor x="323.0243333333333" y="-152.99728169195402" name="below" identifier="below"/>
  <anchor x="258.00860295216194" y="850" name="right" identifier="right"/>
  <anchor x="136.23599999999993" y="425.0" name="stroke" identifier="stroke"/>
  <anchor x="373.9399483586206" y="452.06" name="dotmiddle" identifier="dotmiddle"/>
  <outline>
    <contour>
      <point x="109.17599999999996" y="0" type="line"/>
      <point x="536.8726629028321" y="0" type="line"/>
      <point x="536.8726629028321" y="51.41400146484375" type="line"/>
      <point x="163.29600274658196" y="51.41400146484375" type="line"/>
      <point x="163.29600274658196" y="850" type="line"/>
      <point x="109.17599999999996" y="850" type="line"/>
    </contour>
  </outline>
</glyph>
<glyph name="M" format="2">
  <advance width="1007.6377131958008"/>
  <unicode hex="004D"/>
  <anchor x="503.81885714285704" y="981.140527164532" name="top" identifier="top"/>
  <anchor x="503.81885714285704" y="-152.99728169195402" name="below" identifier="below"/>
  <outline>
    <contour>
      <point x="109.17599999999996" y="0" type="line"/>
      <point x="160.59000146484368" y="0" type="line"/>
      <point x="160.59000146484368" y="717.3115844726562" type="line"/>
      <point x="502.0988439331054" y="282.22430419921875" type="line"/>
      <point x="844.3417180786133" y="718.2467422485352" type="line"/>
      <point x="844.3417180786133" y="0" type="line"/>
      <point x="898.4617131958008" y="0" type="line"/>
      <point x="898.4617131958008" y="870" type="line"/>
      <point x="503.8188604125976" y="367.2192153930664" type="line"/>
      <point x="109.17599999999996" y="870" type="line"/>
    </contour>
  </outline>
</glyph>
<glyph name="N" format="2">
  <advance width="926.6853358764648"/>
  <unicode hex="004E"/>
  <anchor x="463.34266666666656" y="981.140527164532" name="top" identifier="top"/>
  <anchor x="463.34266666666656" y="-152.99728169195402" name="below" identifier="below"/>
  <anchor x="463.34266666666656" y="0" name="bottom" identifier="bottom"/>
  <anchor x="817.5093333333333" y="0" name="right" identifier="right"/>
  <anchor x="160.58999999999992" y="0" name="lefthook" identifier="lefthook"/>
  <outline>
    <contour>
      <point x="160.59000146484368" y="729.5979385375977" type="line"/>
      <point x="817.5093358764649" y="-20" type="line"/>
      <point x="817.5093358764649" y="850" type="line"/>
      <point x="766.0953344116211" y="850" type="line"/>
      <point x="766.0953344116211" y="120.40206146240234" type="line"/>
      <point x="109.17599999999996" y="870" type="line"/>
      <point x="109.17599999999996" y="0" type="line"/>
      <point x="160.59000146484368" y="0" type="line"/>
    </contour>
  </outline>
</glyph>
<glyph name="P" format="2">
  <advance width="660.6024761904762"/>
  <unicode hex="0050"/>
  <anchor x="345.8012380952381" y="981.140527164532" name="top" identifier="top"/>
  <outline>
    <contour>
      <point x="109.17599999999996" y="0" type="line"/>
      <point x="163.29600274658196" y="0" type="line"/>
      <point x="163.29600274658196" y="337.57352447509766" type="line"/>
      <point x="306.21323907470696" y="337.57352447509766" type="line"/>
      <point x="579.1328205464805" y="337.57352447509766"/>
      <point x="612.4264761904763" y="516.7398125203382"/>
      <point x="612.4264761904763" y="593.7867619047619" type="curve" smooth="yes"/>
      <point x="612.4264761904763" y="670.8337112891855"/>
      <point x="579.1328195670116" y="850.0"/>
      <point x="306.21323809523807" y="850.0" type="curve"/>
      <point x="109.17599999999996" y="850" type="line"/>
    </contour>
    <contour>
      <point x="163.29600274658196" y="388.9875259399414" type="line"/>
      <point x="163.29600274658196" y="798.5859985351562" type="line"/>
      <point x="304.86023461914056" y="798.5859985351562" type="line"/>
      <point x="521.3984148047599" y="798.5859985351562"/>
      <point x="558.2164503697867" y="674.6767189071688"/>
      <point x="558.2164503697867" y="593.7867619047619" type="curve" smooth="yes"/>
      <point x="558.2164503697867" y="512.8968049023549"/>
      <point x="521.3984182808572" y="388.987521957425"/>
      <point x="304.86023809523806" y="388.98752436558203" type="curve"/>
    </contour>
  </outline>
</glyph>
<glyph name="Q" format="2">
  <advance width="961.4812419433594"/>
  <unicode hex="0051"/>
  <outline>
    <contour>
      <point x="934.3560516413793" y="425.0" type="curve" smooth="yes"/>
      <point x="934.3560516413794" y="670.6518705026265"/>
      <point x="734.9178963233162" y="865.0"/>
      <point x="489.26602582068966" y="865.0" type="curve" smooth="yes"/>
      <point x="243.61415531806313" y="865.0"/>
      <point x="44.17599999999996" y="670.6518705026265"/>
      <point x="44.17599999999996" y="425.0" type="curve" smooth="yes"/>
      <point x="44.17599999999996" y="179.34812949737352"/>
      <point x="243.61415531806313" y="-15.0"/>
      <point x="489.26602582068966" y="-15.0" type="curve" smooth="yes"/>
      <point x="601.947275775856" y="-15.0"/>
      <point x="704.9047699103479" y="25.892487173775365"/>
      <point x="783.3499883422852" y="93.87681579589844" type="curve"/>
      <point x="877.2268041381836" y="0" type="line"/>
      <point x="951.3052419433594" y="0" type="line"/>
      <point x="820.8333028564454" y="130.47193908691406" type="line"/>
      <point x="891.4118918343366" y="208.0663562457453"/>
      <point x="934.3560516413794" y="311.0096712269252"/>
    </contour>
    <contour>
      <point x="874.7156428571428" y="425.0" type="curve" smooth="yes"/>
      <point x="874.7156428571428" y="210.50710628857564"/>
      <point x="702.862474174463" y="36.41399999999999"/>
      <point x="489.26602582068966" y="36.41399999999999" type="curve" smooth="yes"/>
      <point x="275.66957746691634" y="36.41399999999999"/>
      <point x="103.81640878423646" y="210.50710628857564"/>
      <point x="103.81640878423646" y="425.0" type="curve" smooth="yes"/>
      <point x="103.81640878423646" y="639.4928937114244"/>
      <point x="275.66957746691634" y="813.586"/>
      <point x="489.26602582068966" y="813.586" type="curve" smooth="yes"/>
      <point x="702.862474174463" y="813.586"/>
      <point x="874.7156428571428" y="639.4928937114244"/>
    </contour>
  </outline>
</glyph>
<glyph name="T" format="2">
  <advance width="653.548662902832"/>
  <unicode hex="0054"/>
  <anchor x="326.7743333333333" y="981.140527164532" name="top" identifier="top"/>
  <anchor x="326.7743333333333" y="-152.99728169195402" name="below" identifier="below"/>
  <anchor x="326.7743333333333" y="0" name="bottom" identifier="bottom"/>
  <anchor x="326.7743333333333" y="411.47" name="stroke" identifier="stroke"/>
  <outline>
    <contour>
      <point x="353.83433282470696" y="0" type="line"/>
      <point x="353.83433282470696" y="798.5859985351562" type="line"/>
      <point x="604.3726629028321" y="798.5859985351562" type="line"/>
      <point x="604.3726629028321" y="850" type="line"/>
      <point x="49.17599999999996" y="850" type="line"/>
      <point x="49.17599999999996" y="798.5859985351562" type="line"/>
      <point x="299.71433007812493" y="798.5859985351562" type="line"/>
      <point x="299.71433007812493" y="0" type="line"/>
    </contour>
  </outline>
</glyph>
<glyph name="U" format="2">
  <advance width="781.108190207545"/>
  <unicode hex="0055"/>
  <anchor x="390.55409523809516" y="981.140527164532" name="top" identifier="top"/>
  <anchor x="390.55409523809516" y="-152.99728169195402" name="below" identifier="below"/>
  <anchor x="691.9321904761905" y="730.5866666666667" name="horn" identifier="horn"/>
  <outline>
    <contour>
      <point x="89.17599999999996" y="334.7146453857422" type="line"/>
      <point x="89.17599999999997" y="38.15356094139236"/>
      <point x="286.66709399344904" y="-14.999999999999988"/>
      <point x="390.5540952380951" y="-15.0" type="curve" smooth="yes"/>
      <point x="494.4410964827411" y="-15.0"/>
      <point x="691.9321918009402" y="38.153562517883245"/>
      <point x="691.9321902075451" y="334.7146469622331" type="curve"/>
      <point x="691.9321874389649" y="850" type="line"/>
      <point x="637.8121923217774" y="850" type="line"/>
      <point x="637.8121923217774" y="335.0250930786133" type="line"/>
      <point x="637.8121923217774" y="65.93753377800499"/>
      <point x="462.75984621541426" y="36.41399999999997"/>
      <point x="390.5540952380951" y="36.41399999999999" type="curve" smooth="yes"/>
      <point x="318.34834426077595" y="36.413999999999994"/>
      <point x="143.29599893492264" y="65.93753593748698"/>
      <point x="143.2960002430711" y="335.0250952380953" type="curve"/>
      <point x="143.29600274658196" y="850" type="line"/>
      <point x="89.17599999999996" y="850" type="line"/>
    </contour>
  </outline>
</glyph>
<glyph name="V" format="2">
  <advance width="807.7567622680664"/>
  <unicode hex="0056"/>
  <anchor x="403.8783809523809" y="981.140527164532" name="top" identifier="top"/>
  <anchor x="403.8783809523809" y="-152.99728169195402" name="below" identifier="below"/>
  <outline>
    <contour>
      <point x="803.5807622680665" y="850" type="line"/>
      <point x="747.1815923461915" y="850" type="line"/>
      <point x="405.3662084350585" y="104.21981048583984" type="line"/>
      <point x="63.55083215332026" y="850" type="line"/>
      <point x="4.175999999999959" y="850" type="line"/>
      <point x="403.87837731933587" y="-20" type="line"/>
    </contour>
  </outline>
</glyph>
<glyph name="W" format="2">
  <advance width="1198.1615245361327"/>
  <unicode hex="0057"/>
  <anchor x="599.080761904762" y="981.140527164532" name="top" identifier="top"/>
  <anchor x="599.080761904762" y="-152.99728169195402" name="below" identifier="below"/>
  <outline>
    <contour>
      <point x="1185.9855245361327" y="850" type="line"/>
      <point x="1131.6263631591796" y="850" type="line"/>
      <point x="884.4552205810547" y="130.25723266601562" type="line"/>
      <point x="600.5142263183594" y="849.6172180175781" type="line"/>
      <point x="316.573232055664" y="130.25723266601562" type="line"/>
      <point x="69.40208184814448" y="850" type="line"/>
      <point x="12.17599999999996" y="850" type="line"/>
      <point x="311.33164727783196" y="-20" type="line"/>
      <point x="599.0807622680665" y="708.1942977905273" type="line"/>
      <point x="886.8298772583008" y="-20" type="line"/>
    </contour>
  </outline>
</glyph>
<glyph name="X" format="2">
  <advance width="736.6458079833983"/>
  <unicode hex="0058"/>
  <anchor x="368.3229032214937" y="981.140527164532" name="top" identifier="top"/>
  <outline>
    <contour>
      <point x="701.4698079833984" y="0" type="line"/>
      <point x="405.58664453124993" y="430.75445556640625" type="line"/>
      <point x="693.5800527343749" y="850" type="line"/>
      <point x="631.4066518554687" y="850" type="line"/>
      <point x="372.31355035400384" y="471.49127197265625" type="line"/>
      <point x="113.22044885253902" y="850" type="line"/>
      <point x="47.76883447265621" y="850" type="line"/>
      <point x="333.410634399414" y="434.17779541015625" type="line"/>
      <point x="35.17599999999996" y="0" type="line"/>
      <point x="97.35285699462887" y="0" type="line"/>
      <point x="366.68379724121087" y="393.44384002685547" type="line"/>
      <point x="636.0147374877929" y="0" type="line"/>
    </contour>
  </outline>
</glyph>
<glyph name="Z" format="2">
  <advance width="698.6915233154297"/>
  <unicode hex="005A"/>
  <anchor x="350.84576190476184" y="981.140527164532" name="top" identifier="top"/>
  <anchor x="350.84576190476184" y="-152.99728169195402" name="below" identifier="below"/>
  <anchor x="350.84576190476184" y="425.0" name="stroke" identifier="stroke"/>
  <outline>
    <contour>
      <point x="160.617909790039" y="51.41400146484375" type="line"/>
      <point x="634.5155233154297" y="850" type="line"/>
      <point x="82.17599999999996" y="850" type="line"/>
      <point x="82.17599999999996" y="798.5859985351562" type="line"/>
      <point x="541.0736135253907" y="798.5859985351562" type="line"/>
      <point x="67.17599999999996" y="0" type="line"/>
      <point x="629.5155233154297" y="0" type="line"/>
      <point x="629.5155233154297" y="51.41400146484375" type="line"/>
    </contour>
  </outline>
</glyph>
<glyph name="bracketleft" format="2">
  <advance width="360.4720027465819"/>
  <unicode hex="005B"/>
  <outline>
    <contour>
      <point x="163.29600274658196" y="-37.115997314453125" type="line"/>
      <point x="163.29600274658196" y="887.1159973144531" type="line"/>
      <point x="313.29600274658196" y="887.1159973144531" type="line"/>
      <point x="313.29600274658196" y="938.5299987792969" type="line"/>
      <point x="109.17599999999996" y="938.5299987792969" type="line"/>
      <point x="109.17599999999996" y="-88.52999877929688" type="line"/>
      <point x="313.29600274658196" y="-88.52999877929688" type="line"/>
      <point x="313.29600274658196" y="-37.115997314453125" type="line"/>
    </contour>
  </outline>
</glyph>
<glyph name="backslash" format="2">
  <advance width="369.49293780517564"/>
  <unicode hex="005C"/>
  <outline>
    <contour>
      <point x="74.8385823974609" y="938.5299987792969" type="line"/>
      <point x="20.17599999999996" y="938.5299987792969" type="line"/>
      <point x="271.6543554077148" y="0" type="line"/>
      <point x="326.3169378051757" y="0" type="line"/>
    </contour>
  </outline>
</glyph>
<glyph name="bracketright" format="2">
  <advance width="360.47200274658195"/>
  <unicode hex="005D"/>
  <outline>
    <contour>
      <point x="197.17599999999996" y="-37.115997314453125" type="line"/>
      <point x="47.17599999999996" y="-37.115997314453125" type="line"/>
      <point x="47.17599999999996" y="-88.52999877929688" type="line"/>
      <point x="251.296002746582" y="-88.52999877929688" type="line"/>
      <point x="251.296002746582" y="938.5299987792969" type="line"/>
      <point x="47.17599999999996" y="938.5299987792969" type="line"/>
      <point x="47.17599999999996" y="887.1159973144531" type="line"/>
      <point x="197.17599999999996" y="887.1159973144531" type="line"/>
    </contour>
  </outline>
</glyph>
<glyph name="power" format="2">
  <advance width="467.78056597900377"/>
  <unicode hex="005E"/>
  <outline>
    <contour>
      <point x="48.17599999999996" y="545" type="line"/>
      <point x="107.17381799316402" y="545" type="line"/>
      <point x="233.89028680419918" y="767.179443359375" type="line"/>
      <point x="360.6067479858398" y="545" type="line"/>
      <point x="419.60456597900384" y="545" type="line"/>
      <point x="233.89028680419918" y="870" type="line"/>
    </contour>
  </outline>
</glyph>
<glyph name="underscore" format="2">
  <advance width="722.8062857142857"/>
  <unicode hex="005F"/>
  <outline>
    <contour>
      <point x="109.17599999999996" y="-161.976" type="line"/>
      <point x="613.6302857142857" y="-161.976" type="line"/>
      <point x="613.6302857142857" y="-109.176" type="line"/>
      <point x="109.17599999999996" y="-109.176" type="line"/>
    </contour>
  </outline>
</glyph>
<glyph name="grave" format="2">
  <advance width="398.0217158813475"/>
  <unicode hex="0060"/>
  <anchor x="249.37218635342686" y="981.140527164532" name="center" identifier="center"/>
  <anchor x="249.37218635342686" y="900.9719557359606" name="bottom" identifier="bottom"/>
  <outline>
    <contour>
      <point x="109.17599999999996" y="1085.9719543457031" type="line"/>
      <point x="224.62552392578118" y="900.9719543457031" type="line"/>
      <point x="288.8457158813476" y="900.9719543457031" type="line"/>
      <point x="173.39619195556634" y="1085.9719543457031" type="line"/>
    </contour>
  </outline>
</glyph>
<glyph name="d" format="2">
  <advance width="785.3283418464607"/>
  <unicode hex="0064"/>
  <anchor x="358.16719743842356" y="741.5272816919539" name="top" identifier="top"/>
  <anchor x="376.7386260098521" y="-152.99728169195402" name="below" identifier="below"/>
  <anchor x="376.7386260098521" y="0" name="bottom" identifier="bottom"/>
  <anchor x="772.5283905383689" y="850" name="right" identifier="right"/>
  <anchor x="650.9358392275861" y="733.53" name="stroke" identifier="stroke"/>
  <outline>
    <contour>
      <point x="622.3924388923592" y="0" type="line"/>
      <point x="676.1523418464608" y="0" type="line"/>
      <point x="676.1523418464608" y="863.5299987792969" type="line"/>
      <point x="622.3924388923592" y="863.5299987792969" type="line"/>
      <point x="622.3924388923592" y="467.37005615234375" type="line"/>
      <point x="567.3075780434817" y="549.4630174442781"/>
      <point x="473.64443286260536" y="603.53"/>
      <point x="367.45291172413783" y="603.53" type="curve"/>
      <point x="196.76491306383764" y="603.53"/>
      <point x="59.17599999999997" y="464.95299866030007"/>
      <point x="59.17599999999996" y="294.265" type="curve" smooth="yes"/>
      <point x="59.17599999999997" y="123.57700133969988"/>
      <point x="196.7649130638378" y="-14.999999999999979"/>
      <point x="367.45291172413783" y="-15.0" type="curve"/>
      <point x="473.6444324228648" y="-15.0"/>
      <point x="567.3075801899217" y="39.066985754256734"/>
      <point x="622.3924388923592" y="121.15345764160156" type="curve"/>
    </contour>
    <contour>
      <point x="624.0558908689654" y="294.265" type="curve" smooth="yes"/>
      <point x="624.0558908689654" y="151.82377769649352"/>
      <point x="509.7582361788952" y="36.07190188137929"/>
      <point x="368.2507875862068" y="36.07190188137929" type="curve" smooth="yes"/>
      <point x="226.74333899351848" y="36.07190188137929"/>
      <point x="112.44568430344818" y="151.82377769649352"/>
      <point x="112.44568430344818" y="294.265" type="curve" smooth="yes"/>
      <point x="112.44568430344818" y="436.7062223035065"/>
      <point x="226.74333899351848" y="552.4580981186207"/>
      <point x="368.2507875862068" y="552.4580981186207" type="curve" smooth="yes"/>
      <point x="509.7582361788952" y="552.4580981186207"/>
      <point x="624.0558908689654" y="436.7062223035065"/>
    </contour>
  </outline>
</glyph>
<glyph name="f" format="2">
  <advance width="491.77794909667955"/>
  <unicode hex="0066"/>
  <anchor x="306.5532634772382" y="981.140527164532" name="top" identifier="top"/>
  <outline>
    <contour>
      <point x="151.39170587158196" y="0" type="line"/>
      <point x="205.151601196289" y="0" type="line"/>
      <point x="205.151601196289" y="537.5430526733398" type="line"/>
      <point x="417.6019490966796" y="537.5430526733398" type="line"/>
      <point x="417.6019490966796" y="588.5299987792969" type="line"/>
      <point x="205.151601196289" y="588.5299987792969" type="line"/>
      <point x="205.1540338028314" y="650.7221760455384" type="line"/>
      <point x="205.15697597341722" y="725.9419008237246"/>
      <point x="210.8612578193186" y="822.6303838329063"/>
      <point x="316.0298219954648" y="822.6303838329063" type="curve"/>
      <point x="342.1871346577564" y="822.6303838329063"/>
      <point x="390.93421851787275" y="816.8595203791227"/>
      <point x="432.6019490966796" y="779.9601211547852" type="curve"/>
      <point x="432.6019490966796" y="837.7652130126953" type="line"/>
      <point x="399.2745285042255" y="860.4382687134513"/>
      <point x="357.97830421643664" y="873.53"/>
      <point x="313.27325056689335" y="873.53" type="curve"/>
      <point x="151.87952646098682" y="873.53"/>
      <point x="151.39170269658598" y="702.3811541051905"/>
      <point x="151.39170434220847" y="643.3713095238095" type="curve"/>
      <point x="151.39170587158196" y="588.5299987792969" type="line"/>
      <point x="49.17599999999996" y="588.5299987792969" type="line"/>
      <point x="49.17599999999996" y="537.5430526733398" type="line"/>
      <point x="151.39170587158196" y="537.5430526733398" type="line"/>
    </contour>
  </outline>
</glyph>
<glyph name="h" format="2">
  <advance width="693.2407023925781"/>
  <unicode hex="0068"/>
  <anchor x="358.1203511904761" y="981.140527164532" name="top" identifier="top"/>
  <anchor x="358.1203511904761" y="-152.99728169195402" name="below" identifier="below"/>
  <anchor x="136.05594835862064" y="981.140527164532" name="stem" identifier="stem"/>
  <anchor x="136.05594835862064" y="733.53" name="stroke" identifier="stroke"/>
  <anchor x="138.34994835862062" y="0" name="bottom" identifier="bottom"/>
  <outline>
    <contour>
      <point x="109.17599999999996" y="0" type="line"/>
      <point x="162.93589532470696" y="0" type="line"/>
      <point x="162.93589532470696" y="306.435302734375" type="line"/>
      <point x="162.93589532470696" y="513.1168654633939"/>
      <point x="274.1562525341976" y="553.9426927794732"/>
      <point x="357.9414975754664" y="553.9426927794732" type="curve" smooth="yes"/>
      <point x="441.72674261673524" y="553.9426927794732"/>
      <point x="552.9470998218005" y="513.1168628378531"/>
      <point x="552.9470979907203" y="306.4353001088342" type="curve"/>
      <point x="552.947095275879" y="0" type="line"/>
      <point x="607.0647023925782" y="0" type="line"/>
      <point x="607.0647023925782" y="307.08081817626953" type="line"/>
      <point x="607.0647023925782" y="579.1422286648351"/>
      <point x="427.9990231564722" y="603.53"/>
      <point x="361.9878684318554" y="603.53" type="curve"/>
      <point x="280.58437796926347" y="603.53"/>
      <point x="208.27077402637877" y="564.3020307207311"/>
      <point x="162.93589532470696" y="503.71510314941406" type="curve"/>
      <point x="162.93589532470696" y="863.5299987792969" type="line"/>
      <point x="109.17599999999996" y="863.5299987792969" type="line"/>
    </contour>
  </outline>
</glyph>
<glyph name="i" format="2">
  <advance width="290.1118967172413"/>
  <unicode hex="0069"/>
  <anchor x="145.05594835862064" y="-152.99728169195402" name="below" identifier="below"/>
  <anchor x="172.4973105103448" y="0" name="ogonek" identifier="ogonek"/>
  <outline>
    <contour>
      <point x="191.9358967172413" y="741.5272816919539" type="curve" smooth="yes"/>
      <point x="191.9358967172413" y="767.401029327901"/>
      <point x="170.92969599456774" y="788.4072300505746"/>
      <point x="145.05594835862064" y="788.4072300505746" type="curve" smooth="yes"/>
      <point x="119.18220072267356" y="788.4072300505746"/>
      <point x="98.17599999999996" y="767.401029327901"/>
      <point x="98.17599999999996" y="741.5272816919539" type="curve" smooth="yes"/>
      <point x="98.17599999999996" y="715.6535340560068"/>
      <point x="119.18220072267353" y="694.6473333333332"/>
      <point x="145.05594835862064" y="694.6473333333332" type="curve" smooth="yes"/>
      <point x="170.92969599456774" y="694.6473333333332"/>
      <point x="191.9358967172413" y="715.6535340560068"/>
    </contour>
    <contour>
      <point x="117.6145862068965" y="0" type="line"/>
      <point x="172.4973105103448" y="0" type="line"/>
      <point x="172.4973105103448" y="588.53" type="line"/>
      <point x="117.6145862068965" y="588.53" type="line"/>
    </contour>
  </outline>
</glyph>
<glyph name="j" format="2">
  <advance width="314.2492563363819"/>
  <unicode hex="006A"/>
  <outline>
    <contour>
      <point x="218.07325633638195" y="741.5272816919539" type="curve" smooth="yes"/>
      <point x="218.07325633638195" y="767.401029327901"/>
      <point x="197.06705561370833" y="788.4072300505746"/>
      <point x="171.19330797776124" y="788.4072300505746" type="curve" smooth="yes"/>
      <point x="145.31956034181414" y="788.4072300505746"/>
      <point x="124.31335961914058" y="767.401029327901"/>
      <point x="124.31335961914058" y="741.5272816919539" type="curve" smooth="yes"/>
      <point x="124.31335961914058" y="715.6535340560068"/>
      <point x="145.31956034181414" y="694.6473333333332"/>
      <point x="171.19330797776124" y="694.6473333333332" type="curve" smooth="yes"/>
      <point x="197.06705561370833" y="694.6473333333332"/>
      <point x="218.07325633638195" y="715.6535340560068"/>
    </contour>
    <contour>
      <point x="26.69006586019148" y="-219.95809811862068" type="curve"/>
      <point x="-11.47251653083893" y="-219.95809811862068"/>
      <point x="-46.32774004595316" y="-205.69657578734908"/>
      <point x="-72.82400000000004" y="-182.21156311035156" type="curve"/>
      <point x="-72.82400000000004" y="-239.5046157836914" type="line"/>
      <point x="-44.5693747999284" y="-259.35378314602735"/>
      <point x="-9.967144403382605" y="-271.03"/>
      <point x="27.379208717334365" y="-271.03000000000003" type="curve"/>
      <point x="95.78054796256723" y="-271.03"/>
      <point x="198.07325662111563" y="-240.1460619701454"/>
      <point x="198.07325624706291" y="-55.34045659183797" type="curve"/>
      <point x="198.07325494384762" y="588.5299987792969" type="line"/>
      <point x="144.31335961914058" y="588.5299987792969" type="line"/>
      <point x="144.31335961914058" y="-53.691677829643446" type="line"/>
      <point x="144.31335961914058" y="-96.30033072734551"/>
      <point x="142.36915951719047" y="-219.95809811862068"/>
    </contour>
  </outline>
</glyph>
<glyph name="k" format="2">
  <advance width="573.5064723510742"/>
  <unicode hex="006B"/>
  <anchor x="297.62528854875274" y="981.140527164532" name="top" identifier="top"/>
  <anchor x="303.1679146825396" y="0" name="bottom" identifier="bottom"/>
  <anchor x="303.1679146825396" y="-152.99728169195402" name="below" identifier="below"/>
  <anchor x="136.05594835862064" y="981.140527164532" name="stem" identifier="stem"/>
  <outline>
    <contour>
      <point x="109.17599999999996" y="0" type="line"/>
      <point x="162.93589532470696" y="0" type="line"/>
      <point x="162.93589532470696" y="237.87726593017578" type="line"/>
      <point x="202.4432271728515" y="274.3419418334961" type="line"/>
      <point x="498.74717462158196" y="0" type="line"/>
      <point x="577.3304723510743" y="0" type="line"/>
      <point x="241.6141790161132" y="310.4961471557617" type="line"/>
      <point x="542.8474935302735" y="588.5299987792969" type="line"/>
      <point x="468.1093877563476" y="588.5299987792969" type="line"/>
      <point x="162.93589532470696" y="306.5253677368164" type="line"/>
      <point x="162.93589532470696" y="863.5299987792969" type="line"/>
      <point x="109.17599999999996" y="863.5299987792969" type="line"/>
    </contour>
  </outline>
</glyph>
<glyph name="l" format="2">
  <advance width="273.23472430344816"/>
  <unicode hex="006C"/>
  <anchor x="136.61736215172408" y="981.140527164532" name="top" identifier="top"/>
  <anchor x="136.61736215172408" y="0" name="bottom" identifier="bottom"/>
  <anchor x="136.61736215172408" y="-152.99728169195402" name="below" identifier="below"/>
  <anchor x="258.77132725561023" y="850" name="right" identifier="right"/>
  <anchor x="136.61736215172408" y="431.765" name="stroke" identifier="stroke"/>
  <anchor x="373.579845075862" y="431.765" name="dotmiddle" identifier="dotmiddle"/>
  <outline>
    <contour>
      <point x="109.17599999999996" y="0" type="line"/>
      <point x="164.05872430344823" y="0" type="line"/>
      <point x="164.05872430344823" y="863.53" type="line"/>
      <point x="109.17599999999996" y="863.53" type="line"/>
    </contour>
  </outline>
</glyph>
<glyph name="n" format="2">
  <advance width="697.2407023925781"/>
  <unicode hex="006E"/>
  <anchor x="354.1203511904761" y="741.5272816919539" name="top" identifier="top"/>
  <anchor x="354.1203511904761" y="-152.99728169195402" name="below" identifier="below"/>
  <anchor x="354.1203511904761" y="0" name="bottom" identifier="bottom"/>
  <anchor x="603.0647023809523" y="0" name="right" identifier="right"/>
  <anchor x="158.93589671724135" y="0" name="lefthook" identifier="lefthook"/>
  <outline>
    <contour>
      <point x="105.17599999999996" y="0" type="line"/>
      <point x="158.93589532470696" y="0" type="line"/>
      <point x="158.93589532470696" y="306.435302734375" type="line"/>
      <point x="158.93589532470696" y="513.1168654633939"/>
      <point x="270.1562525341976" y="553.9426927794732"/>
      <point x="353.9414975754664" y="553.9426927794732" type="curve" smooth="yes"/>
      <point x="437.72674261673524" y="553.9426927794732"/>
      <point x="548.9470998218005" y="513.1168628378531"/>
      <point x="548.9470979907203" y="306.4353001088342" type="curve"/>
      <point x="548.947095275879" y="0" type="line"/>
      <point x="603.0647023925782" y="0" type="line"/>
      <point x="603.0647023925782" y="307.08081817626953" type="line"/>
      <point x="603.0647023925782" y="579.041438774165"/>
      <point x="424.7626709436246" y="603.53"/>
      <point x="358.4453167077175" y="603.53" type="curve"/>
      <point x="276.6145395786294" y="603.53"/>
      <point x="204.00584062186033" y="563.7315853112182"/>
      <point x="158.93589532470696" y="502.44325256347656" type="curve"/>
      <point x="158.93589532470696" y="588.5299987792969" type="line"/>
      <point x="105.17599999999996" y="588.5299987792969" type="line"/>
    </contour>
  </outline>
</glyph>
<glyph name="o" format="2">
  <advance width="736.882"/>
  <unicode hex="006F"/>
  <anchor x="368.4409999999999" y="741.5272816919539" name="top" identifier="top"/>
  <anchor x="368.4409999999999" y="-152.99728169195402" name="below" identifier="below"/>
  <anchor x="368.4409999999999" y="294.265" name="stroke" identifier="stroke"/>
  <anchor x="559.5361032827585" y="469.1166666666667" name="horn" identifier="horn"/>
  <outline>
    <contour>
      <point x="677.706" y="294.265" type="curve" smooth="yes"/>
      <point x="677.706" y="464.95299866029995"/>
      <point x="539.1289986603" y="603.53"/>
      <point x="368.4409999999999" y="603.53" type="curve" smooth="yes"/>
      <point x="197.75300133969995" y="603.53"/>
      <point x="59.17599999999996" y="464.95299866029995"/>
      <point x="59.17599999999996" y="294.265" type="curve" smooth="yes"/>
      <point x="59.17599999999996" y="123.57700133969999"/>
      <point x="197.75300133969995" y="-15.0"/>
      <point x="368.4409999999999" y="-15.0" type="curve" smooth="yes"/>
      <point x="539.1289986603" y="-15.0"/>
      <point x="677.706" y="123.57700133969999"/>
    </contour>
    <contour>
      <point x="623.9461032827586" y="294.265" type="curve" smooth="yes"/>
      <point x="623.9461032827586" y="151.6684843380785"/>
      <point x="509.82286774741675" y="36.07190188137929"/>
      <point x="368.4409999999999" y="36.07190188137929" type="curve" smooth="yes"/>
      <point x="227.0591322525832" y="36.07190188137929"/>
      <point x="112.9358967172413" y="151.6684843380785"/>
      <point x="112.9358967172413" y="294.265" type="curve" smooth="yes"/>
      <point x="112.9358967172413" y="436.86151566192143"/>
      <point x="227.0591322525832" y="552.4580981186207"/>
      <point x="368.4409999999999" y="552.4580981186207" type="curve" smooth="yes"/>
      <point x="509.82286774741675" y="552.4580981186207"/>
      <point x="623.9461032827586" y="436.86151566192143"/>
    </contour>
  </outline>
</glyph>
<glyph name="p" format="2">
  <advance width="780.3283430671639"/>
  <unicode hex="0070"/>
  <anchor x="422.1611456287402" y="741.5272816919539" name="top" identifier="top"/>
  <outline>
    <contour>
      <point x="104.17599999999996" y="-263.5299987792969" type="line"/>
      <point x="157.9359029541015" y="-263.5299987792969" type="line"/>
      <point x="157.9359029541015" y="121.15994262695312" type="line"/>
      <point x="213.0207652094976" y="39.06698227880109"/>
      <point x="306.6839102045583" y="-14.999999999999973"/>
      <point x="412.87543134302587" y="-14.999999999999986" type="curve"/>
      <point x="583.5634300033262" y="-15.0"/>
      <point x="721.152343067164" y="123.57700133969993"/>
      <point x="721.152343067164" y="294.265" type="curve" smooth="yes"/>
      <point x="721.152343067164" y="464.95299866030007"/>
      <point x="583.5634300033261" y="603.53"/>
      <point x="412.8754313430259" y="603.53" type="curve"/>
      <point x="306.68391064429903" y="603.53"/>
      <point x="213.02076546350042" y="549.4630180997391"/>
      <point x="157.9359029541015" y="467.37654876708984" type="curve"/>
      <point x="157.9359029541015" y="588.5299987792969" type="line"/>
      <point x="104.17599999999996" y="588.5299987792969" type="line"/>
    </contour>
    <contour>
      <point x="667.8826587637158" y="294.265" type="curve" smooth="yes"/>
      <point x="667.8826587637158" y="151.82377769649352"/>
      <point x="553.5850040736453" y="36.07190188137929"/>
      <point x="412.07755548095696" y="36.07190188137929" type="curve" smooth="yes"/>
      <point x="270.57010688826864" y="36.07190188137929"/>
      <point x="156.27245219819832" y="151.82377769649352"/>
      <point x="156.27245219819832" y="294.265" type="curve" smooth="yes"/>
      <point x="156.27245219819832" y="436.7062223035065"/>
      <point x="270.57010688826864" y="552.4580981186207"/>
      <point x="412.07755548095696" y="552.4580981186207" type="curve" smooth="yes"/>
      <point x="553.5850040736453" y="552.4580981186207"/>
      <point x="667.8826587637158" y="436.7062223035065"/>
    </contour>
  </outline>
</glyph>
<glyph name="q" format="2">
  <advance width="780.3283418464607"/>
  <unicode hex="0071"/>
  <outline>
    <contour>
      <point x="622.3924388923592" y="-263.5299987792969" type="line"/>
      <point x="676.1523418464608" y="-263.5299987792969" type="line"/>
      <point x="676.1523418464608" y="588.5299987792969" type="line"/>
      <point x="622.3924388923592" y="588.5299987792969" type="line"/>
      <point x="622.3924388923592" y="466.9691696166992" type="line"/>
      <point x="567.4511516342188" y="549.2814930186355"/>
      <point x="473.7372514701971" y="603.53"/>
      <point x="367.4529117241378" y="603.53" type="curve"/>
      <point x="196.76491306383758" y="603.53"/>
      <point x="59.17599999999997" y="464.95299866030007"/>
      <point x="59.17599999999996" y="294.265" type="curve" smooth="yes"/>
      <point x="59.17599999999997" y="123.57700133969988"/>
      <point x="196.7649130638378" y="-14.999999999999979"/>
      <point x="367.45291172413783" y="-15.0" type="curve"/>
      <point x="473.7372560298755" y="-15.0"/>
      <point x="567.4511542583026" y="39.248510911806974"/>
      <point x="622.3924388923592" y="121.5447769165039" type="curve"/>
    </contour>
    <contour>
      <point x="624.0558908689654" y="294.265" type="curve" smooth="yes"/>
      <point x="624.0558908689654" y="151.82377769649352"/>
      <point x="509.7582361788952" y="36.07190188137929"/>
      <point x="368.2507875862068" y="36.07190188137929" type="curve" smooth="yes"/>
      <point x="226.74333899351848" y="36.07190188137929"/>
      <point x="112.44568430344818" y="151.82377769649352"/>
      <point x="112.44568430344818" y="294.265" type="curve" smooth="yes"/>
      <point x="112.44568430344818" y="436.7062223035065"/>
      <point x="226.74333899351848" y="552.4580981186207"/>
      <point x="368.2507875862068" y="552.4580981186207" type="curve" smooth="yes"/>
      <point x="509.7582361788952" y="552.4580981186207"/>
      <point x="624.0558908689654" y="436.7062223035065"/>
    </contour>
  </outline>
</glyph>
<glyph name="r" format="2">
  <advance width="441.71547198486314"/>
  <unicode hex="0072"/>
  <anchor x="256.3577342746668" y="741.5272816919539" name="top" identifier="top"/>
  <anchor x="137.05594835862064" y="0" name="bottom" identifier="bottom"/>
  <anchor x="163.93589671724135" y="-152.99728169195402" name="below" identifier="below"/>
  <outline>
    <contour>
      <point x="110.17599999999996" y="0" type="line"/>
      <point x="163.93589532470696" y="0" type="line"/>
      <point x="163.93589532470696" y="347.74464942635416" type="line"/>
      <point x="163.93589532470696" y="503.789972353522"/>
      <point x="242.87682978101128" y="542.5002409757635"/>
      <point x="315.87659115025275" y="542.5002409757635" type="curve"/>
      <point x="347.41875465500704" y="542.5002409757635"/>
      <point x="376.926511324185" y="534.3413507396785"/>
      <point x="402.5394719848632" y="519.9839019775391" type="curve"/>
      <point x="402.5394719848632" y="574.4958877563477" type="line"/>
      <point x="372.5799479768105" y="588.4807306014027"/>
      <point x="342.59128222576516" y="593.5721428571428"/>
      <point x="316.1567295977011" y="593.5721428571427" type="curve"/>
      <point x="254.97208836639032" y="593.5721428571428"/>
      <point x="200.23738477584266" y="565.7370720501991"/>
      <point x="163.93589532470696" y="522.0349960327148" type="curve"/>
      <point x="163.93589532470696" y="588.5299987792969" type="line"/>
      <point x="110.17599999999996" y="588.5299987792969" type="line"/>
    </contour>
  </outline>
</glyph>
<glyph name="u" format="2">
  <advance width="702.2407023925781"/>
  <unicode hex="0075"/>
  <anchor x="343.1203511904761" y="741.5272816919539" name="top" identifier="top"/>
  <anchor x="343.1203511904761" y="-152.99728169195402" name="below" identifier="below"/>
  <anchor x="592.0647023809523" y="0" name="ogonek" identifier="ogonek"/>
  <anchor x="591.3927036719867" y="469.1166666666667" name="horn" identifier="horn"/>
  <outline>
    <contour>
      <point x="94.17599999999996" y="281.44918060302734" type="line"/>
      <point x="94.17599999999997" y="9.48856000513183"/>
      <point x="272.47803143732756" y="-14.999999999999991"/>
      <point x="338.79538567323465" y="-15.0" type="curve"/>
      <point x="420.62616280232277" y="-15.0"/>
      <point x="493.2348611805603" y="24.798413902066073"/>
      <point x="538.3048070678711" y="86.08674621582031" type="curve"/>
      <point x="538.3048070678711" y="0" type="line"/>
      <point x="592.0647023925782" y="0" type="line"/>
      <point x="592.0647023925782" y="588.5299987792969" type="line"/>
      <point x="538.125951171875" y="588.5299987792969" type="line"/>
      <point x="538.125951171875" y="282.0947036743164" type="line"/>
      <point x="538.125951171875" y="75.41314094529756"/>
      <point x="426.9055962317449" y="34.587307220526895"/>
      <point x="343.1203511904761" y="34.587307220526895" type="curve" smooth="yes"/>
      <point x="259.33510614920726" y="34.5873072205269"/>
      <point x="148.11474994170584" y="75.41313716214702"/>
      <point x="148.11475045688115" y="282.0946998911659" type="curve"/>
      <point x="148.11475122070306" y="588.5299987792969" type="line"/>
      <point x="94.17599999999996" y="588.5299987792969" type="line"/>
    </contour>
  </outline>
</glyph>
<glyph name="v" format="2">
  <advance width="677.9393489379883"/>
  <unicode hex="0076"/>
  <anchor x="338.96967499999994" y="741.5272816919539" name="top" identifier="top"/>
  <anchor x="338.96967499999994" y="-152.99728169195402" name="below" identifier="below"/>
  <outline>
    <contour>
      <point x="631.7633489379883" y="588.5299987792969" type="line"/>
      <point x="575.2364553222657" y="588.5299987792969" type="line"/>
      <point x="340.45930993652337" y="99.91219329833984" type="line"/>
      <point x="105.68217218017573" y="588.5299987792969" type="line"/>
      <point x="46.17599999999996" y="588.5299987792969" type="line"/>
      <point x="338.96967828369134" y="-20" type="line"/>
    </contour>
  </outline>
</glyph>
<glyph name="w" format="2">
  <advance width="932.7324779052734"/>
  <unicode hex="0077"/>
  <anchor x="466.3662380952381" y="741.5272816919539" name="top" identifier="top"/>
  <anchor x="466.3662380952381" y="-152.99728169195402" name="below" identifier="below"/>
  <outline>
    <contour>
      <point x="886.5564779052735" y="588.5299987792969" type="line"/>
      <point x="832.2436879882813" y="588.5299987792969" type="line"/>
      <point x="662.1909993896485" y="120.77408599853516" type="line"/>
      <point x="467.78665673828124" y="586.0954208374023" type="line"/>
      <point x="273.3823217163085" y="120.77408599853516" type="line"/>
      <point x="103.32963311767573" y="588.5299987792969" type="line"/>
      <point x="46.17599999999996" y="588.5299987792969" type="line"/>
      <point x="267.7094930419921" y="-20" type="line"/>
      <point x="466.3662389526367" y="454.8507843017578" type="line"/>
      <point x="665.0229848632813" y="-20" type="line"/>
    </contour>
  </outline>
</glyph>
<glyph name="x" format="2">
  <advance width="612.0853297729491"/>
  <unicode hex="0078"/>
  <anchor x="306.0426631062826" y="741.5272816919539" name="top" identifier="top"/>
  <outline>
    <contour>
      <point x="569.9093297729491" y="0" type="line"/>
      <point x="342.74545800781243" y="302.1258773803711" type="line"/>
      <point x="558.110600830078" y="588.5299987792969" type="line"/>
      <point x="494.640614868164" y="588.5299987792969" type="line"/>
      <point x="306.9264119873046" y="337.66268157958984" type="line"/>
      <point x="119.21220910644527" y="588.5299987792969" type="line"/>
      <point x="52.39323937988277" y="588.5299987792969" type="line"/>
      <point x="268.5491613159179" y="301.0742492675781" type="line"/>
      <point x="42.17599999999996" y="0" type="line"/>
      <point x="105.6526693115234" y="0" type="line"/>
      <point x="304.36816918945306" y="265.5425338745117" type="line"/>
      <point x="503.08366906738274" y="0" type="line"/>
    </contour>
  </outline>
</glyph>
<glyph name="y" format="2">
  <advance width="687.215037109375"/>
  <unicode hex="0079"/>
  <anchor x="344.10655428699306" y="741.5272816919539" name="top" identifier="top"/>
  <anchor x="492.5727965488979" y="-152.99728169195402" name="below" identifier="below"/>
  <outline>
    <contour>
      <point x="345.59194696044915" y="80.72891235351562" type="line"/>
      <point x="105.70965325927729" y="588.5299987792969" type="line"/>
      <point x="46.17599999999996" y="588.5299987792969" type="line"/>
      <point x="315.9827092895507" y="18.135848999023438" type="line"/>
      <point x="182.90469110107415" y="-263.5299987792969" type="line"/>
      <point x="239.3495000610351" y="-263.5299987792969" type="line"/>
      <point x="641.039037109375" y="588.5299987792969" type="line"/>
      <point x="584.67062890625" y="588.5299987792969" type="line"/>
    </contour>
  </outline>
</glyph>
<glyph name="z" format="2">
  <advance width="610.0460460205078"/>
  <unicode hex="007A"/>
  <anchor x="304.52302380952375" y="741.5272816919539" name="top" identifier="top"/>
  <anchor x="304.52302380952375" y="-152.99728169195402" name="below" identifier="below"/>
  <anchor x="304.52302380952375" y="294.265" name="stroke" identifier="stroke"/>
  <outline>
    <contour>
      <point x="169.63792169189446" y="51.0718994140625" type="line"/>
      <point x="539.8700460205079" y="588.5299987792969" type="line"/>
      <point x="86.67117059326168" y="588.5299987792969" type="line"/>
      <point x="86.67117059326168" y="537.4580993652344" type="line"/>
      <point x="439.4081243286132" y="537.4580993652344" type="line"/>
      <point x="69.17599999999996" y="0" type="line"/>
      <point x="537.3748754272461" y="0" type="line"/>
      <point x="537.3748754272461" y="51.0718994140625" type="line"/>
    </contour>
  </outline>
</glyph>
<glyph name="braceleft" format="2">
  <advance width="372.75309626697356"/>
  <unicode hex="007B"/>
  <outline>
    <contour>
      <point x="300.5770925292968" y="-42.270286560058594" type="line" smooth="yes"/>
      <point x="271.19675775303256" y="-42.270286065693384"/>
      <point x="209.90154892873653" y="-29.57673523469815"/>
      <point x="209.9015485626503" y="74.73238947959982" type="curve"/>
      <point x="209.9015479251209" y="256.383976477197" type="line"/>
      <point x="209.90154772192108" y="314.2818162370025"/>
      <point x="209.28579000616298" y="381.83282761227224"/>
      <point x="134.68190515136712" y="425.0042266845703" type="curve"/>
      <point x="209.2841124531343" y="468.16062595022254"/>
      <point x="209.90154871652908" y="535.7190607887251"/>
      <point x="209.90154851333233" y="593.6160263750205" type="curve"/>
      <point x="209.90154787580292" y="775.2676117736016" type="line"/>
      <point x="209.9015475097167" y="879.5767360920967"/>
      <point x="271.1967614907093" y="892.2702857142857"/>
      <point x="300.57709626697357" y="892.2702857142857" type="curve"/>
      <point x="300.5770925292968" y="938.5299987792969" type="line"/>
      <point x="294.74631249999993" y="938.5299987792969" type="line"/>
      <point x="269.98867917812794" y="938.5299991733386"/>
      <point x="155.78155068441686" y="937.6105888775339"/>
      <point x="155.78154812531238" y="764.1394101412893" type="curve"/>
      <point x="155.78154544676408" y="582.5716250137649" type="line"/>
      <point x="155.781543718305" y="465.40648096562444"/>
      <point x="87.61775553100092" y="448.98414285714284"/>
      <point x="50.17600102887832" y="448.98414285714284" type="curve"/>
      <point x="50.17599999999996" y="401.01585388183594" type="line" smooth="yes"/>
      <point x="87.61775450212254" y="401.01585597404863"/>
      <point x="155.7815499735662" y="384.5935181333804"/>
      <point x="155.78154824510705" y="267.4283715550341" type="curve"/>
      <point x="155.7815455665588" y="85.86058876038737" type="line"/>
      <point x="155.78154300745456" y="-87.61058004384816"/>
      <point x="269.9886660976916" y="-88.52999999999997"/>
      <point x="294.7463105526878" y="-88.52999999999997" type="curve" smooth="yes"/>
      <point x="300.5770925292968" y="-88.52999877929688" type="line"/>
    </contour>
  </outline>
</glyph>
<glyph name="bar" format="2">
  <advance width="271.15199999999993"/>
  <unicode hex="007C"/>
  <outline>
    <contour>
      <point x="109.17599999999996" y="-88.53" type="line"/>
      <point x="161.97599999999994" y="-88.53" type="line"/>
      <point x="161.97599999999994" y="938.53" type="line"/>
      <point x="109.17599999999996" y="938.53" type="line"/>
    </contour>
  </outline>
</glyph>
<glyph name="braceright" format="2">
  <advance width="372.75309626697356"/>
  <unicode hex="007D"/>
  <outline>
    <contour>
      <point x="72.17599999999996" y="-42.270285714285706" type="curve"/>
      <point x="72.1760037376767" y="-88.52999877929688" type="line"/>
      <point x="78.00678376697357" y="-88.52999877929688" type="line"/>
      <point x="102.76441708884556" y="-88.52999917333865"/>
      <point x="216.97154558255676" y="-87.61058887753396"/>
      <point x="216.97154814166115" y="85.86058985871063" type="curve"/>
      <point x="216.97155082020942" y="267.4283749862351" type="line"/>
      <point x="216.9715525486685" y="384.59351903437556"/>
      <point x="285.13534073597265" y="401.01585714285716"/>
      <point x="322.57709523809524" y="401.01585714285716" type="curve"/>
      <point x="322.57709626697357" y="448.98414611816406" type="line" smooth="yes"/>
      <point x="285.13534176485103" y="448.9841440259513"/>
      <point x="216.97154629340736" y="465.4064818666196"/>
      <point x="216.9715480218665" y="582.5716284449659" type="curve"/>
      <point x="216.9715507004147" y="764.1394112396126" type="line"/>
      <point x="216.97155325951894" y="937.6105800438481"/>
      <point x="102.76443016928195" y="938.53"/>
      <point x="78.00678571428568" y="938.53" type="curve" smooth="yes"/>
      <point x="72.1760037376767" y="938.5299987792969" type="line"/>
      <point x="72.1760037376767" y="892.2702865600586" type="line" smooth="yes"/>
      <point x="101.55633851394094" y="892.2702860656934"/>
      <point x="162.85154733823703" y="879.5767352346982"/>
      <point x="162.8515477043232" y="775.2676105204002" type="curve"/>
      <point x="162.8515483418526" y="593.616023522803" type="line"/>
      <point x="162.85154854505245" y="535.7181837629975"/>
      <point x="163.46730626081052" y="468.1671723877278"/>
      <point x="238.07119111560638" y="424.9957733154297" type="curve"/>
      <point x="163.4689838138392" y="381.8393740497774"/>
      <point x="162.85154755044445" y="314.280939211275"/>
      <point x="162.85154775364123" y="256.3839736249794" type="curve"/>
      <point x="162.8515483911706" y="74.73238822639837" type="line"/>
      <point x="162.85154875725678" y="-29.57673609209671"/>
      <point x="101.55633477626424" y="-42.270285714285706"/>
    </contour>
  </outline>
</glyph>
<glyph name="tilde" format="2">
  <advance width="756.4120051879881"/>
  <unicode hex="007E"/>
  <outline>
    <contour>
      <point x="250.04501092529293" y="448.34018904376876" type="curve"/>
      <point x="289.3816726296259" y="448.3401890437689"/>
      <point x="317.44928907726296" y="433.63299740331166"/>
      <point x="363.3791985454219" y="405.83319169368895" type="curve"/>
      <point x="367.6566938387633" y="403.2441698677009" type="line"/>
      <point x="426.8226795013318" y="367.4330192452944"/>
      <point x="465.2928532165479" y="348.8598109562313"/>
      <point x="515.3669924218916" y="348.8598109562313" type="curve"/>
      <point x="578.1961894482931" y="348.85981095623123"/>
      <point x="634.3362560775763" y="377.72716822788516"/>
      <point x="671.2360051879882" y="422.9324188232422" type="curve"/>
      <point x="671.2360051879882" y="501.09339141845703" type="line"/>
      <point x="643.8898042433375" y="442.3900271418356"/>
      <point x="584.3473915643895" y="401.65981095623124"/>
      <point x="515.3669924218916" y="401.65981095623124" type="curve"/>
      <point x="476.0303307175586" y="401.65981095623135"/>
      <point x="447.96271626458747" y="416.36700225414586"/>
      <point x="402.032807190908" y="444.16680861551436" type="curve"/>
      <point x="397.7553119343048" y="446.75583050220007" type="line"/>
      <point x="338.58932677989685" y="482.5669819641723"/>
      <point x="300.11915013063674" y="501.1401890437688"/>
      <point x="250.04501092529298" y="501.1401890437688" type="curve"/>
      <point x="187.21581389889144" y="501.1401890437688"/>
      <point x="131.07574800568582" y="472.272832673871"/>
      <point x="94.17599999999996" y="427.0675811767578" type="curve"/>
      <point x="94.17599999999996" y="348.90663146972656" type="line"/>
      <point x="121.52219910384693" y="407.6099728581644"/>
      <point x="181.06461178279503" y="448.34018904376876"/>
    </contour>
  </outline>
</glyph>
<glyph name="inv_exclamation" format="2">
  <advance width="307.53812897959176"/>
  <unicode hex="00A1"/>
  <outline>
    <contour>
      <point x="89.17599999999996" y="538.9369355102041" type="curve" smooth="yes"/>
      <point x="89.17599999999995" y="503.28705303045706"/>
      <point x="118.11918201004886" y="474.34387102040813"/>
      <point x="153.76906448979588" y="474.34387102040813" type="curve" smooth="yes"/>
      <point x="189.41894696954287" y="474.34387102040813"/>
      <point x="218.36212897959177" y="503.287053030457"/>
      <point x="218.3621289795918" y="538.9369355102041" type="curve" smooth="yes"/>
      <point x="218.3621289795918" y="574.586817989951"/>
      <point x="189.4189469695429" y="603.53"/>
      <point x="153.76906448979588" y="603.53" type="curve" smooth="yes"/>
      <point x="118.11918201004889" y="603.53"/>
      <point x="89.17599999999996" y="574.5868179899511"/>
    </contour>
    <contour>
      <point x="131.25082260747166" y="380.1678695678711" type="line"/>
      <point x="120.36066300053807" y="-276.4700012207031" type="line"/>
      <point x="187.1774659790537" y="-276.4700012207031" type="line"/>
      <point x="176.2873063721201" y="380.1678695678711" type="line"/>
    </contour>
  </outline>
</glyph>
<glyph name="cent" format="2">
  <advance width="599.7810466308592"/>
  <unicode hex="00A2"/>
  <outline>
    <contour>
      <point x="328.1191533813476" y="0" type="line"/>
      <point x="382.2391561279296" y="0" type="line"/>
      <point x="382.2391561279296" y="116.35865020751953" type="line"/>
      <point x="444.8014544036623" y="120.14444663009363"/>
      <point x="502.38204764626283" y="141.35422686487433"/>
      <point x="549.6050466308593" y="175.40185546875" type="curve"/>
      <point x="549.6050466308593" y="237.29334259033203" type="line"/>
      <point x="499.74995490209125" y="193.6692488107467"/>
      <point x="433.9891329443364" y="167.14899999999994"/>
      <point x="361.9441547619046" y="167.14899999999994" type="curve"/>
      <point x="219.0514883862936" y="167.14900000000003"/>
      <point x="103.04599999999995" y="282.40065699810765"/>
      <point x="103.04599999999995" y="425.0" type="curve" smooth="yes"/>
      <point x="103.04599999999995" y="567.5993430018923"/>
      <point x="219.05148838629373" y="682.851"/>
      <point x="361.94415476190466" y="682.851" type="curve"/>
      <point x="433.98919881901816" y="682.850998937886"/>
      <point x="499.7500730098731" y="656.3307033524601"/>
      <point x="549.6050466308593" y="612.7022552490234" type="curve"/>
      <point x="549.6050466308593" y="674.6084899902344" type="line"/>
      <point x="502.38204763818106" y="708.648563676519"/>
      <point x="444.80145440292364" y="729.8600789794657"/>
      <point x="382.2391561279297" y="733.6486892700195" type="curve"/>
      <point x="382.2391561279296" y="850" type="line"/>
      <point x="328.1191533813476" y="850" type="line"/>
      <point x="328.1191533813476" y="732.4816284179688" type="line"/>
      <point x="171.37459898207385" y="715.8961499220252"/>
      <point x="49.17599999999996" y="585.2869078186662"/>
      <point x="49.17599999999996" y="425.0" type="curve" smooth="yes"/>
      <point x="49.175999999999945" y="264.71309218133376"/>
      <point x="171.37459898207373" y="134.10385007797484"/>
      <point x="328.1191533813476" y="117.51545715332031" type="curve"/>
    </contour>
  </outline>
</glyph>
<glyph name="pound" format="2">
  <advance width="683.548662902832"/>
  <unicode hex="00A3"/>
  <outline>
    <contour>
      <point x="50.17599999999996" y="0" type="line"/>
      <point x="605.3726629028321" y="0" type="line"/>
      <point x="605.3726629028321" y="51.41400146484375" type="line"/>
      <point x="162.04355371093743" y="51.41400146484375" type="line"/>
      <point x="204.2959999462957" y="94.09040796242259"/>
      <point x="204.2959998764809" y="143.53623755816167"/>
      <point x="204.29600043468673" y="191.36624558734692" type="curve"/>
      <point x="204.29600274658196" y="389.4615707397461" type="line"/>
      <point x="450.2429860839843" y="389.4615707397461" type="line"/>
      <point x="450.2429860839843" y="440.87557220458984" type="line"/>
      <point x="204.29600274658196" y="440.87557220458984" type="line"/>
      <point x="204.29600274658196" y="537.4016647338867" type="line"/>
      <point x="204.29600274658196" y="781.2930620441429"/>
      <point x="352.5649372588868" y="813.586"/>
      <point x="428.1070229885057" y="813.586" type="curve"/>
      <point x="491.2131850262047" y="813.586"/>
      <point x="548.4803797490035" y="788.0887021495114"/>
      <point x="590.3726629028321" y="746.7120590209961" type="curve"/>
      <point x="590.3726629028321" y="812.3458480834961" type="line"/>
      <point x="544.6613754456137" y="845.4717565286631"/>
      <point x="488.48039206788286" y="865.0"/>
      <point x="427.7743333333332" y="865.0" type="curve"/>
      <point x="337.4997745587095" y="865.0"/>
      <point x="150.176" y="821.3188043357633"/>
      <point x="150.17599999999993" y="537.4016666666666" type="curve"/>
      <point x="150.17599999999993" y="440.87557220458984" type="line"/>
      <point x="50.17599999999996" y="440.87557220458984" type="line"/>
      <point x="50.17599999999996" y="389.4615707397461" type="line"/>
      <point x="150.17599999999993" y="389.4615707397461" type="line"/>
      <point x="150.17599999999993" y="181.4649275829653" type="line"/>
      <point x="150.17599999999993" y="156.25106276189845"/>
      <point x="149.22239151930626" y="51.41399999999999"/>
      <point x="50.17599999999996" y="51.41399999999999" type="curve"/>
    </contour>
  </outline>
</glyph>
<glyph name="currency" format="2">
  <advance width="702.9604136962889"/>
  <unicode hex="00A4"/>
  <outline>
    <contour>
      <point x="121.51123559570308" y="157.69579315185547" type="line"/>
      <point x="193.24030053710933" y="229.42485809326172" type="line"/>
      <point x="236.47937553310666" y="194.37377898407172"/>
      <point x="291.54685002921303" y="173.37476190476193"/>
      <point x="351.48020684814446" y="173.3747619047619" type="curve" smooth="yes"/>
      <point x="411.4152301760556" y="173.37476190476187"/>
      <point x="466.4841005755974" y="194.37494679908897"/>
      <point x="509.72376000976556" y="229.42121124267578" type="curve"/>
      <point x="581.4491781005859" y="157.69579315185547" type="line"/>
      <point x="618.784413696289" y="195.0310287475586" type="line"/>
      <point x="547.0553487548827" y="266.76009368896484" type="line"/>
      <point x="582.1001991420834" y="309.9828359056962"/>
      <point x="603.1054449433826" y="365.05775513317633"/>
      <point x="603.1054449433826" y="425.00000000000006" type="curve" smooth="yes"/>
      <point x="603.1054449433826" y="484.9401617305989"/>
      <point x="582.1016590816706" y="540.013336118366"/>
      <point x="547.0589956054687" y="583.2435531616211" type="curve"/>
      <point x="618.784413696289" y="654.9689712524414" type="line"/>
      <point x="581.4491781005859" y="692.3042068481445" type="line"/>
      <point x="509.7201131591796" y="620.5751419067383" type="line"/>
      <point x="466.48103816318223" y="655.6262210159283"/>
      <point x="411.4135636670759" y="676.6252380952382"/>
      <point x="351.48020684814446" y="676.6252380952382" type="curve" smooth="yes"/>
      <point x="291.5451835202333" y="676.6252380952382"/>
      <point x="236.47631312069157" y="655.625053200911"/>
      <point x="193.2366536865234" y="620.5787887573242" type="curve"/>
      <point x="121.51123559570308" y="692.3042068481445" type="line"/>
      <point x="84.17599999999996" y="654.9689712524414" type="line"/>
      <point x="155.9050649414062" y="583.2399063110352" type="line"/>
      <point x="120.86021455420561" y="540.0171640943037"/>
      <point x="99.85496875290639" y="484.94224486682356"/>
      <point x="99.85496875290639" y="425.0" type="curve" smooth="yes"/>
      <point x="99.85496875290636" y="365.0598382694011"/>
      <point x="120.85875461461842" y="309.98666388163394"/>
      <point x="155.90141809082027" y="266.7564468383789" type="curve"/>
      <point x="84.17599999999996" y="195.0310287475586" type="line"/>
    </contour>
    <contour>
      <point x="550.3054449433827" y="425.0" type="curve" smooth="yes"/>
      <point x="550.3054449433827" y="315.26536474016183"/>
      <point x="461.2148421079826" y="226.17476190476182"/>
      <point x="351.48020684814446" y="226.17476190476185" type="curve" smooth="yes"/>
      <point x="241.74557158830632" y="226.17476190476185"/>
      <point x="152.65496875290634" y="315.2653647401619"/>
      <point x="152.65496875290634" y="425.0" type="curve" smooth="yes"/>
      <point x="152.65496875290634" y="534.7346352598381"/>
      <point x="241.74557158830638" y="623.8252380952381"/>
      <point x="351.48020684814446" y="623.8252380952381" type="curve" smooth="yes"/>
      <point x="461.2148421079826" y="623.8252380952381"/>
      <point x="550.3054449433827" y="534.7346352598381"/>
    </contour>
  </outline>
</glyph>
<glyph name="yen" format="2">
  <advance width="712.5672404785156"/>
  <unicode hex="00A5"/>
  <outline>
    <contour>
      <point x="126.9210332641601" y="263.30110931396484" type="line"/>
      <point x="329.223622680664" y="263.30110931396484" type="line"/>
      <point x="329.223622680664" y="0" type="line"/>
      <point x="383.3436177978515" y="0" type="line"/>
      <point x="383.3436177978515" y="263.30110931396484" type="line"/>
      <point x="585.6462072143555" y="263.30110931396484" type="line"/>
      <point x="585.6462072143555" y="314.83555603027344" type="line"/>
      <point x="383.3436177978515" y="314.83555603027344" type="line"/>
      <point x="383.3436177978515" y="383.10369873046875" type="line"/>
      <point x="389.88972222900384" y="393.4977722167969" type="line"/>
      <point x="585.6462072143555" y="393.4977722167969" type="line"/>
      <point x="585.6462072143555" y="445.0322265625" type="line"/>
      <point x="422.3457158813476" y="445.0322265625" type="line"/>
      <point x="677.3912404785157" y="850" type="line"/>
      <point x="616.8096288452149" y="850" type="line"/>
      <point x="357.88054406738274" y="438.19512939453125" type="line"/>
      <point x="98.95145928955073" y="850" type="line"/>
      <point x="35.17599999999996" y="850" type="line"/>
      <point x="290.2215245971679" y="445.0322265625" type="line"/>
      <point x="126.9210332641601" y="445.0322265625" type="line"/>
      <point x="126.9210332641601" y="393.4977722167969" type="line"/>
      <point x="322.67751824951165" y="393.4977722167969" type="line"/>
      <point x="329.223622680664" y="383.10369873046875" type="line"/>
      <point x="329.223622680664" y="314.83555603027344" type="line"/>
      <point x="126.9210332641601" y="314.83555603027344" type="line"/>
    </contour>
  </outline>
</glyph>
<glyph name="brokenbar" format="2">
  <advance width="271.1520030517577"/>
  <unicode hex="00A6"/>
  <outline>
    <contour>
      <point x="161.97600305175774" y="938.5299987792969" type="line"/>
      <point x="109.17599999999996" y="938.5299987792969" type="line"/>
      <point x="109.17599999999996" y="486.4700012207031" type="line"/>
      <point x="161.97600305175774" y="486.4700012207031" type="line"/>
    </contour>
    <contour>
      <point x="109.17599999999996" y="-88.52999877929688" type="line"/>
      <point x="161.97600305175774" y="-88.52999877929688" type="line"/>
      <point x="161.97600305175774" y="363.5299987792969" type="line"/>
      <point x="109.17599999999996" y="363.5299987792969" type="line"/>
    </contour>
  </outline>
</glyph>
<glyph name="section" format="2">
  <advance width="572.7668163265303"/>
  <unicode hex="00A7"/>
  <outline>
    <contour>
      <point x="501.8679591836733" y="-10.874857352120642" type="curve"/>
      <point x="501.8679591836733" y="57.845365764793016"/>
      <point x="455.10631334360846" y="115.67707678236869"/>
      <point x="385.9666443132671" y="145.5700454711914" type="curve"/>
      <point x="467.45000786704827" y="176.7331853513336"/>
      <point x="523.5908163265303" y="243.43048488305806"/>
      <point x="523.5908163265303" y="326.1734642857143" type="curve"/>
      <point x="523.5908163265303" y="440.3755086366815"/>
      <point x="422.43950914998254" y="486.95805292626227"/>
      <point x="347.49094208913573" y="516.4248815567809" type="curve"/>
      <point x="261.1723569568819" y="550.3619540782074" type="line"/>
      <point x="204.73010335535432" y="572.5528281618472"/>
      <point x="125.66585714285691" y="599.3305649966535"/>
      <point x="125.66585714285691" y="677.9856785714286" type="curve"/>
      <point x="125.66585714285691" y="755.6356095749294"/>
      <point x="204.54568150444632" y="812.586"/>
      <point x="301.9676938775508" y="812.586" type="curve"/>
      <point x="338.9677958617232" y="812.5859997857395"/>
      <point x="413.1633405469121" y="806.2906750631724"/>
      <point x="471.8679580950054" y="764.9436728777205" type="curve"/>
      <point x="471.8679580950054" y="823.1537094116211" type="line"/>
      <point x="427.1005591786188" y="851.0428562855213"/>
      <point x="367.4536095723488" y="865.0"/>
      <point x="301.9676938775508" y="865.0000000000001" type="curve"/>
      <point x="175.43474817419607" y="865.0"/>
      <point x="72.89885714285694" y="784.7912240660194"/>
      <point x="72.89885714285694" y="676.6326785714286" type="curve"/>
      <point x="72.89885714285694" y="607.912455454515"/>
      <point x="119.66050246272599" y="550.0807446618493"/>
      <point x="188.80017092459522" y="520.1877746582031" type="curve"/>
      <point x="107.31680714608481" y="489.0246353656685"/>
      <point x="51.17599999999986" y="422.3273363362499"/>
      <point x="51.17599999999996" y="339.58435693359365" type="curve"/>
      <point x="51.17599999999979" y="225.38231258262647"/>
      <point x="152.3273066732027" y="178.79976785234408"/>
      <point x="227.27587362593837" y="149.3329389468458" type="curve"/>
      <point x="313.5944598390698" y="115.3958656348122" type="line"/>
      <point x="370.036713359181" y="93.20499134409076"/>
      <point x="449.10095918367324" y="66.42725622265445"/>
      <point x="449.10095918367324" y="-12.227857352120594" type="curve"/>
      <point x="449.10095918367324" y="-89.87778835562142"/>
      <point x="370.22113482208385" y="-146.82817878069199"/>
      <point x="272.79912244897935" y="-146.82817878069199" type="curve"/>
      <point x="196.84022987227445" y="-146.82817843436152"/>
      <point x="128.82387334972296" y="-126.83784078068136"/>
      <point x="82.8988582315248" y="-90.43756064278745" type="curve"/>
      <point x="82.89885714285694" y="-150.10818481445312" type="line"/>
      <point x="130.57759390936712" y="-183.31984303174528"/>
      <point x="198.02505121723297" y="-199.24217878069197"/>
      <point x="272.79912244897935" y="-199.24217878069197" type="curve"/>
      <point x="399.33206815233416" y="-199.24217878069197"/>
      <point x="501.8679591836733" y="-119.03340284671138"/>
    </contour>
    <contour>
      <point x="103.94299999999987" y="340.9373569335938" type="curve"/>
      <point x="103.94299999999987" y="419.0918628162135"/>
      <point x="174.0942798087107" y="477.86218234541786"/>
      <point x="266.43361666434134" y="489.4606475830078" type="curve"/>
      <point x="330.5180496994325" y="464.22700297375764" type="line"/>
      <point x="412.9814868187643" y="431.7565110465365"/>
      <point x="470.8238163265304" y="396.9970674262461"/>
      <point x="470.8238163265304" y="324.82046428571437" type="curve"/>
      <point x="470.8238163265304" y="246.66595840309466"/>
      <point x="400.67253531128654" y="187.89563872234115"/>
      <point x="308.33319857352103" y="176.29717254638672" type="curve"/>
      <point x="244.24876620640177" y="201.5308168926188" type="line"/>
      <point x="161.78532908706987" y="234.00130881983992"/>
      <point x="103.94299999999987" y="268.7607537930621"/>
    </contour>
  </outline>
</glyph>
<glyph name="diaeresis" format="2">
  <advance width="490.0496824315269"/>
  <unicode hex="00A8"/>
  <anchor x="245.02484121576347" y="981.140527164532" name="center" identifier="center"/>
  <anchor x="245.02484121576347" y="1122.3948284753146" name="top" identifier="top"/>
  <outline>
    <contour>
      <point x="202.2593967172413" y="981.140527164532" type="curve" smooth="yes"/>
      <point x="202.2593967172413" y="1006.8275895449641"/>
      <point x="181.4047607390527" y="1027.6822255231527"/>
      <point x="155.71769835862062" y="1027.6822255231527" type="curve" smooth="yes"/>
      <point x="130.03063597818854" y="1027.6822255231527"/>
      <point x="109.17599999999996" y="1006.8275895449641"/>
      <point x="109.17599999999996" y="981.140527164532" type="curve" smooth="yes"/>
      <point x="109.17599999999996" y="955.4534647841"/>
      <point x="130.0306359781885" y="934.5988288059114"/>
      <point x="155.71769835862062" y="934.5988288059114" type="curve" smooth="yes"/>
      <point x="181.4047607390527" y="934.5988288059114"/>
      <point x="202.2593967172413" y="955.4534647841"/>
    </contour>
    <contour>
      <point x="380.87368243152696" y="981.140527164532" type="curve" smooth="yes"/>
      <point x="380.87368243152696" y="1006.8275895449641"/>
      <point x="360.01904645333843" y="1027.6822255231527"/>
      <point x="334.3319840729064" y="1027.6822255231527" type="curve" smooth="yes"/>
      <point x="308.6449216924742" y="1027.6822255231527"/>
      <point x="287.7902857142857" y="1006.8275895449641"/>
      <point x="287.7902857142857" y="981.140527164532" type="curve" smooth="yes"/>
      <point x="287.7902857142857" y="955.4534647841"/>
      <point x="308.6449216924742" y="934.5988288059114"/>
      <point x="334.3319840729064" y="934.5988288059114" type="curve" smooth="yes"/>
      <point x="360.01904645333843" y="934.5988288059114"/>
      <point x="380.87368243152696" y="955.4534647841"/>
    </contour>
  </outline>
</glyph>
<glyph name="copyright" format="2">
  <advance width="968.3519999999999"/>
  <unicode hex="00A9"/>
  <outline>
    <contour>
      <point x="924.1759999999999" y="425.0" type="curve" smooth="yes"/>
      <point x="924.1759999999999" y="667.8426088"/>
      <point x="727.0186088" y="865.0"/>
      <point x="484.17599999999993" y="865.0" type="curve" smooth="yes"/>
      <point x="241.33339119999997" y="865.0"/>
      <point x="44.17599999999996" y="667.8426088000001"/>
      <point x="44.17599999999996" y="425.0" type="curve" smooth="yes"/>
      <point x="44.1759999999999" y="182.15739120000003"/>
      <point x="241.3333911999999" y="-14.999999999999943"/>
      <point x="484.17599999999993" y="-15.0" type="curve" smooth="yes"/>
      <point x="727.0186087999998" y="-15.000000000000057"/>
      <point x="924.1759999999999" y="182.1573911999999"/>
    </contour>
    <contour>
      <point x="873.1671161931033" y="425.0" type="curve" smooth="yes"/>
      <point x="873.1671161931033" y="210.3099603264609"/>
      <point x="698.8660396735388" y="36.008883806896506"/>
      <point x="484.17599999999993" y="36.00888380689656" type="curve" smooth="yes"/>
      <point x="269.48596032646094" y="36.00888380689656"/>
      <point x="95.18488380689652" y="210.30996032646104"/>
      <point x="95.18488380689652" y="425.0" type="curve" smooth="yes"/>
      <point x="95.18488380689652" y="639.6900396735391"/>
      <point x="269.48596032646094" y="813.9911161931034"/>
      <point x="484.17599999999993" y="813.9911161931034" type="curve" smooth="yes"/>
      <point x="698.866039673539" y="813.9911161931034"/>
      <point x="873.1671161931033" y="639.690039673539"/>
    </contour>
    <contour>
      <point x="488.05866666666657" y="623.834702188368" type="curve"/>
      <point x="546.6549568881794" y="623.834701647788"/>
      <point x="600.0157170332927" y="601.6732911112053"/>
      <point x="639.9086808671664" y="565.4095979690351" type="curve"/>
      <point x="639.9086808671664" y="626.9731086359317" type="line"/>
      <point x="597.5988661793642" y="657.4756168929589"/>
      <point x="545.0138180643362" y="675.248702188368"/>
      <point x="488.05866666666657" y="675.2487021883682" type="curve"/>
      <point x="348.37129600835146" y="675.248702188368"/>
      <point x="234.97530833314258" y="563.894264348982"/>
      <point x="234.97530833314258" y="425.0" type="curve" smooth="yes"/>
      <point x="234.97530833314258" y="286.1057356510181"/>
      <point x="348.37129600835135" y="174.75129781163196"/>
      <point x="488.05866666666657" y="174.75129781163193" type="curve"/>
      <point x="545.0138180643362" y="174.75129781163193"/>
      <point x="597.5988661793642" y="192.5243831070411"/>
      <point x="639.9086808671664" y="223.02922395760086" type="curve"/>
      <point x="639.9086808671664" y="284.5822643761617" type="line"/>
      <point x="600.015845566073" y="248.32676226325447"/>
      <point x="546.6550265334731" y="226.16529781163194"/>
      <point x="488.0586666666667" y="226.16529781163194" type="curve"/>
      <point x="378.11967194696444" y="226.1652978116319"/>
      <point x="288.8930152332215" y="315.1693432555265"/>
      <point x="288.8930152332215" y="425.0" type="curve" smooth="yes"/>
      <point x="288.8930152332215" y="534.8306567444736"/>
      <point x="378.11967194696456" y="623.834702188368"/>
    </contour>
  </outline>
</glyph>
<glyph name="ordinal_a" format="2">
  <advance width="486.63433730265933"/>
  <unicode hex="00AA"/>
  <outline>
    <contour>
      <point x="336.48992298676006" y="505.3771428571429" type="line"/>
      <point x="386.4583358858635" y="505.3771428571429" type="line"/>
      <point x="386.4583358858635" y="678.2129611394619" type="line"/>
      <point x="386.4583358858635" y="743.3865151697504"/>
      <point x="386.0613176579962" y="858.7834823324943"/>
      <point x="236.19134916726762" y="858.7834823324943" type="curve"/>
      <point x="188.24145267780756" y="858.7834823324943"/>
      <point x="144.8055558871498" y="847.2831192479122"/>
      <point x="113.10692853022574" y="826.6637367028516" type="curve"/>
      <point x="113.10692853022574" y="769.264831384115" type="line"/>
      <point x="139.7597460752009" y="794.315935076111"/>
      <point x="183.67354005157864" y="809.8127914950559"/>
      <point x="233.40605036353531" y="809.8127914950559" type="curve"/>
      <point x="334.6092430219721" y="809.8127914950559"/>
      <point x="336.48992315746347" y="742.5680241306144"/>
      <point x="336.4899230078828" y="707.1604523930949" type="curve"/>
      <point x="336.48992298676006" y="702.1604523930949" type="line"/>
      <point x="299.86617807404235" y="711.9360064688103"/>
      <point x="265.46155878853824" y="714.6384878367777"/>
      <point x="238.6582502327114" y="714.6384878367778" type="curve"/>
      <point x="152.13644919082986" y="714.6384878367778"/>
      <point x="83.17599999999996" y="680.0466980574918"/>
      <point x="83.17599999999996" y="605.6160741807132" type="curve"/>
      <point x="83.17599999999996" y="538.9193728922166"/>
      <point x="143.098946936166" y="496.5936605246486"/>
      <point x="217.0059579847312" y="496.5936605246486" type="curve"/>
      <point x="265.0412715714538" y="496.5936605246486"/>
      <point x="307.9904819381496" y="514.1461504015531"/>
      <point x="336.48992298676006" y="543.2242670417156" type="curve"/>
    </contour>
    <contour>
      <point x="134.3503719251231" y="604.2556053592167" type="curve"/>
      <point x="134.3503719251231" y="640.5816715300742"/>
      <point x="168.42434884801133" y="665.9705000400936"/>
      <point x="239.02553041399216" y="665.9705000400936" type="curve"/>
      <point x="259.9918961772175" y="665.9705002937475"/>
      <point x="297.2817572496834" y="663.9786108106487"/>
      <point x="336.48992298676006" y="652.6817500852994" type="curve"/>
      <point x="336.48992298676006" y="644.2891704223866" type="line"/>
      <point x="336.48992309681995" y="585.5098551806233"/>
      <point x="284.4246597201214" y="545.6867780891806"/>
      <point x="220.23032313990677" y="545.6867780891806" type="curve"/>
      <point x="174.2212446568803" y="545.6867780891806"/>
      <point x="134.3503719251231" y="565.7825852595736"/>
    </contour>
    <contour>
      <point x="91.95948233249428" y="379.6701428571429" type="line"/>
      <point x="386.45833730265934" y="379.6701428571429" type="line"/>
      <point x="386.45833730265934" y="431.08414285714287" type="line"/>
      <point x="91.95948233249428" y="431.08414285714287" type="line"/>
    </contour>
  </outline>
</glyph>
<glyph name="angleleft_dbl" format="2">
  <advance width="519.98424029541"/>
  <unicode hex="00AB"/>
  <outline>
    <contour>
      <point x="110.33629357910151" y="294.26499938964844" type="line"/>
      <point x="275.7389348754882" y="506.9969024658203" type="line"/>
      <point x="221.5869802246093" y="506.9969024658203" type="line"/>
      <point x="48.17599999999996" y="294.26499938964844" type="line"/>
      <point x="221.5869802246093" y="81.53309631347656" type="line"/>
      <point x="275.7389348754882" y="81.53309631347656" type="line"/>
    </contour>
    <contour>
      <point x="285.40559899902337" y="294.26499938964844" type="line"/>
      <point x="450.8082402954101" y="506.9969024658203" type="line"/>
      <point x="396.6562932739257" y="506.9969024658203" type="line"/>
      <point x="223.24531304931634" y="294.26499938964844" type="line"/>
      <point x="396.6562932739257" y="81.53309631347656" type="line"/>
      <point x="450.8082402954101" y="81.53309631347656" type="line"/>
    </contour>
  </outline>
</glyph>
<glyph name="logicalnot" format="2">
  <advance width="640.8662822265625"/>
  <unicode hex="00AC"/>
  <outline>
    <contour>
      <point x="477.570287109375" y="110.67190551757812" type="line"/>
      <point x="531.6902822265625" y="110.67190551757812" type="line"/>
      <point x="531.6902822265625" y="452.05999755859375" type="line"/>
      <point x="50.17599999999996" y="452.05999755859375" type="line"/>
      <point x="50.17599999999996" y="400.64600372314453" type="line"/>
      <point x="477.570287109375" y="400.64600372314453" type="line"/>
    </contour>
  </outline>
</glyph>
<glyph name="registered" format="2">
  <advance width="968.3519999999999"/>
  <unicode hex="00AE"/>
  <outline>
    <contour>
      <point x="924.1759999999999" y="425.0" type="curve" smooth="yes"/>
      <point x="924.1759999999999" y="667.8426088"/>
      <point x="727.0186088" y="865.0"/>
      <point x="484.176" y="865.0" type="curve" smooth="yes"/>
      <point x="241.3333912" y="865.0"/>
      <point x="44.17599999999996" y="667.8426088000001"/>
      <point x="44.17599999999996" y="425.0" type="curve" smooth="yes"/>
      <point x="44.1759999999999" y="182.15739120000003"/>
      <point x="241.33339119999988" y="-14.999999999999943"/>
      <point x="484.1759999999999" y="-15.0" type="curve" smooth="yes"/>
      <point x="727.0186088" y="-15.000000000000057"/>
      <point x="924.1759999999999" y="182.1573911999999"/>
    </contour>
    <contour>
      <point x="873.3696742896552" y="425.0" type="curve" smooth="yes"/>
      <point x="873.3696742896552" y="210.19816547055137"/>
      <point x="698.9778345294485" y="35.806325710344765"/>
      <point x="484.1759999999999" y="35.80632571034482" type="curve" smooth="yes"/>
      <point x="269.37416547055136" y="35.80632571034482"/>
      <point x="94.98232571034478" y="210.19816547055152"/>
      <point x="94.98232571034478" y="425.0" type="curve" smooth="yes"/>
      <point x="94.98232571034478" y="639.8018345294486"/>
      <point x="269.3741654705514" y="814.1936742896552"/>
      <point x="484.176" y="814.1936742896552" type="curve" smooth="yes"/>
      <point x="698.9778345294485" y="814.1936742896552"/>
      <point x="873.3696742896552" y="639.8018345294486"/>
    </contour>
    <contour>
      <point x="347.1603249086718" y="179.18632571034482" type="line"/>
      <point x="401.2353132569686" y="179.18632571034482" type="line"/>
      <point x="401.2353132569686" y="373.4546963702958" type="line"/>
      <point x="480.544157095554" y="373.4546963702958" type="line"/>
      <point x="611.2130979468498" y="179.18632571034482" type="line"/>
      <point x="674.6236982886255" y="179.18632571034482" type="line"/>
      <point x="539.379406922691" y="379.47390921623094" type="line"/>
      <point x="601.0383439600894" y="397.5918216121137"/>
      <point x="646.1076783330088" y="454.64128158188635"/>
      <point x="646.1076783330088" y="522.1341864328368" type="curve" smooth="yes"/>
      <point x="646.1076783330088" y="579.3365762223991"/>
      <point x="621.0495198458243" y="670.8136742896552"/>
      <point x="459.5258207002633" y="670.8136742896552" type="curve"/>
      <point x="347.1603249086718" y="670.8136742896552" type="line"/>
    </contour>
    <contour>
      <point x="401.2353132569686" y="423.55961048582896" type="line"/>
      <point x="401.2353132569686" y="619.4424351381368" type="line"/>
      <point x="470.33477354032965" y="619.4424351381368" type="line"/>
      <point x="572.8316959397616" y="619.4424351381368"/>
      <point x="591.9427402993119" y="560.8499704241208"/>
      <point x="591.9427402993119" y="521.5010237843819" type="curve" smooth="yes"/>
      <point x="591.9427402993119" y="482.152077144643"/>
      <point x="572.8316954939305" y="423.5596114419605"/>
      <point x="470.3347726029925" y="423.5596108708497" type="curve"/>
    </contour>
  </outline>
</glyph>
<glyph name="macron" format="2">
  <advance width="507.75152380952363"/>
  <unicode hex="00AF"/>
  <anchor x="253.87576190476182" y="981.140527164532" name="center" identifier="center"/>
  <anchor x="253.87576190476182" y="1117.348999801642" name="top" identifier="top"/>
  <outline>
    <contour>
      <point x="109.17599999999996" y="954.215827164532" type="line"/>
      <point x="398.5755238095237" y="954.215827164532" type="line"/>
      <point x="398.5755238095237" y="1008.065227164532" type="line"/>
      <point x="109.17599999999996" y="1008.065227164532" type="line"/>
    </contour>
  </outline>
</glyph>
<glyph name="degree" format="2">
  <advance width="462.2153333333332"/>
  <unicode hex="00B0"/>
  <outline>
    <contour>
      <point x="382.0393333333332" y="714.0683333333334" type="curve" smooth="yes"/>
      <point x="382.0393333333332" y="797.3697871603"/>
      <point x="314.4091204936332" y="865.0"/>
      <point x="231.1076666666666" y="865.0" type="curve" smooth="yes"/>
      <point x="147.80621283969992" y="865.0"/>
      <point x="80.17599999999996" y="797.3697871603001"/>
      <point x="80.17599999999996" y="714.0683333333334" type="curve" smooth="yes"/>
      <point x="80.17599999999996" y="630.7668795063668"/>
      <point x="147.80621283969992" y="563.1366666666668"/>
      <point x="231.10766666666655" y="563.1366666666668" type="curve" smooth="yes"/>
      <point x="314.4091204936332" y="563.1366666666668"/>
      <point x="382.03933333333316" y="630.7668795063666"/>
    </contour>
    <contour>
      <point x="327.5235615047618" y="714.0683333333334" type="curve" smooth="yes"/>
      <point x="327.5235615047618" y="659.3515012586631"/>
      <point x="284.5402312914228" y="614.9266499038096"/>
      <point x="231.1076666666666" y="614.9266499038096" type="curve" smooth="yes"/>
      <point x="177.6751020419104" y="614.9266499038096"/>
      <point x="134.6917718285714" y="659.3515012586631"/>
      <point x="134.6917718285714" y="714.0683333333334" type="curve" smooth="yes"/>
      <point x="134.6917718285714" y="768.7851654080036"/>
      <point x="177.6751020419104" y="813.2100167628572"/>
      <point x="231.1076666666666" y="813.2100167628572" type="curve" smooth="yes"/>
      <point x="284.5402312914228" y="813.2100167628572"/>
      <point x="327.5235615047618" y="768.7851654080036"/>
    </contour>
  </outline>
</glyph>
<glyph name="plusminus" format="2">
  <advance width="698.3672214285713"/>
  <unicode hex="00B1"/>
  <outline>
    <contour>
      <point x="323.1136144409179" y="244.9861068725586" type="line"/>
      <point x="375.25361383056634" y="244.9861068725586" type="line"/>
      <point x="375.25361383056634" y="453.92371368408203" type="line"/>
      <point x="584.1912206420899" y="453.92371368408203" type="line"/>
      <point x="584.1912206420899" y="506.06371307373047" type="line"/>
      <point x="375.25361383056634" y="506.06371307373047" type="line"/>
      <point x="375.25361383056634" y="715.0013275146484" type="line"/>
      <point x="323.1136144409179" y="715.0013275146484" type="line"/>
      <point x="323.1136144409179" y="506.06371307373047" type="line"/>
      <point x="114.17599999999996" y="506.06371307373047" type="line"/>
      <point x="114.17599999999996" y="453.92371368408203" type="line"/>
      <point x="323.1136144409179" y="453.92371368408203" type="line"/>
    </contour>
    <contour>
      <point x="114.17599999999996" y="134.99867500000005" type="line"/>
      <point x="584.1912214285713" y="134.99867500000005" type="line"/>
      <point x="584.1912214285713" y="187.13867500000003" type="line"/>
      <point x="114.17599999999996" y="187.13867500000003" type="line"/>
    </contour>
  </outline>
</glyph>
<glyph name="sup_two" format="2">
  <advance width="529.3411281127928"/>
  <unicode hex="00B2"/>
  <outline>
    <contour>
      <point x="84.17599999999996" y="303.57142639160156" type="line"/>
      <point x="436.1651281127929" y="303.57142639160156" type="line"/>
      <point x="436.1651281127929" y="352.8473129272461" type="line"/>
      <point x="191.5356267700195" y="352.8473129272461" type="line"/>
      <point x="347.87707889658145" y="538.1493583649232" type="line"/>
      <point x="387.7652788267126" y="585.426423630358"/>
      <point x="423.30798586111825" y="630.8537779739974"/>
      <point x="423.30798586111825" y="696.9889985824872" type="curve"/>
      <point x="423.30798586111825" y="786.7556788710302"/>
      <point x="349.6446838629247" y="859.6428571428571"/>
      <point x="258.9916207250973" y="859.6428571428571" type="curve"/>
      <point x="230.42966074508797" y="859.6428571428571"/>
      <point x="162.6354527988822" y="854.0768184979888"/>
      <point x="115.40148675537105" y="804.593376159668" type="curve"/>
      <point x="115.40148675537105" y="737.6181564331055" type="line"/>
      <point x="141.54803103917038" y="781.3547202247471"/>
      <point x="194.69998621265972" y="810.3669703842365"/>
      <point x="256.0213607110227" y="810.3669703842365" type="curve"/>
      <point x="320.15106244527" y="810.3669703842364"/>
      <point x="372.2123865008273" y="761.6204641276063"/>
      <point x="372.2123865008273" y="697.8534878238665" type="curve"/>
      <point x="372.2123865008273" y="647.9716184590061"/>
      <point x="345.9439456021588" y="616.399486696027"/>
      <point x="340.078904510498" y="609.3938255310059" type="curve"/>
      <point x="338.8720792541503" y="607.9442176818848" type="line"/>
    </contour>
  </outline>
</glyph>
<glyph name="sup_three" format="2">
  <advance width="501.95709708949494"/>
  <unicode hex="00B3"/>
  <outline>
    <contour>
      <point x="231.15711828993653" y="293.92857142857133" type="curve"/>
      <point x="337.9877969754355" y="293.92857142857133"/>
      <point x="424.56680800844475" y="374.3454357452533"/>
      <point x="424.56680800844475" y="473.6775468613652" type="curve"/>
      <point x="424.56680800844475" y="567.0458137796913"/>
      <point x="351.87709144120214" y="638.1083233358873"/>
      <point x="256.7638775460379" y="651.2334594726562" type="curve"/>
      <point x="427.78109708949495" y="850" type="line"/>
      <point x="106.07518736049103" y="850" type="line"/>
      <point x="106.07518736049103" y="800.7241134643555" type="line"/>
      <point x="322.57658353969026" y="800.7241134643555" type="line"/>
      <point x="143.02085081263948" y="593.481201171875" type="line"/>
      <point x="175.35005038412282" y="602.7091739942719"/>
      <point x="206.48496009123215" y="604.1358683796957"/>
      <point x="222.0463908529204" y="604.1358683796957" type="curve"/>
      <point x="308.6616758736925" y="604.1358683796957"/>
      <point x="372.69745352568606" y="547.3919368425857"/>
      <point x="372.69745352568606" y="473.6775468613652" type="curve"/>
      <point x="372.69745352568606" y="401.7067336122278"/>
      <point x="309.30905581002787" y="343.21922534303474"/>
      <point x="231.15711828993665" y="343.21922534303474" type="curve"/>
      <point x="173.62726941255306" y="343.21922534303474"/>
      <point x="122.3396737436258" y="366.0601657920297"/>
      <point x="89.17599999999996" y="401.61687360491067" type="curve"/>
      <point x="89.17600217982697" y="341.1152038574219" type="line"/>
      <point x="125.39527894488255" y="311.04320137759845"/>
      <point x="175.63708069140853" y="293.92857142857133"/>
    </contour>
  </outline>
</glyph>
<glyph name="acute" format="2">
  <advance width="398.0217158813475"/>
  <unicode hex="00B4"/>
  <anchor x="148.64953192875822" y="981.140527164532" name="center" identifier="center"/>
  <anchor x="148.64953192875822" y="900.9719557359606" name="bottom" identifier="bottom"/>
  <anchor x="148.64953192875822" y="1191.2886040181018" name="top" identifier="top"/>
  <outline>
    <contour>
      <point x="288.8457158813476" y="1085.9719543457031" type="line"/>
      <point x="224.62552392578118" y="1085.9719543457031" type="line"/>
      <point x="109.17599999999996" y="900.9719543457031" type="line"/>
      <point x="173.39619195556634" y="900.9719543457031" type="line"/>
    </contour>
  </outline>
</glyph>
<glyph name="micron" format="2">
  <advance width="704.770701171875"/>
  <unicode hex="00B5"/>
  <outline>
    <contour>
      <point x="162.9358965240059" y="278.2093511904762" type="curve"/>
      <point x="162.93589532470696" y="588.5299987792969" type="line"/>
      <point x="109.17599999999996" y="588.5299987792969" type="line"/>
      <point x="109.17599999999996" y="-263.5299987792969" type="line"/>
      <point x="162.93589532470696" y="-263.5299987792969" type="line"/>
      <point x="162.93589532470696" y="77.11956787109375" type="line"/>
      <point x="206.74452266556813" y="21.055551119880995"/>
      <point x="274.971687218213" y="-15.0"/>
      <point x="351.55362705254504" y="-15.000000000000021" type="curve" smooth="yes"/>
      <point x="429.11188077429193" y="-15.000000000000016"/>
      <point x="498.10097766056555" y="21.980728017054894"/>
      <point x="541.834805847168" y="79.2780532836914" type="curve"/>
      <point x="541.834805847168" y="0" type="line"/>
      <point x="595.594701171875" y="0" type="line"/>
      <point x="595.594701171875" y="588.5299987792969" type="line"/>
      <point x="541.834805847168" y="588.5299987792969" type="line"/>
      <point x="541.834805847168" y="278.2093505859375" type="line"/>
      <point x="541.834805847168" y="84.30233611190857"/>
      <point x="443.2119191650888" y="36.07190188137929"/>
      <point x="352.38535119047606" y="36.07190188137929" type="curve" smooth="yes"/>
      <point x="261.55878321586334" y="36.071901881379304"/>
      <point x="162.93589727339997" y="84.30233671644726"/>
    </contour>
  </outline>
</glyph>
<glyph name="pilcrow" format="2">
  <advance width="632.8052410249256"/>
  <unicode hex="00B6"/>
  <outline>
    <contour>
      <point x="300.8012380952381" y="-185.71428680419922" type="line"/>
      <point x="352.21523956008184" y="-185.71428680419922" type="line"/>
      <point x="352.21523956008184" y="798.5859985351562" type="line"/>
      <point x="472.2152395600819" y="798.5859985351562" type="line"/>
      <point x="472.2152395600819" y="-185.71428680419922" type="line"/>
      <point x="523.6292410249257" y="-185.71428680419922" type="line"/>
      <point x="523.6292410249257" y="850" type="line"/>
      <point x="350.8012380952381" y="850.0" type="line"/>
      <point x="81.61203394585755" y="850.0"/>
      <point x="49.17599999999996" y="674.3346011243349"/>
      <point x="49.17599999999996" y="598.3747619047618" type="curve" smooth="yes"/>
      <point x="49.17599999999997" y="459.4990135889237"/>
      <point x="161.92548977939984" y="346.7495238095237"/>
      <point x="300.80123809523803" y="346.7495238095237" type="curve"/>
    </contour>
  </outline>
</glyph>
<glyph name="interpunct" format="2">
  <advance width="315.53812897959176"/>
  <unicode hex="00B7"/>
  <outline>
    <contour>
      <point x="222.3621289795918" y="425.0" type="curve" smooth="yes"/>
      <point x="222.3621289795918" y="460.649882479747"/>
      <point x="193.4189469695429" y="489.5930644897959"/>
      <point x="157.76906448979588" y="489.5930644897959" type="curve" smooth="yes"/>
      <point x="122.11918201004889" y="489.5930644897959"/>
      <point x="93.17599999999996" y="460.649882479747"/>
      <point x="93.17599999999996" y="425.0" type="curve" smooth="yes"/>
      <point x="93.17599999999996" y="389.350117520253"/>
      <point x="122.11918201004886" y="360.4069355102041"/>
      <point x="157.76906448979588" y="360.4069355102041" type="curve" smooth="yes"/>
      <point x="193.41894696954287" y="360.4069355102041"/>
      <point x="222.3621289795918" y="389.350117520253"/>
    </contour>
  </outline>
</glyph>
<glyph name="cedilla" format="2">
  <advance width="282.9755182001022"/>
  <unicode hex="00B8"/>
  <anchor x="139.17025629534035" y="0" name="top" identifier="top"/>
  <outline>
    <contour>
      <point x="184.27971820010222" y="-166.34297955164203" type="curve"/>
      <point x="184.27971820010222" y="-203.96973146412867"/>
      <point x="152.19456969335656" y="-231.1213122413793"/>
      <point x="112.67397058105465" y="-231.1213122413793" type="curve"/>
      <point x="97.28816009288516" y="-231.1213122413793"/>
      <point x="56.523452481558365" y="-228.71313173954945"/>
      <point x="28.17599999999996" y="-205.11117553710938" type="curve"/>
      <point x="28.17599999999996" y="-256.52527618408203" type="line"/>
      <point x="61.021292338738675" y="-275.76569039141543"/>
      <point x="95.2987769347722" y="-278.5299999999999"/>
      <point x="112.67397058105462" y="-278.5299999999999" type="curve"/>
      <point x="179.5841647925681" y="-278.53"/>
      <point x="233.79951820010226" y="-228.29104876130117"/>
      <point x="233.79951820010226" y="-166.46793127577996" type="curve"/>
      <point x="233.79951833981355" y="-109.22861640304252"/>
      <point x="189.98652180822918" y="-62.67166208218841"/>
      <point x="133.23481500244137" y="-55.398101806640625" type="curve"/>
      <point x="159.56156671142574" y="0.4331817626953125" type="line"/>
      <point x="106.97182977294918" y="0.4331817626953125" type="line"/>
      <point x="49.01820886230465" y="-122.46937561035156" type="line"/>
      <point x="67.85050216831715" y="-107.72681638963735"/>
      <point x="90.00370640057972" y="-101.56464686190475"/>
      <point x="110.17397058105465" y="-101.56464686190473" type="curve"/>
      <point x="151.16859547383456" y="-101.56464686190478"/>
      <point x="184.27971820010222" y="-128.09758801292108"/>
    </contour>
  </outline>
</glyph>
<glyph name="sup_one" format="2">
  <advance width="473.7523982543944"/>
  <unicode hex="00B9"/>
  <outline>
    <contour>
      <point x="231.10595452880855" y="303.57142639160156" type="line"/>
      <point x="284.57639825439446" y="303.57142639160156" type="line"/>
      <point x="284.57639825439446" y="850" type="line"/>
      <point x="152.1006444702148" y="850" type="line"/>
      <point x="120.17599999999996" y="800.7241134643555" type="line"/>
      <point x="231.10595452880855" y="800.7241134643555" type="line"/>
    </contour>
  </outline>
</glyph>
<glyph name="ordinal_o" format="2">
  <advance width="532.5418218078455"/>
  <unicode hex="00BA"/>
  <outline>
    <contour>
      <point x="447.3658218078456" y="677.6885714285714" type="curve" smooth="yes"/>
      <point x="447.3658218078456" y="777.6375728020082"/>
      <point x="366.2199122773595" y="858.7834823324943"/>
      <point x="266.27091090392275" y="858.7834823324943" type="curve" smooth="yes"/>
      <point x="166.32190953048598" y="858.7834823324943"/>
      <point x="85.17599999999996" y="777.6375728020082"/>
      <point x="85.17599999999996" y="677.6885714285714" type="curve" smooth="yes"/>
      <point x="85.17599999999996" y="577.7395700551347"/>
      <point x="166.32190953048598" y="496.5936605246486"/>
      <point x="266.27091090392275" y="496.5936605246486" type="curve" smooth="yes"/>
      <point x="366.2199122773595" y="496.5936605246486"/>
      <point x="447.3658218078456" y="577.7395700551347"/>
    </contour>
    <contour>
      <point x="395.9465964285352" y="677.6885714285714" type="curve" smooth="yes"/>
      <point x="395.9465964285352" y="604.699720045309"/>
      <point x="338.19021370593885" y="545.4419246349935"/>
      <point x="266.27091090392275" y="545.4419246349935" type="curve" smooth="yes"/>
      <point x="194.35160810190672" y="545.4419246349935"/>
      <point x="136.5952253793103" y="604.699720045309"/>
      <point x="136.5952253793103" y="677.6885714285714" type="curve" smooth="yes"/>
      <point x="136.5952253793103" y="750.6774228118338"/>
      <point x="194.35160810190672" y="809.9352182221494"/>
      <point x="266.27091090392275" y="809.9352182221494" type="curve" smooth="yes"/>
      <point x="338.19021370593885" y="809.9352182221494"/>
      <point x="395.9465964285352" y="750.6774228118338"/>
    </contour>
    <contour>
      <point x="93.95948233249422" y="379.6701428571429" type="line"/>
      <point x="438.5823394753513" y="379.6701428571429" type="line"/>
      <point x="438.5823394753513" y="431.08414285714287" type="line"/>
      <point x="93.95948233249422" y="431.08414285714287" type="line"/>
    </contour>
  </outline>
</glyph>
<glyph name="angleright_dbl" format="2">
  <advance width="520.98424029541"/>
  <unicode hex="00BB"/>
  <outline>
    <contour>
      <point x="472.8082402954101" y="294.26499938964844" type="line"/>
      <point x="299.3972600708007" y="506.9969024658203" type="line"/>
      <point x="245.24530541992183" y="506.9969024658203" type="line"/>
      <point x="410.64795434570306" y="294.26499938964844" type="line"/>
      <point x="245.24530541992183" y="81.53309631347656" type="line"/>
      <point x="299.3972600708007" y="81.53309631347656" type="line"/>
    </contour>
    <contour>
      <point x="297.7389348754882" y="294.26499938964844" type="line"/>
      <point x="124.32795465087887" y="506.9969024658203" type="line"/>
      <point x="70.17599999999996" y="506.9969024658203" type="line"/>
      <point x="235.57864129638668" y="294.26499938964844" type="line"/>
      <point x="70.17599999999996" y="81.53309631347656" type="line"/>
      <point x="124.32795465087887" y="81.53309631347656" type="line"/>
    </contour>
  </outline>
</glyph>
<glyph name="one_over_four" format="2">
  <advance width="1013.2452640174051"/>
  <unicode hex="00BC"/>
  <outline>
    <contour>
      <point x="133.8769769635293" y="0" type="line"/>
      <point x="198.75420474673243" y="0" type="line"/>
      <point x="837.360642429838" y="850" type="line"/>
      <point x="772.4834146466349" y="850" type="line"/>
    </contour>
    <contour>
      <point x="196.10595452880855" y="303.57142639160156" type="line"/>
      <point x="249.5763982543945" y="303.57142639160156" type="line"/>
      <point x="249.5763982543945" y="850" type="line"/>
      <point x="117.1006444702148" y="850" type="line"/>
      <point x="85.17599999999996" y="800.7241134643555" type="line"/>
      <point x="196.10595452880855" y="800.7241134643555" type="line"/>
    </contour>
    <contour>
      <point x="533.65357645637" y="151.90623474121094" type="line"/>
      <point x="837.9141965735575" y="151.90623474121094" type="line"/>
      <point x="837.9141965735575" y="0" type="line"/>
      <point x="889.7835508216044" y="0" type="line"/>
      <point x="889.7835508216044" y="151.90623474121094" type="line"/>
      <point x="954.0692640174052" y="151.90623474121094" type="line"/>
      <point x="954.0692640174052" y="200.32088470458984" type="line"/>
      <point x="889.7835508216044" y="200.32088470458984" type="line"/>
      <point x="889.7835508216044" y="390.3061218261719" type="line"/>
      <point x="837.9141965735575" y="390.3061218261719" type="line"/>
      <point x="837.9141965735575" y="200.32088470458984" type="line"/>
      <point x="625.9273267615458" y="200.32088470458984" type="line"/>
      <point x="857.7375837195536" y="546.4285736083984" type="line"/>
      <point x="796.7666288245341" y="546.4285736083984" type="line"/>
    </contour>
  </outline>
</glyph>
<glyph name="one_over_two" format="2">
  <advance width="1081.031984293284"/>
  <unicode hex="00BD"/>
  <outline>
    <contour>
      <point x="133.8769769635293" y="0" type="line"/>
      <point x="198.75420474673243" y="0" type="line"/>
      <point x="837.360642429838" y="850" type="line"/>
      <point x="772.4834146466349" y="850" type="line"/>
    </contour>
    <contour>
      <point x="196.10595452880855" y="303.57142639160156" type="line"/>
      <point x="249.5763982543945" y="303.57142639160156" type="line"/>
      <point x="249.5763982543945" y="850" type="line"/>
      <point x="117.1006444702148" y="850" type="line"/>
      <point x="85.17599999999996" y="800.7241134643555" type="line"/>
      <point x="196.10595452880855" y="800.7241134643555" type="line"/>
    </contour>
    <contour>
      <point x="637.8668561804911" y="0" type="line"/>
      <point x="989.8559842932841" y="0" type="line"/>
      <point x="989.8559842932841" y="49.27588653564453" type="line"/>
      <point x="745.2264829505107" y="49.27588653564453" type="line"/>
      <point x="901.567939748629" y="234.57793751023416" type="line"/>
      <point x="941.4561396787602" y="281.855002775669"/>
      <point x="976.9988420416094" y="327.2823494025688"/>
      <point x="976.9988420416094" y="393.4175700110587" type="curve"/>
      <point x="976.9988420416094" y="483.1842502996018"/>
      <point x="903.3355400434157" y="556.0714285714287"/>
      <point x="812.6824769055884" y="556.0714285714287" type="curve"/>
      <point x="784.1205169255791" y="556.0714285714287"/>
      <point x="716.3263105173793" y="550.5053906382977"/>
      <point x="669.0923429358622" y="501.0219497680664" type="curve"/>
      <point x="669.0923429358622" y="434.0467300415039" type="line"/>
      <point x="695.2388881796983" y="477.7832932592174"/>
      <point x="748.3908423931509" y="506.795541812808"/>
      <point x="809.7122168915139" y="506.79554181280787" type="curve"/>
      <point x="873.8419186257611" y="506.7955418128079"/>
      <point x="925.9032426813185" y="458.0490355561777"/>
      <point x="925.9032426813185" y="394.282059252438" type="curve"/>
      <point x="925.9032426813185" y="344.4001898875776"/>
      <point x="899.6348020945974" y="312.8280600432675"/>
      <point x="893.7697606909892" y="305.8223991394043" type="curve"/>
      <point x="892.5629354346415" y="304.3727912902832" type="line"/>
    </contour>
  </outline>
</glyph>
<glyph name="three_over_four" format="2">
  <advance width="1104.3476134349553"/>
  <unicode hex="00BE"/>
  <outline>
    <contour>
      <point x="224.97932638107952" y="0" type="line"/>
      <point x="289.85655416428267" y="0" type="line"/>
      <point x="928.4629918473881" y="850" type="line"/>
      <point x="863.585764064185" y="850" type="line"/>
    </contour>
    <contour>
      <point x="231.15711828993653" y="293.92857142857133" type="curve"/>
      <point x="337.98779697543546" y="293.92857142857133"/>
      <point x="424.5668080084447" y="374.3454357452533"/>
      <point x="424.5668080084447" y="473.6775468613652" type="curve"/>
      <point x="424.5668080084447" y="567.0458137796913"/>
      <point x="351.8770914412021" y="638.1083233358873"/>
      <point x="256.76387754603786" y="651.2334594726562" type="curve"/>
      <point x="427.7810970894949" y="850" type="line"/>
      <point x="106.07518736049101" y="850" type="line"/>
      <point x="106.07518736049101" y="800.7241134643555" type="line"/>
      <point x="322.5765835396902" y="800.7241134643555" type="line"/>
      <point x="143.02085081263945" y="593.481201171875" type="line"/>
      <point x="175.3500503841228" y="602.7091739942719"/>
      <point x="206.48496009123213" y="604.1358683796957"/>
      <point x="222.0463908529204" y="604.1358683796957" type="curve"/>
      <point x="308.6616758736925" y="604.1358683796957"/>
      <point x="372.6974535256861" y="547.3919368425857"/>
      <point x="372.6974535256861" y="473.6775468613652" type="curve"/>
      <point x="372.6974535256861" y="401.7067336122278"/>
      <point x="309.30905581002787" y="343.21922534303474"/>
      <point x="231.15711828993662" y="343.21922534303474" type="curve"/>
      <point x="173.62726941255306" y="343.21922534303474"/>
      <point x="122.33967374362581" y="366.0601657920297"/>
      <point x="89.17599999999996" y="401.61687360491067" type="curve"/>
      <point x="89.17600217982695" y="341.1152038574219" type="line"/>
      <point x="125.39527894488253" y="311.04320137759845"/>
      <point x="175.6370806914085" y="293.92857142857133"/>
    </contour>
    <contour>
      <point x="624.7559258739202" y="151.90623474121094" type="line"/>
      <point x="929.0165459911077" y="151.90623474121094" type="line"/>
      <point x="929.0165459911077" y="0" type="line"/>
      <point x="980.8859002391546" y="0" type="line"/>
      <point x="980.8859002391546" y="151.90623474121094" type="line"/>
      <point x="1045.1716134349554" y="151.90623474121094" type="line"/>
      <point x="1045.1716134349554" y="200.32088470458984" type="line"/>
      <point x="980.8859002391546" y="200.32088470458984" type="line"/>
      <point x="980.8859002391546" y="390.3061218261719" type="line"/>
      <point x="929.0165459911077" y="390.3061218261719" type="line"/>
      <point x="929.0165459911077" y="200.32088470458984" type="line"/>
      <point x="717.029676179096" y="200.32088470458984" type="line"/>
      <point x="948.8399331371038" y="546.4285736083984" type="line"/>
      <point x="887.8689782420843" y="546.4285736083984" type="line"/>
    </contour>
  </outline>
</glyph>
<glyph name="inv_question" format="2">
  <advance width="523.3312861938475"/>
  <unicode hex="00BF"/>
  <outline>
    <contour>
      <point x="308.6450821309811" y="538.9369355102041" type="curve" smooth="yes"/>
      <point x="308.6450821309811" y="503.28705303045706"/>
      <point x="337.58826414103" y="474.3438710204082"/>
      <point x="373.238146620777" y="474.3438710204082" type="curve" smooth="yes"/>
      <point x="408.888029100524" y="474.34387102040813"/>
      <point x="437.8312111105729" y="503.28705303045706"/>
      <point x="437.8312111105729" y="538.9369355102041" type="curve" smooth="yes"/>
      <point x="437.8312111105729" y="574.5868179899511"/>
      <point x="408.888029100524" y="603.53"/>
      <point x="373.238146620777" y="603.53" type="curve" smooth="yes"/>
      <point x="337.58826414103" y="603.53"/>
      <point x="308.6450821309811" y="574.5868179899511"/>
    </contour>
    <contour>
      <point x="319.16564333670465" y="182.0952857142857" type="curve"/>
      <point x="341.6679179561934" y="182.09528567241304"/>
      <point x="368.63880654531545" y="179.15366157466124"/>
      <point x="397.5758184204101" y="169.7522201538086" type="curve"/>
      <point x="395.65242517089837" y="380.1678695678711" type="line"/>
      <point x="350.8238729248046" y="380.1678695678711" type="line"/>
      <point x="348.1127141723632" y="231.8701400756836" type="line"/>
      <point x="335.74503889927985" y="233.28453079158146"/>
      <point x="325.6012258308424" y="233.5092857142857"/>
      <point x="319.16564333670476" y="233.50928571428568" type="curve"/>
      <point x="170.06605212403784" y="233.50928571428577"/>
      <point x="49.17600047956181" y="119.62567557906186"/>
      <point x="49.17600047956179" y="-21.480357142857088" type="curve"/>
      <point x="103.29600274658199" y="-21.48035430908203" type="line"/>
      <point x="103.2960004795618" y="90.97799158719026"/>
      <point x="200.0293425332612" y="182.09528571428572"/>
    </contour>
    <contour>
      <point x="103.2960004795618" y="-21.4803571428572" type="curve"/>
      <point x="49.17599999999996" y="-21.480361938476562" type="line"/>
      <point x="49.17600047956175" y="-162.21297098015003"/>
      <point x="163.43302949941167" y="-276.47"/>
      <point x="304.16564333670465" y="-276.47" type="curve"/>
      <point x="366.78719522553524" y="-276.47"/>
      <point x="424.26027414470957" y="-254.83743090047415"/>
      <point x="469.1552861938476" y="-218.69271850585938" type="curve"/>
      <point x="469.1552861938476" y="-156.53030395507812" type="line"/>
      <point x="427.2230421099206" y="-198.88808068215917"/>
      <point x="368.7721272547982" y="-225.05600000000015"/>
      <point x="304.16564333670465" y="-225.05600000000015" type="curve"/>
      <point x="192.03430050823292" y="-225.05600000000004"/>
      <point x="103.29600047956174" y="-133.82869106663605"/>
    </contour>
  </outline>
</glyph>
<glyph name="A_with_grave" format="2">
  <advance width="825.875811340332"/>
  <unicode hex="00C0"/>
  <outline>
    <contour>
      <point x="272.74171840847777" y="1085.9719543457031" type="line"/>
      <point x="388.191242334259" y="900.9719543457031" type="line"/>
      <point x="452.4114342898254" y="900.9719543457031" type="line"/>
      <point x="336.9619103640442" y="1085.9719543457031" type="line"/>
    </contour>
    <contour>
      <point x="8.17599999999996" y="0" type="line"/>
      <point x="64.48720300292963" y="0" type="line"/>
      <point x="178.34523522949212" y="245.0202407836914" type="line"/>
      <point x="644.563191772461" y="245.0202407836914" type="line"/>
      <point x="758.4212239990235" y="0" type="line"/>
      <point x="817.6998113403321" y="0" type="line"/>
      <point x="681.8154577026368" y="292.07142639160156" type="line"/>
      <point x="681.8154577026368" y="295.7500457763672" type="line"/>
      <point x="680.1040014038086" y="295.7500457763672" type="line"/>
      <point x="412.93790185546874" y="870" type="line"/>
      <point x="145.77180230712884" y="295.7500457763672" type="line"/>
      <point x="144.06035363769524" y="295.7500457763672" type="line"/>
      <point x="144.06035363769524" y="292.0714340209961" type="line"/>
    </contour>
    <contour>
      <point x="411.45421350097655" y="746.6661911010742" type="line"/>
      <point x="620.9896520385743" y="295.7500457763672" type="line"/>
      <point x="201.91877496337884" y="295.7500457763672" type="line"/>
    </contour>
  </outline>
</glyph>
<glyph name="A_with_tildeabove" format="2">
  <advance width="825.875811340332"/>
  <unicode hex="00C3"/>
  <outline>
    <contour>
      <point x="341.86164913508253" y="979.1031229987835" type="curve"/>
      <point x="361.2140239152026" y="979.1031229987838"/>
      <point x="374.67951897512177" y="971.1637029867178"/>
      <point x="394.1407457820759" y="958.9662751284183" type="curve"/>
      <point x="398.37739156499714" y="956.3109347528626" type="line"/>
      <point x="423.9055636117943" y="940.3110165573764"/>
      <point x="450.6031495888507" y="924.8231959588519"/>
      <point x="484.0141603887269" y="924.8231959588519" type="curve"/>
      <point x="515.2747485830839" y="924.8231959588519"/>
      <point x="542.9671841519668" y="940.2217800085401"/>
      <point x="559.9136205706295" y="963.8839874267578" type="curve"/>
      <point x="559.9136205706295" y="1032.0552368164062" type="line"/>
      <point x="549.1114158965686" y="1000.4626820252206"/>
      <point x="519.1924276805712" y="977.7659313302804"/>
      <point x="484.0141603887268" y="977.7659313302805" type="curve"/>
      <point x="464.66178560860675" y="977.7659313302803"/>
      <point x="451.1962898786276" y="985.7053503691925"/>
      <point x="431.73506338885676" y="997.902778733564" type="curve"/>
      <point x="427.4984176749853" y="1000.5581192192898" type="line"/>
      <point x="401.9702460442517" y="1016.5580380786132"/>
      <point x="375.27265993495877" y="1032.0458583702123"/>
      <point x="341.86164913508253" y="1032.0458583702123" type="curve"/>
      <point x="310.6010609407256" y="1032.0458583702123"/>
      <point x="282.90862661127557" y="1016.6472760511367"/>
      <point x="265.96218929621534" y="992.9850692749023" type="curve"/>
      <point x="265.96218929621534" y="924.8138198852539" type="line"/>
      <point x="276.7643943894757" y="956.4063745331058"/>
      <point x="306.68338184323824" y="979.1031229987836"/>
    </contour>
    <contour>
      <point x="8.17599999999996" y="0" type="line"/>
      <point x="64.48720300292963" y="0" type="line"/>
      <point x="178.34523522949212" y="245.0202407836914" type="line"/>
      <point x="644.563191772461" y="245.0202407836914" type="line"/>
      <point x="758.4212239990235" y="0" type="line"/>
      <point x="817.6998113403321" y="0" type="line"/>
      <point x="681.8154577026368" y="292.07142639160156" type="line"/>
      <point x="681.8154577026368" y="295.7500457763672" type="line"/>
      <point x="680.1040014038086" y="295.7500457763672" type="line"/>
      <point x="412.93790185546874" y="870" type="line"/>
      <point x="145.77180230712884" y="295.7500457763672" type="line"/>
      <point x="144.06035363769524" y="295.7500457763672" type="line"/>
      <point x="144.06035363769524" y="292.0714340209961" type="line"/>
    </contour>
    <contour>
      <point x="411.45421350097655" y="746.6661911010742" type="line"/>
      <point x="620.9896520385743" y="295.7500457763672" type="line"/>
      <point x="201.91877496337884" y="295.7500457763672" type="line"/>
    </contour>
  </outline>
</glyph>
<glyph name="A_with_ring" format="2">
  <advance width="825.875811340332"/>
  <unicode hex="00C5"/>
  <outline>
    <contour>
      <point x="526.5100476190477" y="1011.140527164532" type="curve" smooth="yes"/>
      <point x="526.5100476190477" y="1073.822698660975"/>
      <point x="475.6200762583475" y="1124.712670021675"/>
      <point x="412.9379047619047" y="1124.712670021675" type="curve" smooth="yes"/>
      <point x="350.25573326546186" y="1124.712670021675"/>
      <point x="299.3657619047618" y="1073.822698660975"/>
      <point x="299.3657619047618" y="1011.140527164532" type="curve" smooth="yes"/>
      <point x="299.3657619047618" y="948.4583556680892"/>
      <point x="350.2557332654618" y="897.5683843073892"/>
      <point x="412.9379047619047" y="897.5683843073892" type="curve" smooth="yes"/>
      <point x="475.6200762583475" y="897.5683843073891"/>
      <point x="526.5100476190477" y="948.4583556680892"/>
    </contour>
    <contour>
      <point x="479.20978613333335" y="1011.140527164532" type="curve" smooth="yes"/>
      <point x="479.20978613333335" y="974.5640804319823"/>
      <point x="449.5143514944544" y="944.8686457931035"/>
      <point x="412.9379047619047" y="944.8686457931035" type="curve" smooth="yes"/>
      <point x="376.36145802935505" y="944.8686457931035"/>
      <point x="346.6660233904761" y="974.5640804319825"/>
      <point x="346.6660233904761" y="1011.140527164532" type="curve" smooth="yes"/>
      <point x="346.6660233904761" y="1047.7169738970817"/>
      <point x="376.36145802935505" y="1077.4124085359606"/>
      <point x="412.9379047619047" y="1077.4124085359606" type="curve" smooth="yes"/>
      <point x="449.5143514944544" y="1077.4124085359606"/>
      <point x="479.20978613333335" y="1047.7169738970817"/>
    </contour>
    <contour>
      <point x="8.17599999999996" y="0" type="line"/>
      <point x="64.48720300292963" y="0" type="line"/>
      <point x="178.34523522949212" y="245.0202407836914" type="line"/>
      <point x="644.563191772461" y="245.0202407836914" type="line"/>
      <point x="758.4212239990235" y="0" type="line"/>
      <point x="817.6998113403321" y="0" type="line"/>
      <point x="681.8154577026368" y="292.07142639160156" type="line"/>
      <point x="681.8154577026368" y="295.7500457763672" type="line"/>
      <point x="680.1040014038086" y="295.7500457763672" type="line"/>
      <point x="412.93790185546874" y="870" type="line"/>
      <point x="145.77180230712884" y="295.7500457763672" type="line"/>
      <point x="144.06035363769524" y="295.7500457763672" type="line"/>
      <point x="144.06035363769524" y="292.0714340209961" type="line"/>
    </contour>
    <contour>
      <point x="411.45421350097655" y="746.6661911010742" type="line"/>
      <point x="620.9896520385743" y="295.7500457763672" type="line"/>
      <point x="201.91877496337884" y="295.7500457763672" type="line"/>
    </contour>
  </outline>
</glyph>
<glyph name="C_with_cedilla" format="2">
  <advance width="825.9166031266551"/>
  <unicode hex="00C7"/>
  <outline>
    <contour>
      <point x="44.65057627118641" y="425.0" type="curve" smooth="yes"/>
      <point x="44.65057627118641" y="198.9211792352818"/>
      <point x="213.5732147292036" y="16.296246617257566"/>
      <point x="431.9793802872997" y="-11.363876342773438" type="curve"/>
      <point x="379.5885569230419" y="-122.46937561035156" type="line"/>
      <point x="398.42747947498515" y="-107.72162480016961"/>
      <point x="420.5839314946353" y="-101.56464686190475"/>
      <point x="440.7443163775904" y="-101.56464686190473" type="curve"/>
      <point x="481.7389412703702" y="-101.56464686190478"/>
      <point x="514.850063996638" y="-128.09758801292108"/>
      <point x="514.850063996638" y="-166.34297955164203" type="curve"/>
      <point x="514.850063996638" y="-203.96973146412867"/>
      <point x="482.76491548989225" y="-231.1213122413793"/>
      <point x="443.2443163775904" y="-231.1213122413793" type="curve"/>
      <point x="427.85850588942094" y="-231.1213122413793"/>
      <point x="387.093798278094" y="-228.71313173954945"/>
      <point x="358.7463457965357" y="-205.11117553710938" type="curve"/>
      <point x="358.7463480607372" y="-256.52527618408203" type="line"/>
      <point x="391.59163959482464" y="-275.76569176503466"/>
      <point x="425.8691227313079" y="-278.5299999999999"/>
      <point x="443.2443163775904" y="-278.5299999999999" type="curve"/>
      <point x="510.1545105891038" y="-278.53"/>
      <point x="564.369863996638" y="-228.29104876130117"/>
      <point x="564.369863996638" y="-166.46793127577996" type="curve"/>
      <point x="564.3698641363493" y="-109.22861640304252"/>
      <point x="520.5568676047649" y="-62.671662082188405"/>
      <point x="463.8051607989771" y="-55.398101806640625" type="curve"/>
      <point x="482.87951151288564" y="-14.947021484375" type="line"/>
      <point x="485.162232365964" y="-14.983093086969355"/>
      <point x="487.4494070956981" y="-15.000000000000002"/>
      <point x="489.7406020918761" y="-15.000000000000004" type="curve"/>
      <point x="590.7835509679912" y="-15.0"/>
      <point x="684.0060702858041" y="17.903262169466366"/>
      <point x="758.7406031266552" y="73.74042510986328" type="curve"/>
      <point x="758.7406031266552" y="138.46852111816406" type="line"/>
      <point x="687.3760358790046" y="74.9597187175977"/>
      <point x="593.0733876038739" y="36.50402582068968"/>
      <point x="489.7406020918761" y="36.504025820689705" type="curve"/>
      <point x="275.40835456344576" y="36.50402582068968"/>
      <point x="104.29098505542291" y="210.57810793580464"/>
      <point x="104.29098505542291" y="425.0" type="curve" smooth="yes"/>
      <point x="104.29098505542291" y="639.4218920641955"/>
      <point x="275.40835456344576" y="813.4959741793103"/>
      <point x="489.7406020918761" y="813.4959741793103" type="curve"/>
      <point x="593.0733634876023" y="813.4959728628065"/>
      <point x="687.3759911537462" y="775.0402989445953"/>
      <point x="758.7406031266552" y="711.5305709838867" type="curve"/>
      <point x="758.7406031266552" y="776.2557601928711" type="line"/>
      <point x="684.006070285804" y="832.0967378305336"/>
      <point x="590.7835509679911" y="865.0"/>
      <point x="489.740602091876" y="865.0" type="curve"/>
      <point x="244.08873158924965" y="865.0"/>
      <point x="44.65057627118641" y="670.6518705026265"/>
    </contour>
  </outline>
</glyph>
<glyph name="E_with_grave" format="2">
  <advance width="657.4772365112304"/>
  <unicode hex="00C8"/>
  <outline>
    <contour>
      <point x="202.73368269419205" y="1085.9719543457031" type="line"/>
      <point x="318.1832066199733" y="900.9719543457031" type="line"/>
      <point x="382.4033985755397" y="900.9719543457031" type="line"/>
      <point x="266.95387464975846" y="1085.9719543457031" type="line"/>
    </contour>
    <contour>
      <point x="109.17599999999996" y="0" type="line"/>
      <point x="573.3012365112305" y="0" type="line"/>
      <point x="573.3012365112305" y="51.41400146484375" type="line"/>
      <point x="163.29600274658196" y="51.41400146484375" type="line"/>
      <point x="163.29600274658196" y="404.8526077270508" type="line"/>
      <point x="543.3012365112305" y="404.8526077270508" type="line"/>
      <point x="543.3012365112305" y="455.1473922729492" type="line"/>
      <point x="163.29600274658196" y="455.1473922729492" type="line"/>
      <point x="163.29600274658196" y="798.5859985351562" type="line"/>
      <point x="573.3012365112305" y="798.5859985351562" type="line"/>
      <point x="573.3012365112305" y="850" type="line"/>
      <point x="109.17599999999996" y="850" type="line"/>
    </contour>
  </outline>
</glyph>
<glyph name="E_with_acute" format="2">
  <advance width="657.4772365112304"/>
  <unicode hex="00C9"/>
  <outline>
    <contour>
      <point x="483.1260530002084" y="1085.9719543457031" type="line"/>
      <point x="418.905861044642" y="1085.9719543457031" type="line"/>
      <point x="303.45633711886074" y="900.9719543457031" type="line"/>
      <point x="367.67652907442715" y="900.9719543457031" type="line"/>
    </contour>
    <contour>
      <point x="109.17599999999996" y="0" type="line"/>
      <point x="573.3012365112305" y="0" type="line"/>
      <point x="573.3012365112305" y="51.41400146484375" type="line"/>
      <point x="163.29600274658196" y="51.41400146484375" type="line"/>
      <point x="163.29600274658196" y="404.8526077270508" type="line"/>
      <point x="543.3012365112305" y="404.8526077270508" type="line"/>
      <point x="543.3012365112305" y="455.1473922729492" type="line"/>
      <point x="163.29600274658196" y="455.1473922729492" type="line"/>
      <point x="163.29600274658196" y="798.5859985351562" type="line"/>
      <point x="573.3012365112305" y="798.5859985351562" type="line"/>
      <point x="573.3012365112305" y="850" type="line"/>
      <point x="109.17599999999996" y="850" type="line"/>
    </contour>
  </outline>
</glyph>
<glyph name="E_with_circumflex" format="2">
  <advance width="657.4772365112304"/>
  <unicode hex="00CA"/>
  <outline>
    <contour>
      <point x="190.0686309523809" y="915.6285705566406" type="line"/>
      <point x="261.57602383568167" y="915.6285705566406" type="line"/>
      <point x="342.9298675246465" y="993.7723999023438" type="line"/>
      <point x="424.28371121361135" y="915.6285705566406" type="line"/>
      <point x="495.79110409691214" y="915.6285705566406" type="line"/>
      <point x="342.9298675246465" y="1061.2107009887695" type="line"/>
    </contour>
    <contour>
      <point x="109.17599999999996" y="0" type="line"/>
      <point x="573.3012365112305" y="0" type="line"/>
      <point x="573.3012365112305" y="51.41400146484375" type="line"/>
      <point x="163.29600274658196" y="51.41400146484375" type="line"/>
      <point x="163.29600274658196" y="404.8526077270508" type="line"/>
      <point x="543.3012365112305" y="404.8526077270508" type="line"/>
      <point x="543.3012365112305" y="455.1473922729492" type="line"/>
      <point x="163.29600274658196" y="455.1473922729492" type="line"/>
      <point x="163.29600274658196" y="798.5859985351562" type="line"/>
      <point x="573.3012365112305" y="798.5859985351562" type="line"/>
      <point x="573.3012365112305" y="850" type="line"/>
      <point x="109.17599999999996" y="850" type="line"/>
    </contour>
  </outline>
</glyph>
<glyph name="E_with_diaeresis" format="2">
  <advance width="657.4772365112304"/>
  <unicode hex="00CB"/>
  <outline>
    <contour>
      <point x="300.1644245490968" y="981.140527164532" type="curve" smooth="yes"/>
      <point x="300.1644245490968" y="1006.8275895449641"/>
      <point x="279.3097885709082" y="1027.6822255231527"/>
      <point x="253.62272619047616" y="1027.6822255231527" type="curve" smooth="yes"/>
      <point x="227.93566381004405" y="1027.6822255231527"/>
      <point x="207.08102783185547" y="1006.8275895449641"/>
      <point x="207.08102783185547" y="981.140527164532" type="curve" smooth="yes"/>
      <point x="207.08102783185547" y="955.4534647841"/>
      <point x="227.93566381004405" y="934.5988288059114"/>
      <point x="253.62272619047616" y="934.5988288059114" type="curve" smooth="yes"/>
      <point x="279.3097885709082" y="934.5988288059114"/>
      <point x="300.1644245490968" y="955.4534647841"/>
    </contour>
    <contour>
      <point x="478.7787102633825" y="981.140527164532" type="curve" smooth="yes"/>
      <point x="478.7787102633825" y="1006.8275895449641"/>
      <point x="457.9240742851939" y="1027.6822255231527"/>
      <point x="432.23701190476186" y="1027.6822255231527" type="curve" smooth="yes"/>
      <point x="406.54994952432975" y="1027.6822255231527"/>
      <point x="385.69531354614116" y="1006.8275895449641"/>
      <point x="385.69531354614116" y="981.140527164532" type="curve" smooth="yes"/>
      <point x="385.69531354614116" y="955.4534647841"/>
      <point x="406.5499495243297" y="934.5988288059114"/>
      <point x="432.23701190476186" y="934.5988288059114" type="curve" smooth="yes"/>
      <point x="457.9240742851939" y="934.5988288059114"/>
      <point x="478.7787102633825" y="955.4534647841"/>
    </contour>
    <contour>
      <point x="109.17599999999996" y="0" type="line"/>
      <point x="573.3012365112305" y="0" type="line"/>
      <point x="573.3012365112305" y="51.41400146484375" type="line"/>
      <point x="163.29600274658196" y="51.41400146484375" type="line"/>
      <point x="163.29600274658196" y="404.8526077270508" type="line"/>
      <point x="543.3012365112305" y="404.8526077270508" type="line"/>
      <point x="543.3012365112305" y="455.1473922729492" type="line"/>
      <point x="163.29600274658196" y="455.1473922729492" type="line"/>
      <point x="163.29600274658196" y="798.5859985351562" type="line"/>
      <point x="573.3012365112305" y="798.5859985351562" type="line"/>
      <point x="573.3012365112305" y="850" type="line"/>
      <point x="109.17599999999996" y="850" type="line"/>
    </contour>
  </outline>
</glyph>
<glyph name="I_with_grave" format="2">
  <advance width="273.0217158813475"/>
  <unicode hex="00CC"/>
  <outline>
    <contour>
      <point x="-3.8240000000000407" y="1085.9719543457031" type="line"/>
      <point x="111.6255239257812" y="900.9719543457031" type="line"/>
      <point x="175.8457158813476" y="900.9719543457031" type="line"/>
      <point x="60.39619195556635" y="1085.9719543457031" type="line"/>
    </contour>
    <contour>
      <point x="108.93791049135793" y="0" type="line"/>
      <point x="163.80646221549586" y="0" type="line"/>
      <point x="163.80646221549586" y="850" type="line"/>
      <point x="108.93791049135793" y="850" type="line"/>
    </contour>
  </outline>
</glyph>
<glyph name="I_with_acute" format="2">
  <advance width="273.0217158813475"/>
  <unicode hex="00CD"/>
  <outline>
    <contour>
      <point x="276.8457158813476" y="1085.9719543457031" type="line"/>
      <point x="212.62552392578118" y="1085.9719543457031" type="line"/>
      <point x="97.17599999999996" y="900.9719543457031" type="line"/>
      <point x="161.39619195556634" y="900.9719543457031" type="line"/>
    </contour>
    <contour>
      <point x="109.21525606668925" y="0" type="line"/>
      <point x="164.08380779082717" y="0" type="line"/>
      <point x="164.08380779082717" y="850" type="line"/>
      <point x="109.21525606668925" y="850" type="line"/>
    </contour>
  </outline>
</glyph>
<glyph name="I_with_circumflex" format="2">
  <advance width="272.0744731445311"/>
  <unicode hex="00CE"/>
  <outline>
    <contour>
      <point x="-16.82400000000004" y="915.6285705566406" type="line"/>
      <point x="54.683392883300726" y="915.6285705566406" type="line"/>
      <point x="136.03723657226556" y="993.7723999023438" type="line"/>
      <point x="217.3910802612304" y="915.6285705566406" type="line"/>
      <point x="288.8984731445312" y="915.6285705566406" type="line"/>
      <point x="136.03723657226556" y="1061.2107009887695" type="line"/>
    </contour>
    <contour>
      <point x="108.6029622331691" y="0" type="line"/>
      <point x="163.47151395730702" y="0" type="line"/>
      <point x="163.47151395730702" y="850" type="line"/>
      <point x="108.6029622331691" y="850" type="line"/>
    </contour>
  </outline>
</glyph>
<glyph name="ETH" format="2">
  <advance width="842.4495299332315"/>
  <unicode hex="00D0"/>
  <outline>
    <contour>
      <point x="115.91329183799338" y="0" type="line"/>
      <point x="323.2735289595754" y="0.0" type="line"/>
      <point x="692.6620357276751" y="0.0"/>
      <point x="798.2735299332315" y="256.7962183282797"/>
      <point x="798.2735299332315" y="425.0" type="curve" smooth="yes"/>
      <point x="798.2735299332315" y="593.2037816717203"/>
      <point x="692.6620367013311" y="850.0"/>
      <point x="323.27352993323143" y="850.0" type="curve"/>
      <point x="115.91329183799338" y="850" type="line"/>
      <point x="115.91329183799338" y="450.1473922729492" type="line"/>
      <point x="-10.192421052631616" y="450.1473922729492" type="line"/>
      <point x="-10.192421052631616" y="399.8526077270508" type="line"/>
      <point x="115.91329183799338" y="399.8526077270508" type="line"/>
    </contour>
    <contour>
      <point x="170.0332945845754" y="51.41400146484375" type="line"/>
      <point x="170.0332945845754" y="399.8526077270508" type="line"/>
      <point x="391.8675765059621" y="399.8526077270508" type="line"/>
      <point x="391.8675765059621" y="450.1473922729492" type="line"/>
      <point x="170.0332945845754" y="450.1473922729492" type="line"/>
      <point x="170.0332945845754" y="798.5859985351562" type="line"/>
      <point x="321.9205321334035" y="798.5859985351562" type="line"/>
      <point x="657.6505352498426" y="798.5859985351562"/>
      <point x="743.9734782918521" y="570.4162031099484"/>
      <point x="743.9734782918521" y="425.0" type="curve" smooth="yes"/>
      <point x="743.9734782918521" y="279.5837968900516"/>
      <point x="657.6505330496703" y="51.41399792681387"/>
      <point x="321.9205299332314" y="51.4140003627876" type="curve"/>
    </contour>
  </outline>
</glyph>
<glyph name="N_with_tildeabove" format="2">
  <advance width="926.6853358764648"/>
  <unicode hex="00D1"/>
  <outline>
    <contour>
      <point x="392.26641103984446" y="979.1031229987835" type="curve"/>
      <point x="411.6187858199645" y="979.1031229987838"/>
      <point x="425.0842808798837" y="971.1637029867178"/>
      <point x="444.5455076868378" y="958.9662751284183" type="curve"/>
      <point x="448.78215346975907" y="956.3109347528626" type="line"/>
      <point x="474.31032551655625" y="940.3110165573764"/>
      <point x="501.0079114936126" y="924.8231959588519"/>
      <point x="534.4189222934889" y="924.8231959588519" type="curve"/>
      <point x="565.6795104878458" y="924.8231959588519"/>
      <point x="593.3719460567287" y="940.2217800085401"/>
      <point x="610.3183824753914" y="963.8839874267578" type="curve"/>
      <point x="610.3183824753914" y="1032.0552368164062" type="line"/>
      <point x="599.5161778013305" y="1000.4626820252206"/>
      <point x="569.5971895853331" y="977.7659313302804"/>
      <point x="534.4189222934888" y="977.7659313302805" type="curve"/>
      <point x="515.0665475133687" y="977.7659313302803"/>
      <point x="501.6010517833895" y="985.7053503691925"/>
      <point x="482.1398252936186" y="997.902778733564" type="curve"/>
      <point x="477.9031795797472" y="1000.5581192192898" type="line"/>
      <point x="452.3750079490136" y="1016.5580380786133"/>
      <point x="425.6774218397207" y="1032.0458583702123"/>
      <point x="392.26641103984446" y="1032.0458583702123" type="curve"/>
      <point x="361.0058228454875" y="1032.0458583702123"/>
      <point x="333.3133885160375" y="1016.6472760511367"/>
      <point x="316.36695120097727" y="992.9850692749023" type="curve"/>
      <point x="316.36695120097727" y="924.8138198852539" type="line"/>
      <point x="327.1691562942376" y="956.4063745331058"/>
      <point x="357.08814374800016" y="979.1031229987836"/>
    </contour>
    <contour>
      <point x="160.59000146484368" y="729.5979385375977" type="line"/>
      <point x="817.5093358764649" y="-20" type="line"/>
      <point x="817.5093358764649" y="850" type="line"/>
      <point x="766.0953344116211" y="850" type="line"/>
      <point x="766.0953344116211" y="120.40206146240234" type="line"/>
      <point x="109.17599999999996" y="870" type="line"/>
      <point x="109.17599999999996" y="0" type="line"/>
      <point x="160.59000146484368" y="0" type="line"/>
    </contour>
  </outline>
</glyph>
<glyph name="O_with_diaeresis" format="2">
  <advance width="978.5320516413793"/>
  <unicode hex="00D6"/>
  <outline>
    <contour>
      <point x="446.5005813221674" y="981.140527164532" type="curve" smooth="yes"/>
      <point x="446.5005813221674" y="1006.8275895449641"/>
      <point x="425.64594534397884" y="1027.6822255231527"/>
      <point x="399.9588829635468" y="1027.6822255231527" type="curve" smooth="yes"/>
      <point x="374.2718205831147" y="1027.6822255231527"/>
      <point x="353.4171846049261" y="1006.8275895449641"/>
      <point x="353.4171846049261" y="981.140527164532" type="curve" smooth="yes"/>
      <point x="353.4171846049261" y="955.4534647841"/>
      <point x="374.2718205831146" y="934.5988288059114"/>
      <point x="399.9588829635468" y="934.5988288059114" type="curve" smooth="yes"/>
      <point x="425.64594534397884" y="934.5988288059114"/>
      <point x="446.5005813221674" y="955.4534647841"/>
    </contour>
    <contour>
      <point x="625.1148670364532" y="981.140527164532" type="curve" smooth="yes"/>
      <point x="625.1148670364532" y="1006.8275895449641"/>
      <point x="604.2602310582647" y="1027.6822255231527"/>
      <point x="578.5731686778325" y="1027.6822255231527" type="curve" smooth="yes"/>
      <point x="552.8861062974005" y="1027.6822255231527"/>
      <point x="532.0314703192118" y="1006.8275895449641"/>
      <point x="532.0314703192118" y="981.140527164532" type="curve" smooth="yes"/>
      <point x="532.0314703192118" y="955.4534647841"/>
      <point x="552.8861062974005" y="934.5988288059114"/>
      <point x="578.5731686778325" y="934.5988288059114" type="curve" smooth="yes"/>
      <point x="604.2602310582647" y="934.5988288059114"/>
      <point x="625.1148670364532" y="955.4534647841"/>
    </contour>
    <contour>
      <point x="934.3560516413794" y="425.0" type="curve" smooth="yes"/>
      <point x="934.3560516413794" y="670.6518705026265"/>
      <point x="734.9178963233162" y="865.0"/>
      <point x="489.26602582068966" y="865.0" type="curve" smooth="yes"/>
      <point x="243.61415531806313" y="865.0"/>
      <point x="44.17599999999996" y="670.6518705026265"/>
      <point x="44.17599999999996" y="425.0" type="curve" smooth="yes"/>
      <point x="44.17599999999996" y="179.34812949737352"/>
      <point x="243.61415531806313" y="-15.0"/>
      <point x="489.26602582068966" y="-15.0" type="curve" smooth="yes"/>
      <point x="734.9178963233162" y="-15.0"/>
      <point x="934.3560516413794" y="179.34812949737352"/>
    </contour>
    <contour>
      <point x="874.7156428571428" y="425.0" type="curve" smooth="yes"/>
      <point x="874.7156428571428" y="210.53090566330954"/>
      <point x="703.6454756216151" y="36.41399999999999"/>
      <point x="489.26602582068966" y="36.41399999999999" type="curve" smooth="yes"/>
      <point x="274.8865760197643" y="36.41399999999999"/>
      <point x="103.81640878423646" y="210.53090566330954"/>
      <point x="103.81640878423646" y="425.0" type="curve" smooth="yes"/>
      <point x="103.81640878423646" y="639.4690943366904"/>
      <point x="274.8865760197643" y="813.586"/>
      <point x="489.26602582068966" y="813.586" type="curve" smooth="yes"/>
      <point x="703.6454756216151" y="813.586"/>
      <point x="874.7156428571428" y="639.4690943366904"/>
    </contour>
  </outline>
</glyph>
<glyph name="multiply" format="2">
  <advance width="577.7302806396484"/>
  <unicode hex="00D7"/>
  <outline>
    <contour>
      <point x="103.5112432250976" y="202.31085968017578" type="line"/>
      <point x="288.86514031982415" y="387.66475677490234" type="line"/>
      <point x="474.2190450439453" y="202.31085968017578" type="line"/>
      <point x="511.5542806396484" y="239.64610290527344" type="line"/>
      <point x="326.2003835449218" y="425" type="line"/>
      <point x="511.5542806396484" y="610.3538970947266" type="line"/>
      <point x="474.2190450439453" y="647.6891403198242" type="line"/>
      <point x="288.86514031982415" y="462.33524322509766" type="line"/>
      <point x="103.5112432250976" y="647.6891403198242" type="line"/>
      <point x="66.17599999999996" y="610.3538970947266" type="line"/>
      <point x="251.5298970947265" y="425" type="line"/>
      <point x="66.17599999999996" y="239.64610290527344" type="line"/>
    </contour>
  </outline>
</glyph>
